<?xml version="1.0" standalone="no"?>
<!DOCTYPE svg PUBLIC "-//W3C//DTD SVG 20010904//EN"
 "http://www.w3.org/TR/2001/REC-SVG-20010904/DTD/svg10.dtd">
<svg version="1.0" xmlns="http://www.w3.org/2000/svg"
 width="1740.000000pt" height="3262.000000pt" viewBox="0 0 1740.000000 3262.000000"
 preserveAspectRatio="xMidYMid meet">

<g transform="translate(0.000000,3262.000000) scale(0.100000,-0.100000)"
fill="#000000" stroke="none">
<path d="M9390 31723 c0 -23 2 -25 11 -13 9 13 11 13 16 1 11 -27 166 -252
170 -247 6 5 -92 161 -123 196 -12 14 -29 40 -38 58 -20 39 -36 41 -36 5z"/>
<path d="M9367 31603 c-23 -99 -77 -275 -88 -287 -5 -6 -9 -18 -9 -28 0 -10
-32 -84 -71 -164 -39 -80 -69 -148 -66 -150 8 -8 127 244 165 351 44 124 95
317 90 340 -2 8 -11 -20 -21 -62z"/>
<path d="M9621 31398 c18 -29 43 -71 55 -93 13 -22 24 -34 24 -26 0 14 -88
159 -102 167 -5 3 6 -19 23 -48z"/>
<path d="M9730 31203 c82 -147 105 -183 113 -183 5 0 -1 13 -12 29 -12 16 -21
32 -21 35 0 9 -100 176 -106 176 -3 0 9 -26 26 -57z"/>
<path d="M8465 31063 c-78 -115 -189 -285 -223 -343 -18 -30 -51 -80 -73 -110
-22 -30 -44 -65 -49 -78 -6 -13 -28 -50 -51 -83 -22 -33 -39 -62 -37 -65 3 -2
24 27 48 64 23 37 71 110 105 162 35 52 111 169 170 260 58 91 117 178 129
195 l23 29 -5 -244 c-3 -148 0 -297 7 -377 l12 -133 -41 -52 c-23 -28 -55 -79
-72 -112 -17 -34 -48 -88 -69 -122 -44 -69 -111 -216 -159 -349 -40 -110 -54
-129 -47 -60 l6 50 -14 -50 c-7 -27 -14 -66 -14 -85 -1 -19 -10 -67 -21 -105
-20 -69 -26 -114 -14 -102 4 3 23 52 44 109 122 338 277 668 363 775 28 34 77
84 111 110 94 74 345 330 415 424 61 82 128 189 118 189 -5 0 -66 -93 -77
-116 -8 -17 -56 -76 -142 -174 -122 -139 -346 -335 -363 -318 -15 14 -26 225
-26 479 0 165 -1 299 -4 299 -2 0 -25 -30 -50 -67z"/>
<path d="M9889 30915 c28 -55 60 -116 71 -135 22 -39 129 -278 222 -495 69
-163 106 -272 138 -407 24 -99 24 -107 -10 -158 -5 -8 -16 -32 -25 -53 -16
-42 -35 -41 -35 1 0 68 -79 305 -217 652 -66 166 -95 225 -67 134 18 -55 71
-248 85 -308 5 -21 14 -46 18 -55 15 -27 70 -291 82 -391 22 -187 22 -214 4
-251 -30 -58 -146 -220 -225 -314 -42 -49 -112 -137 -155 -195 -46 -61 -173
-200 -304 -333 -183 -186 -227 -225 -232 -210 -16 40 -8 124 21 217 35 115 92
365 120 531 11 66 27 150 35 186 16 74 75 424 75 448 0 10 -3 12 -10 5 -5 -5
-25 -86 -43 -179 -44 -221 -239 -815 -267 -815 -11 0 -19 81 -30 304 -5 103
-11 190 -13 193 -3 2 -3 -94 0 -214 5 -273 31 -468 103 -768 21 -88 41 -176
45 -195 4 -19 34 -120 67 -225 33 -104 64 -208 69 -229 11 -45 68 -186 105
-258 25 -48 25 -50 7 -78 -18 -28 -100 -120 -107 -120 -2 0 -7 12 -10 28 -4
15 -9 35 -12 45 -4 11 0 17 10 17 13 0 15 8 10 43 -9 59 -51 180 -89 257 -42
82 -162 453 -205 630 -18 74 -36 142 -41 150 -13 20 -3 -41 26 -165 13 -55 26
-118 30 -140 7 -46 86 -327 110 -395 9 -25 20 -65 26 -90 5 -25 35 -129 65
-232 l57 -187 -84 -116 c-45 -64 -85 -118 -88 -120 -3 -1 -49 35 -101 82 -107
95 -204 149 -248 138 -15 -3 -69 -26 -121 -51 -51 -24 -96 -44 -98 -44 -3 0
-2 12 2 28 4 15 9 37 11 50 3 12 -14 84 -36 159 -22 75 -45 177 -50 227 -6 50
-15 125 -20 166 -6 41 -12 149 -14 240 -2 91 -12 262 -22 380 -18 206 -19 211
-22 120 -4 -98 12 -419 29 -595 6 -55 14 -157 19 -226 9 -135 31 -310 59 -478
l18 -104 -57 -63 c-48 -53 -63 -79 -94 -164 -20 -56 -36 -108 -36 -115 0 -37
-22 -18 -55 47 -21 40 -46 85 -57 100 -10 15 -29 51 -42 80 -24 53 -24 56 -28
475 -1 236 -7 418 -12 413 -4 -4 -14 -53 -21 -109 -8 -55 -16 -104 -19 -109
-10 -16 -66 -422 -66 -478 0 -30 5 -64 11 -75 23 -44 -30 2 -155 132 l-125
132 5 96 c6 94 34 366 74 708 17 151 25 185 59 270 42 106 137 303 228 478
196 372 522 854 693 1024 37 36 95 102 131 146 l64 80 5 -385 5 -385 8 290 c4
160 11 346 16 415 5 69 8 126 7 127 -2 2 -366 -392 -398 -432 -67 -82 -197
-270 -308 -445 -135 -214 -141 -222 -147 -216 -2 2 9 30 25 63 17 32 42 99 57
148 99 330 190 564 280 720 31 55 95 156 142 224 46 68 82 125 80 128 -9 8
-165 -204 -249 -337 -189 -302 -218 -351 -291 -490 -74 -142 -164 -359 -188
-453 -12 -51 -22 -58 -39 -28 -17 32 -11 79 16 133 14 28 48 108 74 178 27 70
94 219 149 330 55 112 99 205 97 207 -12 12 -162 -261 -215 -392 -22 -55 -64
-160 -95 -234 l-54 -135 -15 35 c-8 19 -31 70 -50 115 -20 44 -48 119 -62 165
-64 212 -75 251 -100 351 l-26 106 54 164 c30 90 53 165 51 167 -2 2 -8 -9
-15 -25 -6 -16 -15 -37 -20 -46 -5 -10 -9 -23 -9 -30 0 -7 -7 -26 -15 -41 -8
-16 -20 -47 -26 -70 -13 -49 -27 -69 -42 -60 -42 26 109 -519 210 -761 31 -72
69 -165 85 -206 16 -41 38 -90 49 -108 10 -18 19 -41 19 -50 1 -18 -91 -202
-101 -202 -8 0 -108 285 -118 335 -4 22 -40 139 -79 260 -39 121 -76 253 -82
293 -7 40 -17 78 -23 85 -7 6 -14 21 -15 32 -4 24 -18 40 -25 28 -10 -16 93
-393 142 -520 27 -71 61 -169 75 -218 14 -50 46 -142 71 -205 l46 -114 -45
-106 c-24 -58 -54 -131 -66 -163 l-22 -59 -18 29 c-32 53 -102 256 -115 333
-7 41 -22 113 -34 160 -12 47 -27 112 -35 145 -13 57 -14 58 -15 20 0 -40 10
-116 48 -370 27 -174 41 -235 93 -404 l41 -134 -12 -96 c-26 -202 -44 -381
-50 -504 l-6 -128 -62 74 c-212 255 -344 438 -448 622 -33 59 -84 146 -113
193 -70 113 -255 481 -277 551 -22 67 -16 171 20 346 29 142 104 407 139 494
14 34 21 59 16 56 -5 -3 -16 -27 -26 -53 -9 -26 -21 -51 -26 -57 -4 -5 -8 -17
-8 -26 0 -10 -5 -30 -12 -46 -11 -27 -19 -53 -68 -228 -12 -44 -26 -108 -31
-143 -5 -35 -12 -68 -16 -75 -4 -6 -10 -43 -13 -81 -5 -74 -21 -94 -37 -49
-37 102 -63 198 -63 232 0 44 -8 71 -21 71 -12 0 -12 -45 0 -68 5 -9 24 -73
41 -142 62 -240 153 -438 384 -840 219 -380 490 -740 783 -1041 62 -64 113
-118 113 -121 0 -3 -42 -7 -93 -10 -88 -4 -98 -6 -168 -46 -140 -81 -269 -212
-330 -337 -16 -33 -39 -73 -52 -88 l-23 -29 -43 119 c-24 65 -61 156 -81 203
-20 47 -56 137 -78 200 -59 162 -141 367 -142 353 0 -7 29 -93 64 -190 97
-271 141 -431 129 -464 -13 -33 14 -120 65 -214 l31 -57 -58 -56 c-43 -42 -62
-71 -76 -111 -17 -51 -18 -53 -35 -35 -10 11 -57 96 -105 189 -48 94 -101 190
-118 215 -44 66 -152 428 -203 682 -10 48 -20 86 -22 84 -2 -2 1 -64 7 -137 6
-74 15 -215 20 -314 14 -261 45 -423 136 -710 42 -132 97 -289 122 -350 74
-181 71 -192 -30 -86 -36 38 -96 87 -134 109 -37 22 -93 62 -123 88 -30 26
-86 69 -123 97 -106 77 -311 335 -539 677 -82 124 -152 227 -155 230 -12 11
43 -90 90 -165 218 -350 399 -601 619 -857 117 -137 127 -156 109 -201 -6 -16
-17 -9 -71 50 -98 103 -220 250 -355 427 -25 33 -45 56 -45 52 0 -10 39 -86
60 -116 9 -14 25 -50 34 -80 10 -30 47 -115 83 -188 67 -137 104 -185 247
-311 41 -37 66 -80 66 -113 0 -22 -32 -2 -85 53 -33 34 -82 79 -110 100 -140
109 -229 190 -271 248 -62 86 -191 339 -269 531 -125 305 -135 325 -135 300 0
-14 11 -47 25 -74 14 -27 25 -54 25 -59 0 -5 13 -36 28 -70 16 -34 37 -84 46
-112 21 -60 122 -269 147 -306 10 -14 21 -38 25 -55 11 -48 137 -215 218 -291
42 -39 76 -75 76 -80 0 -11 -462 -9 -479 1 -18 11 -13 -6 7 -21 9 -7 37 -24
62 -37 70 -36 121 -65 155 -92 18 -13 36 -24 42 -24 5 0 39 -20 76 -45 37 -25
70 -45 73 -45 4 0 23 -13 43 -29 20 -15 48 -34 62 -42 15 -8 52 -34 84 -59 32
-25 79 -58 105 -75 103 -64 178 -155 195 -236 7 -35 100 -169 116 -169 11 0
49 -37 49 -48 0 -5 -12 -14 -27 -21 -15 -7 -57 -33 -95 -58 l-68 -46 -97 13
c-54 7 -124 21 -155 30 -41 13 -69 16 -94 10 -39 -9 -46 -15 -153 -121 l-73
-74 -107 -21 c-58 -12 -127 -31 -153 -43 -26 -11 -52 -21 -58 -21 -5 0 -18 -4
-28 -9 -9 -5 -51 -23 -92 -41 -41 -18 -93 -41 -115 -51 -22 -11 -43 -19 -47
-19 -8 0 -112 45 -139 59 -16 9 -89 -11 -137 -38 -35 -19 -205 -165 -256 -219
-31 -33 -68 -57 -123 -81 -43 -19 -108 -49 -144 -66 -37 -18 -79 -35 -95 -39
-49 -13 -434 -210 -514 -264 -83 -56 -82 -53 -75 -167 3 -55 10 -118 16 -140
6 -22 16 -62 22 -90 7 -27 15 -54 18 -60 4 -5 10 -30 14 -55 4 -25 14 -60 23
-79 19 -41 14 -49 -75 -149 -34 -38 -78 -100 -99 -138 -20 -38 -42 -76 -48
-84 -37 -46 -48 -99 -49 -227 0 -129 15 -219 50 -308 8 -22 19 -49 23 -60 15
-38 23 -60 26 -72 1 -7 9 -26 17 -42 9 -17 19 -45 22 -63 4 -18 11 -38 16 -44
5 -6 16 -46 25 -90 21 -101 35 -127 27 -49 -3 33 -20 94 -36 135 -22 53 -32
101 -38 165 -11 146 19 440 42 404 7 -12 9 -12 9 0 0 11 3 11 16 0 13 -11 14
-30 8 -137 -6 -114 -5 -125 10 -119 11 4 16 1 17 -11 1 -9 5 35 10 98 9 147
41 254 105 361 57 95 118 146 249 209 67 32 191 67 201 57 2 -2 -5 -52 -16
-112 -32 -181 -25 -312 32 -565 25 -110 57 -193 122 -310 26 -47 53 -95 60
-108 15 -28 127 -144 133 -138 8 7 -49 89 -97 141 -82 88 -175 316 -206 507
-9 59 -20 105 -24 103 -4 -3 -10 9 -14 26 -9 45 -7 167 2 173 12 7 29 -7 35
-29 4 -12 5 -10 3 8 -2 15 0 27 3 27 4 0 15 32 25 72 22 85 80 202 132 265 38
47 137 103 181 103 99 0 443 -151 647 -284 183 -120 274 -203 365 -331 147
-208 211 -331 211 -405 0 -27 -3 -50 -7 -50 -5 0 -57 24 -118 55 -60 30 -126
57 -145 61 -22 4 17 -20 105 -66 165 -85 338 -198 416 -272 51 -48 199 -254
199 -277 0 -25 -91 -28 -301 -10 -118 10 -229 21 -246 24 -46 8 -103 -10 -155
-49 -46 -35 -217 -140 -286 -175 -70 -36 -97 -66 -137 -158 -58 -130 -134
-255 -149 -246 -52 32 -175 201 -239 328 -48 97 -60 145 -58 250 2 148 46 271
132 369 43 49 177 143 286 201 128 68 69 50 -89 -28 -84 -41 -188 -91 -230
-110 -42 -19 -81 -44 -86 -54 -5 -10 -12 -65 -16 -123 -7 -124 -40 -275 -66
-310 -18 -24 -24 -25 -104 -22 -110 3 -262 34 -328 68 -197 98 -306 181 -388
292 -34 47 -47 59 -57 50 -7 -6 -13 -14 -13 -19 0 -4 34 -50 75 -101 80 -100
97 -140 48 -114 -16 8 -66 52 -112 97 -76 75 -82 78 -61 40 27 -47 117 -151
131 -151 5 0 49 -26 97 -59 122 -81 218 -128 313 -151 45 -10 84 -22 87 -25
16 -16 -27 -29 -108 -33 -122 -6 -163 10 -257 101 -40 39 -73 65 -73 59 0 -7
5 -12 10 -12 6 0 10 -7 10 -15 0 -8 5 -15 10 -15 6 0 10 -6 10 -12 0 -15 52
-66 93 -91 15 -10 27 -26 27 -38 0 -23 -8 -22 -97 17 -94 42 -218 189 -263
313 -30 83 -41 104 -34 63 3 -18 12 -45 20 -60 8 -15 14 -32 14 -39 0 -31 79
-140 160 -222 79 -79 94 -100 110 -153 11 -33 20 -70 20 -82 0 -23 22 -93 45
-141 7 -17 19 -43 24 -59 15 -38 111 -171 136 -186 10 -7 0 9 -24 36 -64 72
-137 230 -171 370 -16 65 -28 120 -25 122 7 8 125 -61 125 -73 0 -7 7 -15 15
-19 9 -3 36 -49 60 -102 50 -106 120 -215 202 -312 60 -71 98 -138 83 -147 -5
-3 -55 17 -111 44 -101 49 -101 49 -70 17 19 -19 31 -42 31 -59 0 -43 31 -238
47 -297 8 -30 19 -73 25 -95 5 -22 13 -47 18 -56 5 -9 12 -34 16 -55 10 -55
84 -219 125 -279 78 -113 350 -368 542 -508 81 -59 115 -96 147 -161 101 -206
181 -312 315 -421 70 -57 107 -68 220 -69 85 -1 106 2 122 17 11 9 29 17 41
17 l21 0 -21 -36 c-20 -33 -20 -40 -8 -126 12 -86 11 -92 -7 -107 -39 -32 -61
-85 -54 -128 4 -22 11 -45 15 -51 4 -7 -23 -50 -63 -102 -56 -73 -72 -101 -82
-148 -6 -31 -29 -124 -50 -207 -51 -199 -106 -470 -154 -770 -23 -142 -22
-138 -49 -170 -13 -15 -30 -39 -38 -53 -7 -14 -25 -39 -40 -56 -66 -75 -162
-233 -177 -292 -14 -54 -20 -139 -27 -384 -4 -138 -10 -210 -18 -220 -7 -8
-23 -32 -35 -54 -12 -21 -44 -64 -70 -95 -27 -31 -65 -82 -86 -115 -40 -63
-44 -87 -75 -441 -29 -321 -29 -320 -75 -455 -73 -211 -98 -292 -110 -351 -8
-36 -20 -84 -28 -105 -8 -21 -22 -66 -32 -99 -10 -33 -21 -69 -26 -80 -4 -11
-12 -38 -18 -60 -5 -22 -21 -83 -35 -135 -13 -52 -34 -140 -46 -195 -12 -55
-26 -112 -32 -126 -5 -15 -13 -51 -18 -80 -5 -30 -16 -88 -24 -129 -39 -191
-48 -278 -49 -500 -2 -219 7 -304 34 -335 25 -27 -6 -106 -105 -269 -24 -39
-53 -90 -64 -113 -12 -23 -35 -62 -52 -86 -16 -25 -30 -48 -30 -51 0 -4 -12
-25 -27 -49 -25 -40 -26 -46 -24 -177 1 -74 6 -160 12 -191 l11 -56 -43 -60
c-54 -72 -126 -163 -198 -246 -93 -109 -104 -144 -116 -378 -10 -202 -28 -365
-42 -389 -8 -14 -32 -52 -53 -85 -21 -33 -49 -78 -61 -100 -11 -22 -34 -62
-49 -90 -81 -146 -350 -675 -350 -689 0 -6 -30 -71 -67 -145 -36 -75 -69 -145
-73 -156 -4 -11 -40 -94 -79 -183 -39 -90 -71 -168 -71 -173 0 -5 -4 -17 -9
-27 -25 -45 -61 -130 -67 -157 -4 -16 -10 -34 -14 -40 -4 -5 -16 -39 -27 -75
-12 -36 -35 -112 -53 -169 -34 -109 -35 -167 -5 -201 7 -8 22 -37 33 -65 23
-56 36 -82 73 -140 14 -22 45 -76 69 -120 24 -44 49 -89 55 -100 6 -11 30 -49
53 -83 23 -35 44 -73 48 -85 3 -11 35 -62 69 -113 35 -52 68 -108 74 -126 6
-17 17 -39 25 -47 19 -22 193 -313 231 -386 18 -33 44 -79 58 -102 15 -24 27
-45 27 -48 0 -3 12 -24 26 -47 l27 -42 -7 -341 c-11 -549 -44 -1110 -78 -1355
-22 -158 -22 -162 9 -220 15 -30 39 -70 53 -89 23 -33 23 -35 6 -45 -74 -44
-80 -66 -41 -152 30 -65 30 -74 7 -105 -10 -13 -28 -49 -41 -79 -14 -30 -35
-78 -48 -107 -13 -28 -23 -54 -23 -57 0 -3 -18 -44 -40 -90 -22 -47 -51 -123
-65 -168 -14 -46 -30 -91 -35 -100 -6 -10 -10 -24 -10 -32 0 -8 -23 -41 -51
-73 -28 -32 -71 -87 -96 -123 -25 -36 -51 -69 -57 -75 -6 -5 -22 -30 -35 -55
-13 -25 -32 -54 -41 -65 -20 -24 -100 -163 -100 -175 0 -4 -21 -47 -46 -96
-49 -97 -98 -219 -109 -274 -4 -19 -11 -41 -15 -50 -14 -27 -67 -202 -84 -279
-33 -142 -30 -441 4 -475 6 -6 10 -20 10 -32 0 -13 17 -37 41 -58 l40 -37 112
4 c155 5 288 31 527 102 30 8 69 20 85 25 109 31 378 167 466 235 31 23 67 49
80 56 13 7 53 41 89 76 36 34 68 63 72 63 10 0 161 181 188 225 13 22 43 63
67 92 24 28 43 54 43 58 0 4 8 17 18 30 9 12 24 33 32 45 8 12 26 37 40 56 14
18 41 56 60 85 43 63 119 149 133 149 19 0 144 108 198 172 100 116 146 209
169 346 16 93 37 210 58 327 11 61 26 143 33 183 11 64 17 77 48 104 19 17 50
40 67 50 17 10 44 37 60 59 27 39 27 40 11 75 -10 19 -17 43 -17 52 0 10 27
44 60 77 81 80 100 123 100 228 0 46 4 97 9 113 5 16 19 63 31 104 26 87 48
156 61 185 4 11 16 47 25 80 9 33 20 65 24 70 4 6 12 28 18 50 5 22 20 65 32
95 13 30 26 64 30 75 31 80 40 107 40 121 0 9 7 32 16 52 9 21 20 46 24 57 50
119 74 172 80 180 4 6 11 24 15 42 6 31 41 112 69 162 10 17 37 33 88 51 140
51 167 68 278 178 58 59 126 134 150 167 24 33 57 74 72 90 16 17 40 48 55 70
15 22 40 56 56 75 33 41 35 44 67 90 23 32 49 80 128 230 16 30 33 64 39 75 6
11 25 49 42 85 33 69 102 170 142 208 13 12 62 56 109 98 242 216 224 179 215
456 -3 117 -8 215 -10 218 -2 3 -8 122 -14 265 -7 143 -17 310 -22 370 -13
135 -12 433 2 700 6 110 12 317 14 460 2 243 4 264 25 310 48 109 75 166 113
239 17 33 21 63 25 195 3 86 -1 234 -8 329 l-13 173 39 32 c70 57 130 122 143
157 7 19 17 44 21 55 4 11 16 83 25 160 9 77 23 172 31 212 8 40 14 88 14 107
0 36 43 255 61 312 5 18 14 54 19 80 4 27 16 78 25 114 9 36 27 115 40 175 34
160 38 172 79 259 40 84 41 89 15 208 -12 55 -11 58 14 91 14 19 29 46 32 60
4 14 16 33 26 43 19 17 20 17 26 -6 4 -13 26 -63 49 -111 38 -75 45 -102 59
-205 8 -65 17 -126 20 -134 7 -25 35 -448 35 -537 0 -44 -8 -143 -17 -220 -18
-145 -19 -282 -2 -346 8 -30 42 -70 159 -185 82 -81 176 -172 209 -202 l59
-55 -5 -75 c-2 -41 -11 -160 -19 -264 -23 -308 -22 -326 31 -434 24 -51 56
-105 70 -120 14 -15 25 -31 25 -35 0 -14 61 -139 82 -169 11 -15 19 -36 19
-45 0 -38 -23 -181 -36 -227 -17 -56 -20 -199 -6 -272 15 -77 49 -347 61 -479
12 -129 2 -324 -25 -510 -8 -55 -16 -120 -19 -145 -2 -25 -8 -74 -14 -110 -23
-142 -34 -322 -29 -466 8 -204 21 -285 53 -336 29 -45 152 -168 170 -168 14 0
63 -54 105 -114 19 -27 46 -66 62 -88 15 -21 27 -42 27 -46 0 -5 19 -31 43
-59 23 -29 71 -93 107 -143 36 -50 82 -110 102 -132 21 -23 40 -49 43 -59 4
-11 11 -19 16 -19 5 0 9 -5 9 -10 0 -6 17 -29 38 -51 20 -22 48 -57 62 -78 14
-21 55 -70 90 -110 36 -40 64 -76 63 -81 -1 -4 53 -63 120 -131 96 -98 136
-131 187 -156 59 -29 142 -60 180 -67 8 -1 22 -5 30 -8 8 -3 47 -14 85 -23 70
-18 105 -38 105 -60 0 -15 47 -159 65 -200 7 -16 18 -43 23 -60 6 -16 24 -68
41 -115 17 -47 31 -94 31 -105 0 -11 7 -33 15 -49 8 -15 15 -34 15 -41 0 -7 7
-26 15 -41 8 -16 15 -37 15 -46 0 -9 4 -19 9 -22 5 -3 12 -21 15 -40 4 -19 13
-47 21 -62 7 -16 19 -51 26 -79 6 -27 15 -59 20 -70 4 -11 15 -47 25 -80 9
-33 21 -64 24 -70 4 -5 11 -26 15 -45 4 -19 10 -39 14 -45 4 -5 16 -39 26 -75
10 -36 22 -69 25 -75 4 -5 10 -28 13 -50 10 -62 44 -124 105 -187 l55 -58 -15
-33 c-36 -74 -33 -89 20 -138 27 -24 68 -59 91 -77 33 -27 41 -39 41 -66 0
-18 9 -77 21 -132 11 -54 27 -137 35 -184 7 -47 20 -116 29 -155 9 -38 20 -88
25 -110 21 -97 40 -148 71 -187 49 -65 158 -175 214 -218 63 -47 129 -111 182
-175 45 -55 130 -179 144 -210 15 -33 53 -88 167 -239 139 -184 341 -363 512
-454 155 -83 205 -104 360 -156 310 -102 396 -119 585 -120 181 -1 208 13 241
123 21 71 15 388 -9 466 -9 28 -23 77 -32 110 -9 33 -20 68 -26 77 -5 10 -9
26 -9 35 0 10 -7 31 -15 47 -8 16 -22 54 -31 85 -15 54 -89 221 -102 231 -4 3
-15 23 -25 45 -35 74 -70 140 -106 195 -20 30 -41 66 -46 80 -12 30 -46 90
-83 147 -61 95 -105 159 -116 168 -34 31 -86 113 -92 144 -7 43 -34 122 -46
135 -4 6 -8 16 -8 23 0 7 -11 36 -24 65 -14 29 -39 87 -56 128 -17 41 -47 108
-66 148 l-36 72 18 48 c9 26 21 51 26 56 16 19 7 59 -22 96 -16 21 -30 40 -30
43 0 3 16 32 35 65 59 98 59 101 14 310 -53 247 -69 343 -69 427 0 39 -5 99
-10 135 -25 163 -34 1042 -13 1228 10 89 13 96 67 177 31 47 56 89 56 94 0 8
32 60 122 193 21 32 38 61 38 65 0 6 68 111 152 235 10 15 18 30 18 33 0 3 16
27 35 54 19 26 35 53 35 60 0 6 4 11 9 11 5 0 19 19 31 42 20 39 67 109 169
250 68 95 72 112 50 183 -10 33 -30 81 -44 107 -14 27 -25 54 -25 62 0 7 -30
73 -66 147 -76 155 -80 166 -90 199 -3 14 -11 30 -16 37 -16 20 -118 227 -118
241 0 6 -13 38 -29 70 -16 31 -45 89 -65 128 -19 39 -43 93 -52 119 -9 27 -40
98 -68 159 -29 61 -66 145 -81 186 -16 41 -41 98 -56 125 -31 56 -39 84 -69
235 -12 58 -26 123 -32 145 -12 48 -71 131 -98 140 -11 4 -20 13 -20 20 0 8
-12 22 -27 32 -46 29 -138 135 -169 194 -8 16 -23 89 -34 163 -11 74 -32 194
-46 267 -15 74 -30 165 -35 203 -9 74 -35 141 -78 195 -14 18 -44 57 -66 87
-84 111 -125 163 -173 218 -69 79 -77 131 -43 297 30 149 12 236 -58 282 -42
28 -48 44 -32 75 29 52 38 158 22 253 -5 30 -15 95 -21 144 -7 50 -16 95 -20
100 -4 6 -10 26 -14 45 -3 19 -26 98 -51 174 -25 77 -45 149 -45 160 0 28 -81
275 -125 381 -20 48 -42 136 -72 288 -3 15 -9 30 -14 33 -5 3 -9 13 -9 23 0
10 -16 66 -35 124 -19 58 -35 112 -35 119 0 11 -60 209 -80 263 -15 41 -59
191 -65 225 -8 40 -52 185 -65 215 -5 11 -19 49 -30 85 -12 36 -25 74 -30 85
-4 11 -14 43 -21 70 -6 28 -19 63 -27 79 -12 24 -12 44 -3 120 20 160 23 206
28 437 4 189 3 230 -10 255 -8 16 -82 97 -165 179 l-150 150 -7 75 c-10 107
-77 510 -89 540 -4 9 -10 54 -15 100 -7 76 -48 298 -71 390 -11 44 -48 231
-66 330 -22 124 -31 160 -68 270 -19 58 -38 125 -42 150 -10 60 -35 104 -99
170 -29 30 -55 66 -58 80 -15 68 -38 135 -61 174 -24 42 -25 44 -8 78 16 33
21 36 72 43 30 3 80 12 110 20 183 44 200 45 272 10 28 -14 60 -25 70 -25 27
0 231 79 304 118 57 29 69 41 88 83 13 26 28 54 34 62 12 14 72 125 99 182 8
17 19 39 25 50 29 51 138 274 138 281 0 4 14 37 31 73 29 63 36 78 64 146 7
17 20 47 29 68 9 21 16 43 16 50 0 7 11 40 24 73 18 47 44 81 125 164 55 58
113 123 128 145 15 22 44 63 64 90 60 82 87 145 108 250 22 113 51 357 51 425
0 38 5 50 39 85 51 52 85 155 126 380 22 118 41 160 115 260 72 96 96 135 82
135 -4 0 -15 -15 -24 -32 -9 -18 -44 -68 -78 -111 -71 -88 -118 -117 -260
-161 -79 -24 -251 -58 -258 -51 -2 1 25 11 60 22 96 29 242 141 320 246 95
128 161 289 171 422 6 71 -10 42 -17 -33 -6 -62 -50 -192 -88 -264 -75 -142
-176 -228 -338 -291 -125 -48 -198 -66 -293 -74 -43 -3 -80 -10 -83 -14 -18
-31 154 -50 330 -38 159 11 190 19 288 74 l77 43 -4 -26 c-36 -212 -83 -396
-115 -446 -11 -19 -35 -45 -53 -58 -82 -62 -248 -138 -302 -138 -42 0 -78 -60
-211 -354 -54 -117 -60 -135 -38 -115 14 13 34 40 44 59 10 19 32 53 50 75 17
21 52 75 78 118 54 91 119 154 198 193 31 15 77 50 104 78 27 28 52 47 56 43
4 -4 0 -55 -10 -115 -9 -59 -20 -168 -24 -242 -7 -129 -9 -138 -46 -212 -21
-43 -60 -106 -88 -140 -156 -198 -264 -318 -275 -303 -5 6 -14 11 -22 13 -16
3 -141 -36 -159 -51 -20 -16 -63 -105 -117 -242 -26 -66 -67 -159 -92 -208
-24 -49 -43 -91 -41 -93 14 -14 83 74 183 234 74 120 137 209 171 243 29 29
56 50 59 47 8 -7 -50 -163 -118 -320 -69 -158 -93 -204 -116 -227 -11 -11 -26
-43 -35 -72 -8 -30 -39 -92 -67 -139 -29 -47 -76 -129 -106 -182 -73 -132 -99
-152 -273 -212 l-142 -49 -57 26 c-31 14 -123 52 -206 85 -82 33 -188 77 -235
98 -84 38 -86 38 -255 45 -93 4 -227 17 -298 28 -195 32 -195 26 -2 -32 144
-43 256 -66 520 -108 125 -20 224 -41 262 -56 62 -25 74 -43 28 -43 -13 0 -61
-9 -107 -21 -108 -26 -419 -38 -535 -20 -124 20 -269 82 -407 175 -121 81
-121 81 -149 148 -46 112 -87 292 -94 408 -10 184 35 467 102 645 42 112 145
292 213 371 56 66 74 80 149 114 265 123 629 180 747 118 101 -53 395 -326
463 -430 24 -38 46 -68 48 -68 11 0 3 20 -30 75 -20 32 -34 60 -32 61 2 2 39
-10 81 -28 56 -23 83 -29 94 -22 8 6 31 40 51 76 20 36 62 97 94 135 107 132
228 429 247 609 6 55 22 130 41 183 28 83 31 99 27 188 -4 94 -6 101 -46 168
-84 139 -265 338 -397 435 -68 50 -76 54 -69 37 3 -8 44 -46 92 -85 110 -89
163 -144 247 -257 107 -142 115 -164 115 -328 0 -297 -104 -678 -243 -891 -76
-116 -89 -131 -163 -172 -71 -40 -85 -41 -159 -13 -42 16 -75 40 -139 104 -94
92 -222 195 -306 246 -52 31 -60 33 -150 34 -52 0 -117 -2 -144 -5 l-50 -5
-42 79 c-75 141 -80 237 -18 421 40 121 135 303 189 363 76 85 267 249 438
376 87 65 156 120 154 122 -7 7 -207 -45 -256 -67 -86 -38 -98 -22 -87 117 8
105 21 142 76 224 128 190 345 397 558 535 93 60 122 68 206 56 116 -17 201
-75 283 -197 103 -151 131 -235 145 -439 21 -294 -11 -502 -108 -714 -25 -54
-29 -70 -16 -58 40 36 101 189 128 317 22 107 25 151 26 305 0 156 -3 197 -26
306 -14 70 -32 145 -40 167 -25 70 -93 205 -130 256 -19 27 -33 53 -30 58 3 4
37 18 77 30 56 18 96 23 177 23 l105 0 145 -69 c173 -82 254 -137 313 -214 58
-75 82 -123 105 -213 11 -41 32 -119 47 -174 22 -82 26 -114 22 -180 -5 -87
-35 -215 -67 -291 -27 -62 -18 -69 10 -7 36 80 52 125 55 158 0 6 4 16 9 23 4
8 7 78 5 157 -2 79 -1 147 3 150 4 4 1 19 -6 34 -23 46 -27 83 -15 131 24 92
-24 187 -128 258 -32 22 -80 58 -108 81 -62 51 -277 161 -376 193 -65 20 -94
23 -234 23 -186 0 -371 -25 -451 -60 -127 -56 -425 -283 -535 -407 -75 -85
-241 -301 -320 -418 -39 -56 -85 -142 -113 -210 -72 -174 -90 -189 -88 -76 2
157 96 400 236 612 165 249 256 359 346 419 66 44 299 160 467 232 79 34 103
53 66 53 -10 0 -61 -7 -113 -15 -120 -19 -234 -57 -297 -98 -83 -54 -293 -273
-402 -420 -57 -76 -105 -137 -107 -134 -7 6 94 204 162 317 58 97 167 235 235
297 27 24 255 119 364 152 211 62 496 117 554 106 64 -12 154 -66 231 -140 46
-44 103 -86 141 -105 35 -18 87 -49 114 -69 28 -21 69 -49 91 -64 61 -38 171
-138 237 -215 56 -65 79 -117 90 -197 2 -17 5 -5 6 26 2 83 -9 100 -187 290
l-34 37 19 38 c11 22 25 59 32 84 7 25 17 56 22 70 5 14 10 70 11 124 l1 99
-46 41 c-90 80 -193 163 -232 186 -22 14 -44 28 -50 32 -17 14 -176 108 -182
108 -3 0 -75 34 -159 75 -84 41 -159 75 -166 75 -20 0 -180 59 -197 73 -27 22
-85 88 -118 136 -55 78 -184 200 -223 211 -35 10 -310 -4 -395 -19 -32 -6 -49
-3 -85 15 -25 12 -117 57 -205 99 -272 130 -509 245 -535 261 -14 8 -49 26
-79 40 -54 25 -55 25 -128 10 -70 -14 -77 -14 -119 4 -46 20 -85 19 -134 -5
-14 -7 -41 -15 -60 -18 -29 -6 -32 -5 -15 5 11 6 31 21 45 34 14 12 66 46 115
75 150 87 678 349 704 349 17 0 106 43 95 47 -22 7 -336 -128 -491 -213 -115
-62 -241 -124 -253 -124 -6 0 0 15 13 33 51 67 142 271 152 342 7 41 16 54 83
118 204 193 232 221 232 229 0 18 -43 -16 -154 -123 -64 -61 -120 -109 -126
-107 -24 8 56 96 278 308 128 122 231 225 228 227 -3 3 -64 -45 -137 -107 -72
-62 -174 -141 -225 -176 l-94 -62 1 31 c0 18 6 70 13 117 7 47 10 92 6 100 -4
8 -8 34 -7 57 0 25 -9 56 -22 78 l-22 37 68 75 c211 233 290 326 334 392 46
69 55 92 30 76 -6 -3 -35 -39 -64 -78 -63 -86 -200 -248 -310 -369 -77 -85
-81 -88 -123 -88 -24 0 -59 -8 -79 -17 -59 -28 -183 -194 -309 -415 -15 -27
-31 -48 -35 -48 -5 0 -14 21 -21 48 -7 26 -25 89 -41 141 -32 104 -30 111 27
111 17 0 36 6 42 13 15 19 25 120 23 244 l-1 111 38 49 c96 123 247 371 348
574 64 129 82 187 28 92 -28 -50 -165 -287 -262 -453 -75 -130 -133 -211 -144
-204 -23 14 8 110 62 189 45 68 105 181 87 167 -22 -19 -167 -211 -167 -223 0
-5 -49 41 -109 102 -82 85 -113 111 -127 106 -76 -22 -250 -90 -303 -117 -61
-30 -65 -31 -78 -14 -18 25 -18 26 24 81 42 55 233 325 343 485 40 59 71 110
68 114 -4 3 -50 -48 -104 -113 -54 -65 -150 -174 -213 -243 -63 -69 -128 -144
-144 -167 -17 -23 -34 -40 -39 -37 -5 3 -33 43 -62 88 -29 45 -82 115 -117
156 -35 41 -70 83 -78 92 -11 15 -4 28 61 105 183 218 349 448 513 711 22 35
65 103 95 150 31 48 96 155 144 237 49 83 120 202 158 265 157 260 179 302
281 525 62 137 73 164 99 254 27 93 40 57 67 -184 22 -189 31 -369 31 -602 0
-236 -6 -326 -35 -564 -8 -63 -15 -124 -14 -135 0 -18 1 -18 9 1 7 17 9 16 11
-10 2 -40 25 135 39 305 25 300 28 421 13 575 -7 82 -16 191 -18 240 l-4 90
15 -65 c48 -211 66 -295 79 -380 8 -52 24 -151 35 -220 70 -429 92 -927 49
-1146 -18 -96 -107 -369 -177 -544 -71 -178 -177 -374 -303 -562 -33 -48 -59
-90 -59 -94 0 -29 180 212 242 323 17 32 44 76 58 98 15 22 46 91 69 154 33
89 54 128 96 180 271 331 332 410 395 511 29 47 64 102 77 123 60 95 -11 26
-146 -141 -41 -51 -108 -120 -149 -154 -41 -35 -85 -76 -99 -93 l-24 -30 6 35
c4 19 20 84 36 143 26 91 30 125 30 217 l-1 109 98 76 c174 135 423 378 642
625 96 110 90 104 -131 -116 -103 -103 -189 -182 -191 -178 -3 5 3 36 13 69
51 172 79 321 78 415 l-2 95 -7 -86 c-5 -47 -29 -173 -56 -280 -26 -107 -49
-205 -52 -219 -7 -33 -200 -215 -348 -328 l-44 -34 0 64 c0 62 24 137 49 153
24 14 151 287 220 469 44 117 55 167 17 76 -33 -78 -252 -521 -269 -545 -15
-19 -16 -18 -22 18 -6 30 -2 46 19 84 14 27 54 102 87 168 34 66 79 150 100
187 22 37 39 79 38 95 0 15 -3 21 -6 13 -9 -25 -136 -231 -140 -227 -2 2 12
38 31 80 54 117 113 321 97 331 -9 6 -19 -15 -84 -181 -46 -116 -144 -303
-159 -303 -4 0 -8 19 -8 43 -1 51 -31 275 -61 454 -21 122 -21 134 -7 150 9
10 53 76 98 148 97 154 208 381 295 600 74 188 81 210 66 201 -6 -4 -11 -15
-11 -24 0 -9 -18 -53 -40 -96 -22 -43 -40 -85 -40 -92 0 -16 -82 -198 -119
-264 -5 -8 -14 -27 -22 -42 -7 -16 -15 -28 -19 -28 -4 0 -10 71 -13 158 -6
148 -34 398 -58 522 -15 78 -69 310 -80 344 -5 16 -9 42 -9 58 0 16 -16 84
-36 151 -20 67 -40 140 -45 162 -5 22 -13 49 -18 60 -5 11 -16 38 -25 60 -28
75 -16 18 38 -172 80 -281 154 -622 180 -824 18 -136 36 -381 36 -495 l0 -80
-56 -89 c-31 -49 -69 -114 -84 -145 -16 -30 -35 -64 -44 -75 -15 -19 -15 -19
-16 15 0 19 11 109 24 200 39 269 41 482 6 865 -19 213 -31 183 -23 -60 13
-354 9 -821 -6 -888 -12 -54 -31 -70 -31 -26 0 11 -9 48 -21 82 -12 34 -25
101 -29 149 -7 73 -49 276 -78 378 -13 44 -36 29 -55 -35 -21 -71 -31 -96
-130 -320 -111 -252 -178 -375 -442 -805 -112 -182 -237 -353 -344 -469 -61
-67 -111 -127 -111 -134 1 -7 24 15 53 48 78 89 121 132 114 113 -3 -9 -43
-72 -88 -140 l-82 -122 -25 55 c-42 93 -102 269 -102 298 0 18 11 37 31 57 17
16 63 67 102 114 39 47 112 130 161 185 168 184 396 466 396 488 0 17 -36 -20
-138 -143 -187 -224 -553 -620 -573 -620 -15 0 -27 64 -16 85 6 11 95 106 198
210 185 188 275 290 419 475 104 133 284 372 294 390 21 35 -62 -52 -122 -130
-252 -323 -388 -488 -474 -574 -103 -104 -142 -124 -65 -34 46 54 137 208 210
353 112 226 165 350 154 361 -2 3 -51 -66 -107 -153 -135 -208 -273 -391 -401
-533 -57 -64 -118 -133 -136 -154 l-31 -38 -15 28 c-12 25 -39 134 -54 224 -4
21 12 40 102 124 148 137 406 414 518 554 87 109 217 289 314 434 56 84 176
315 239 463 28 66 77 176 108 245 94 206 97 212 121 277 26 67 24 89 -1 26 -8
-21 -31 -68 -50 -104 -19 -37 -34 -73 -34 -80 0 -8 -32 -77 -70 -154 -39 -76
-70 -144 -70 -150 0 -5 -10 -26 -22 -45 -12 -19 -27 -48 -33 -64 -17 -50 -32
-41 -49 31 -39 158 -45 181 -65 238 -12 33 -26 69 -31 80 -5 11 -19 43 -31 70
-12 28 -30 68 -40 89 -11 22 -19 43 -19 48 0 5 -31 74 -70 154 -38 80 -70 150
-71 157 0 7 -10 29 -22 49 -12 21 -46 81 -75 135 -72 131 -87 143 -23 18z
m-937 -3811 c52 -27 175 -133 276 -239 163 -170 306 -402 331 -535 7 -36 20
-99 29 -140 26 -119 21 -273 -13 -395 -38 -139 -84 -254 -146 -368 -53 -99
-70 -112 -50 -40 26 94 7 67 -33 -47 -24 -69 -56 -155 -70 -192 -24 -65 -114
-219 -155 -269 l-20 -24 -1 22 c0 12 6 42 14 65 8 24 17 102 20 173 3 72 10
175 15 230 15 152 13 416 -4 520 -8 50 -15 108 -15 130 0 93 -117 277 -282
445 -113 115 -149 140 -176 124 -37 -23 -158 -296 -192 -431 -9 -36 -15 -43
-35 -43 -26 0 -29 5 -40 95 -8 58 -46 153 -84 210 -36 53 -44 75 -31 90 22 27
-8 23 -46 -5 -55 -40 -90 -93 -174 -260 -51 -101 -93 -208 -142 -355 -67 -204
-69 -214 -80 -360 -15 -222 -3 -650 23 -767 11 -50 18 -93 15 -95 -7 -8 -54
61 -79 117 -13 30 -48 96 -76 145 -29 50 -56 110 -61 135 -12 56 -34 136 -49
174 -7 16 -25 83 -42 150 -26 107 -49 166 -49 127 0 -36 55 -273 76 -330 13
-35 23 -66 20 -68 -5 -5 -60 83 -80 127 -34 76 -115 299 -134 370 -31 113 -62
288 -62 351 0 70 43 289 70 360 34 86 147 305 192 372 73 108 162 189 263 238
87 43 93 44 185 44 133 0 148 -8 216 -119 31 -50 71 -113 89 -141 18 -27 36
-65 40 -83 6 -31 29 -52 41 -39 3 3 10 20 14 39 5 18 31 96 59 173 54 153 69
173 198 262 l52 36 76 -33 c104 -45 195 -139 397 -407 88 -117 162 -213 164
-213 6 0 -130 199 -249 365 -123 172 -190 234 -287 269 -31 12 -59 25 -61 31
-5 13 71 35 96 28 11 -3 32 -12 47 -19z m851 -246 c-5 -7 -67 -91 -138 -186
-79 -106 -132 -168 -136 -160 -8 13 5 36 70 123 47 63 199 235 208 235 3 0 1
-6 -4 -12z m254 -427 c67 -77 84 -102 92 -143 12 -53 13 -206 2 -357 l-6 -95
-35 -9 c-59 -15 -63 -23 -45 -108 9 -41 27 -121 40 -179 28 -118 25 -146 -20
-260 -14 -36 -44 -121 -66 -190 -40 -121 -63 -186 -99 -280 -10 -25 -34 -96
-54 -158 -94 -300 -146 -397 -283 -537 -135 -138 -413 -360 -566 -451 -81 -48
-83 -49 -178 -52 -109 -4 -116 -2 -274 96 -445 276 -666 458 -758 624 -49 87
-105 228 -127 319 -19 80 -69 227 -139 412 -23 59 -41 109 -41 112 0 3 6 5 14
5 18 0 34 -27 130 -214 42 -82 92 -170 111 -196 19 -26 35 -50 35 -53 0 -3
-23 -3 -52 0 -37 5 -49 3 -44 -5 4 -7 31 -12 59 -12 l52 0 58 -70 c58 -69 85
-83 67 -34 -6 14 -10 41 -10 60 0 31 3 34 23 29 12 -3 83 -9 157 -14 75 -6
151 -17 170 -25 21 -9 84 -16 160 -19 69 -3 133 -8 144 -12 22 -10 40 13 24
32 -13 16 -35 17 -40 2 -3 -9 -10 -9 -23 -2 -35 19 -208 62 -294 73 -46 6
-138 10 -204 9 -111 -2 -121 -1 -127 17 -12 34 -33 155 -27 160 3 3 27 -17 54
-45 l49 -51 67 0 c37 0 149 -15 249 -34 108 -20 215 -34 260 -34 59 0 86 -5
121 -22 58 -29 117 -23 158 16 20 19 34 25 50 21 12 -3 31 -1 42 5 15 8 28 6
56 -10 36 -21 37 -21 79 -2 34 15 42 24 42 45 0 53 15 65 84 65 51 0 74 6 122
31 66 34 114 80 114 108 0 10 8 25 18 33 19 17 312 148 331 148 14 0 14 -17 0
-26 -6 -3 -45 -59 -86 -123 -103 -159 -115 -171 -174 -171 -80 0 -410 -72
-396 -86 5 -5 185 30 327 63 36 8 80 12 99 9 31 -5 39 -1 72 35 20 22 77 100
125 174 101 152 117 164 190 146 60 -15 84 -7 83 27 -1 17 -3 21 -6 10 -2 -10
-8 -18 -11 -17 -4 0 -27 42 -52 92 l-45 92 -50 -3 c-29 -1 -75 -14 -110 -30
-56 -27 -309 -190 -417 -269 -27 -19 -48 -31 -48 -28 0 4 22 46 49 94 27 47
84 162 127 255 69 153 90 207 155 401 31 92 34 191 10 330 -12 66 -28 145 -36
175 -8 30 -11 57 -7 60 4 4 68 30 142 59 74 28 149 58 165 66 60 29 82 18 172
-84z m-1057 -293 c33 -56 75 -138 92 -183 l33 -80 3 -227 3 -228 -74 -78 c-41
-43 -99 -116 -129 -162 -72 -113 -70 -110 -60 -110 5 0 36 37 70 83 33 45 90
111 126 147 l66 64 0 -34 c0 -19 -7 -75 -15 -125 -8 -49 -15 -115 -15 -146 0
-106 -4 -113 -103 -184 l-91 -64 -23 21 c-14 13 -23 33 -23 52 0 17 -5 38 -10
46 -7 11 -10 -8 -9 -62 2 -73 -9 -108 -32 -108 -19 0 -39 34 -39 66 0 19 -4
34 -10 34 -5 0 -10 -15 -10 -32 0 -44 -12 -60 -41 -56 -23 3 -24 8 -34 113 -6
61 -13 103 -16 95 -4 -8 -4 -39 -1 -68 5 -55 -13 -92 -46 -92 -26 0 -217 125
-386 254 -91 69 -181 136 -200 148 -48 33 -140 108 -148 122 -3 6 -2 66 3 134
7 97 17 147 45 235 43 134 87 233 116 264 44 47 275 109 368 99 44 -5 66 -1
110 18 30 13 93 40 140 61 113 49 219 84 252 85 24 0 35 -12 88 -102z m1631
-207 c23 -19 24 -23 23 -178 0 -111 -5 -176 -17 -218 -8 -33 -29 -112 -46
-175 -38 -145 -66 -227 -126 -362 -54 -124 -81 -155 -205 -235 -47 -31 -101
-68 -121 -84 -20 -16 -42 -29 -48 -29 -6 0 -20 18 -31 40 -13 26 -27 40 -40
40 -31 0 -60 -36 -60 -74 0 -54 -8 -66 -47 -66 -24 0 -34 4 -31 13 3 6 15 44
28 82 32 97 80 145 143 145 49 0 62 9 96 63 22 36 62 60 85 51 25 -10 55 15
66 54 15 54 12 158 -5 191 -17 34 -33 41 -91 41 -24 0 -44 4 -44 10 0 18 47
115 84 173 37 57 56 66 56 24 0 -12 9 -37 20 -54 15 -26 26 -33 51 -33 l31 0
-31 35 c-46 53 -41 70 44 155 94 93 98 90 91 -70 -4 -104 2 -157 17 -134 3 5
15 62 26 127 18 98 20 128 11 182 -6 35 -13 71 -16 80 -5 11 5 26 27 45 21 18
28 29 19 29 -51 1 -225 -162 -316 -295 -71 -104 -124 -204 -124 -236 -1 -13
-7 -34 -15 -48 -20 -35 -18 -84 4 -111 l20 -24 31 38 c50 59 70 47 70 -41 0
-59 -17 -93 -55 -111 -17 -7 -46 -28 -65 -47 -36 -34 -77 -54 -111 -54 -18 0
-19 2 -4 30 8 16 39 48 68 71 28 23 54 45 55 50 10 26 -74 -6 -115 -44 -34
-31 -37 -16 -10 49 14 33 33 86 42 119 10 33 27 80 37 105 11 25 30 83 44 129
14 49 38 102 58 130 18 25 56 83 84 129 62 99 173 246 215 285 38 33 93 37
128 8z m-3649 -118 c115 -109 218 -242 306 -393 62 -108 94 -179 107 -240 4
-19 26 -80 50 -135 23 -55 46 -113 50 -130 l6 -30 -40 40 c-31 30 -41 47 -41
71 0 59 -47 77 -124 48 -26 -10 -20 35 10 78 23 32 25 44 20 82 -12 79 -208
351 -349 484 -53 49 -84 70 -57 37 10 -12 10 -21 1 -41 -23 -51 -8 -398 18
-427 4 -4 12 47 19 113 6 66 14 125 17 130 10 15 61 -28 100 -85 39 -56 44
-98 20 -145 -19 -36 -6 -39 38 -8 41 28 54 46 61 81 3 16 10 26 16 22 12 -7
70 -119 70 -135 0 -5 -15 -16 -34 -24 -46 -19 -63 -48 -78 -134 -15 -88 -7
-105 48 -112 50 -7 73 -23 125 -88 47 -60 67 -73 98 -65 15 4 30 -2 46 -17 21
-20 27 -21 41 -9 13 10 18 11 21 2 2 -6 22 -48 44 -93 44 -93 48 -115 18 -123
-41 -11 -66 8 -72 54 -5 40 -27 69 -50 69 -5 0 -21 -13 -35 -30 -15 -16 -30
-30 -35 -30 -5 0 -62 30 -126 68 -64 37 -138 78 -164 91 -52 27 -123 102 -154
166 -20 40 -56 155 -112 357 -35 124 -65 354 -59 447 4 54 8 67 32 87 46 40
79 32 148 -33z m358 -73 c0 -11 -2 -20 -5 -20 -2 0 -9 9 -15 20 -9 16 -8 20 5
20 8 0 15 -9 15 -20z m-820 -86 c41 -5 53 -15 145 -108 55 -56 106 -110 114
-119 23 -29 -3 -19 -59 23 -32 24 -81 48 -120 59 -139 41 -212 60 -207 54 4
-3 54 -27 111 -54 58 -26 125 -61 148 -77 24 -16 67 -41 95 -57 29 -15 59 -38
67 -50 23 -34 80 -185 73 -192 -4 -3 -23 7 -44 23 -132 103 -234 177 -349 252
-133 87 -364 225 -396 238 -10 3 -18 9 -18 14 0 8 367 3 440 -6z m3402 -324
c14 -30 29 -67 33 -81 l7 -26 -69 0 c-47 1 -88 -6 -133 -23 -118 -42 -337
-148 -452 -219 -62 -38 -114 -68 -116 -66 -5 5 18 45 46 83 25 32 395 287 484
333 49 25 148 59 163 56 6 -2 22 -27 37 -57z m-2028 -39 c8 -12 222 -175 310
-235 39 -27 104 -74 143 -105 40 -31 83 -64 95 -73 l23 -17 -25 6 c-14 4 -102
48 -197 99 -94 51 -217 116 -272 144 l-101 50 0 70 c0 63 9 86 24 61z m-388
-69 c-9 -8 -26 10 -26 26 1 15 2 15 15 -2 8 -11 13 -21 11 -24z m594 -239 c35
-72 54 -89 123 -112 68 -24 109 -26 135 -10 15 9 28 5 72 -22 68 -40 91 -59
85 -70 -8 -12 -110 1 -246 32 -71 16 -155 29 -192 29 -89 0 -106 8 -151 74
-39 57 -54 108 -55 188 l-1 37 103 -48 c98 -46 103 -49 127 -98z m1320 18 c0
-38 -109 -105 -190 -117 -41 -6 -43 -5 -25 9 30 22 198 117 207 117 4 0 8 -4
8 -9z m-1140 -86 c0 3 14 -2 32 -11 30 -16 31 -17 13 -30 -27 -20 -39 -18
-100 17 -52 29 -95 70 -95 91 0 5 34 -9 75 -32 41 -23 75 -39 75 -35z m780
-48 c0 -13 -50 -47 -70 -47 -17 0 -1 19 34 41 37 23 36 22 36 6z m10 -55 c0
-28 -24 -55 -46 -50 -27 5 -24 40 6 55 34 17 40 16 40 -5z m1647 -149 c71 -42
154 -83 529 -263 66 -32 138 -63 160 -69 21 -6 52 -22 69 -35 l30 -24 -59 -7
c-55 -7 -63 -12 -134 -79 -41 -39 -104 -109 -140 -156 -36 -47 -81 -102 -99
-122 -53 -61 -135 -237 -209 -451 -37 -104 -40 -142 -9 -92 11 17 49 68 86
115 75 96 82 109 134 240 88 224 212 426 299 487 57 41 163 62 366 73 102 5
200 10 218 10 30 0 44 -11 114 -85 79 -83 167 -193 168 -207 0 -17 -25 -6 -64
25 -23 19 -50 39 -61 44 -31 16 -232 46 -264 40 -17 -4 -55 0 -86 9 -89 23
-216 43 -234 36 -64 -22 -137 -123 -227 -311 -31 -63 -80 -152 -111 -198 -31
-46 -54 -86 -51 -88 12 -13 44 15 178 157 139 146 180 181 305 265 66 44 211
103 253 103 34 0 174 -45 326 -104 66 -26 167 -63 225 -82 200 -67 539 -246
681 -359 36 -28 93 -73 128 -99 34 -26 69 -60 77 -76 18 -34 19 -113 4 -178
-19 -78 -29 -71 -29 20 0 84 -1 87 -31 113 -77 64 -231 123 -409 156 -107 20
-158 23 -355 24 -229 0 -231 0 -350 -33 -152 -41 -379 -151 -525 -255 -126
-89 -238 -204 -280 -286 -16 -33 -51 -95 -77 -138 -109 -182 -221 -402 -303
-593 -48 -113 -91 -215 -95 -228 -4 -13 -9 -21 -12 -19 -9 10 39 162 98 310
78 194 119 314 119 345 0 13 -10 65 -21 115 l-21 90 32 84 c17 46 63 150 101
230 81 170 126 225 303 367 123 98 168 138 162 143 -4 4 -197 -109 -325 -191
-37 -23 -79 -61 -101 -90 -40 -54 -137 -218 -240 -403 -34 -62 -63 -113 -65
-113 -5 0 161 383 200 460 60 120 87 152 246 295 231 209 305 251 558 315 143
37 183 52 170 65 -11 10 -195 25 -243 19 -75 -10 -159 -64 -331 -215 -265
-231 -354 -323 -414 -427 -33 -56 -103 -148 -179 -235 -138 -158 -252 -301
-288 -362 -31 -54 -124 -311 -164 -455 -52 -190 -121 -393 -144 -430 -23 -35
-206 -260 -212 -260 -1 0 31 53 72 118 42 64 91 149 109 187 39 82 125 343
190 575 25 91 57 201 71 245 49 155 194 721 194 759 0 15 7 54 14 85 49 191
101 572 91 666 -13 114 -86 285 -171 398 -37 49 -47 77 -29 77 2 0 39 -21 82
-47z m-677 8 c5 -11 10 -29 10 -41 0 -26 26 -37 51 -22 38 24 40 5 3 -44 -31
-39 -56 -43 -79 -11 -21 30 -37 94 -30 117 8 25 31 26 45 1z m-2512 -88 c3
-56 -13 -79 -64 -89 -38 -7 -64 20 -71 77 -5 33 -3 41 8 37 8 -2 18 -19 24
-36 5 -18 13 -32 17 -32 13 0 30 42 24 63 -3 11 0 29 5 39 9 18 13 18 32 5 17
-11 23 -26 25 -64z m2975 5 c117 -118 235 -275 271 -362 9 -21 16 -64 16 -95
0 -80 -36 -320 -61 -410 -23 -84 -139 -390 -196 -516 -122 -273 -190 -435
-182 -430 22 14 77 109 185 322 81 160 114 217 111 190 -7 -44 -64 -256 -108
-399 l-29 -97 -164 -183 c-204 -229 -452 -481 -531 -539 -68 -50 -79 -55 -296
-138 -159 -61 -512 -163 -697 -201 -57 -11 -136 -21 -175 -22 l-72 -2 -170 89
c-326 169 -609 327 -818 457 -161 101 -171 115 -273 366 -50 125 -197 671
-234 872 -12 63 -24 126 -27 139 -9 35 11 19 40 -33 30 -55 104 -245 151 -389
94 -286 391 -710 603 -858 56 -39 309 -146 403 -170 101 -26 423 -43 695 -36
331 9 618 67 810 165 147 74 475 413 540 557 13 28 45 88 72 135 27 47 61 114
75 150 15 36 50 121 78 190 33 81 61 173 80 260 16 74 39 180 51 235 14 60 23
136 23 190 1 86 -1 96 -53 225 -68 172 -92 220 -152 301 -27 37 -49 69 -49 73
0 20 47 0 83 -36z m-195 -37 c134 -46 155 -63 217 -177 36 -66 45 -92 45 -131
0 -78 -12 -80 -95 -12 -51 43 -109 76 -206 120 -147 67 -179 90 -179 127 0 30
65 112 88 112 9 0 68 -18 130 -39z m-307 -16 c12 -32 16 -35 41 -30 32 7 39
-13 13 -35 -28 -23 -120 58 -101 89 14 21 35 10 47 -24z m-94 15 c34 -12 44
-30 79 -140 l23 -74 -49 -46 c-58 -54 -70 -81 -70 -165 0 -58 3 -68 32 -100
46 -53 120 -88 168 -80 48 8 97 44 133 98 26 38 28 47 22 102 -10 87 -27 121
-79 152 -25 15 -48 34 -51 42 -27 69 186 1 310 -99 28 -22 69 -55 93 -72 31
-23 54 -54 79 -105 33 -66 35 -78 29 -130 -8 -76 -50 -283 -83 -405 -29 -112
-11 -95 -209 -201 -66 -35 -164 -97 -218 -137 l-97 -72 -182 -3 c-146 -4 -202
-9 -284 -28 l-103 -24 0 35 c0 19 36 142 80 275 44 132 79 242 76 244 -7 8
-45 -53 -81 -133 -45 -99 -104 -290 -113 -367 -8 -66 -5 -64 -152 -107 -36
-11 -105 -37 -155 -59 -49 -22 -91 -38 -93 -36 -2 2 34 61 80 132 126 192 248
399 285 483 30 69 109 304 147 442 14 49 29 72 106 153 96 102 123 147 191
317 42 105 48 118 53 118 2 0 17 -5 33 -10z m-2419 -107 c-4 -47 -34 -59 -44
-19 -7 29 9 56 33 56 10 0 13 -10 11 -37z m2594 -48 c-8 -17 -19 -25 -30 -23
-23 4 -27 42 -6 62 15 16 18 16 32 2 13 -12 13 -20 4 -41z m-2589 -18 c7 -19
-4 -33 -30 -41 -20 -7 -23 -4 -23 23 0 26 4 31 24 31 13 0 26 -6 29 -13z
m2587 -37 c15 -27 5 -40 -31 -40 -33 0 -33 0 -17 35 14 30 33 32 48 5z m-4414
-37 c70 -41 77 -54 14 -29 -61 24 -126 20 -187 -12 -29 -15 -110 -76 -180
-137 -166 -144 -182 -154 -353 -226 -190 -80 -425 -196 -525 -258 -105 -66
-125 -95 -125 -185 0 -80 -5 -81 -21 -5 -16 79 -13 119 12 145 27 28 514 271
713 355 149 63 150 63 255 164 58 55 125 115 149 134 55 43 142 91 166 91 11
0 48 -17 82 -37z m1833 -5 c9 -25 -2 -38 -32 -38 -20 0 -32 23 -23 45 9 23 45
18 55 -7z m2666 -41 c24 -24 36 -48 45 -91 15 -72 5 -100 -56 -156 -34 -32
-51 -40 -80 -40 -66 0 -151 65 -166 126 -10 39 3 44 67 28 36 -10 77 -14 102
-10 53 7 113 31 113 46 0 6 -13 4 -32 -6 -41 -22 -151 -24 -195 -5 -70 29 -25
120 59 122 24 0 52 4 63 9 34 15 46 11 80 -23z m-2724 -18 c15 -7 24 -7 34 1
8 6 29 10 47 8 27 -2 39 -12 66 -52 45 -68 41 -95 -18 -114 -37 -13 -58 -13
-122 -4 -43 6 -87 16 -98 22 -33 17 -26 64 16 110 39 43 45 45 75 29z m-546
-249 c49 -342 64 -435 85 -510 11 -41 41 -158 66 -260 108 -433 175 -660 319
-1065 62 -177 78 -213 147 -333 70 -121 180 -282 323 -473 129 -170 160 -218
150 -227 -9 -9 -92 90 -379 457 -43 55 -103 123 -132 151 -82 78 -107 72 -259
-58 -33 -28 -61 -49 -63 -47 -2 1 10 29 26 62 17 32 40 91 52 130 19 62 20 79
11 139 -35 234 -83 456 -99 462 -14 4 -11 -28 15 -169 l16 -85 -40 -100 c-22
-54 -46 -116 -53 -136 -6 -21 -15 -38 -20 -38 -10 0 -30 64 -30 98 0 12 -18
101 -40 196 -22 95 -40 183 -40 195 0 12 -27 104 -61 204 -38 114 -69 233 -85
318 -33 185 -43 214 -109 318 -64 102 -92 132 -82 91 3 -14 21 -72 40 -130 20
-58 47 -143 62 -190 15 -47 37 -110 50 -140 101 -236 157 -517 147 -735 l-3
-60 -29 55 c-16 30 -43 91 -60 135 -44 112 -189 396 -261 512 -146 233 -310
400 -572 582 -198 139 -474 238 -751 271 -151 18 -150 17 -54 81 46 31 108 68
138 82 90 43 121 66 132 97 10 29 11 30 78 30 107 0 213 -18 354 -61 216 -66
265 -87 313 -136 73 -76 160 -189 224 -295 35 -55 64 -97 66 -91 2 6 -15 59
-38 119 -22 60 -55 147 -71 194 -56 160 -115 242 -268 370 -61 50 -110 95
-110 99 0 12 187 -88 247 -132 64 -47 126 -114 152 -165 30 -59 95 -226 121
-312 12 -41 25 -70 27 -64 7 20 -45 209 -76 279 -17 37 -31 73 -31 79 0 7 15
27 34 45 25 24 41 32 62 29 25 -3 35 -14 74 -93 25 -49 68 -155 95 -235 41
-118 51 -139 53 -112 2 18 -2 63 -8 100 -17 105 -25 398 -11 460 11 53 50 121
99 174 14 15 27 27 28 25 1 -1 14 -85 29 -187z m956 53 c22 -47 61 -145 88
-217 27 -72 74 -186 105 -252 57 -126 67 -165 85 -349 16 -155 35 -141 -207
-148 l-207 -5 -40 38 c-55 51 -169 132 -230 162 -27 14 -82 35 -122 47 -40 12
-75 26 -79 33 -13 20 -33 132 -34 183 0 34 7 61 21 85 42 68 261 270 293 270
10 0 12 -37 8 -160 -3 -112 -1 -160 6 -160 12 0 14 7 56 175 53 213 71 254
139 323 34 34 65 62 70 62 4 0 26 -39 48 -87z m-399 7 c38 -8 61 -6 109 9 70
22 83 13 53 -39 -32 -52 -89 -85 -151 -85 -52 0 -57 2 -99 47 -32 34 -44 55
-44 77 l0 30 43 -15 c23 -8 63 -19 89 -24z m617 -132 c16 -35 45 -101 66 -148
40 -93 143 -292 154 -300 5 -3 47 -63 95 -133 105 -155 166 -233 268 -345 43
-47 76 -88 73 -90 -2 -3 -57 18 -122 46 -65 28 -165 62 -222 76 -121 31 -121
31 -121 59 -1 12 -8 40 -16 62 -48 127 -90 258 -130 409 -24 94 -61 221 -81
283 -19 61 -33 119 -30 127 13 33 38 15 66 -46z m1359 -45 c7 -153 -74 -404
-176 -548 -19 -27 -39 -52 -44 -53 -4 -2 -27 -36 -50 -75 -22 -40 -77 -125
-121 -189 -65 -95 -89 -122 -122 -138 -23 -11 -50 -20 -60 -20 -36 0 -353 348
-467 513 -37 53 -76 118 -88 144 -24 54 -70 230 -70 267 0 27 19 76 30 76 3 0
28 -14 56 -32 27 -17 123 -77 214 -133 156 -97 166 -105 193 -156 38 -72 129
-209 139 -209 4 0 8 44 8 98 0 96 -1 99 -30 127 -16 16 -30 32 -30 36 0 3 31
9 69 11 61 5 78 11 147 54 44 27 142 97 219 155 77 58 149 110 160 117 11 6
20 12 20 12 1 0 2 -26 3 -57z m-3908 -500 c372 -77 715 -281 870 -519 80 -122
114 -189 159 -309 44 -117 123 -386 117 -393 -6 -5 -35 42 -117 186 -68 119
-261 387 -332 460 -55 57 -194 167 -282 224 -38 25 -92 65 -120 90 -91 82
-217 169 -319 219 -151 76 -150 78 24 42z m4980 2 c0 -2 -13 -33 -29 -67 -16
-35 -48 -106 -72 -158 -23 -52 -46 -99 -50 -103 -4 -5 -17 -4 -28 3 -29 15
-128 31 -148 23 -15 -6 -14 -7 3 -14 10 -4 33 -8 49 -8 44 -1 105 -20 105 -33
0 -6 -20 -52 -43 -102 -68 -142 -244 -344 -428 -492 -102 -81 -153 -110 -253
-142 -124 -41 -143 -44 -149 -29 -3 6 -21 49 -41 95 -36 86 -144 258 -204 324
-72 80 -192 140 -227 114 -14 -10 -11 -12 19 -13 68 -2 157 -73 236 -188 28
-41 172 -346 166 -352 -19 -19 -498 -74 -513 -59 -11 11 -21 151 -23 326 -1
85 -6 166 -10 180 -4 14 -8 -93 -9 -242 l-1 -268 -152 1 c-84 0 -173 4 -198 7
-44 7 -45 8 -51 52 -12 85 -70 282 -100 342 -60 120 -174 287 -186 274 -2 -2
12 -26 33 -53 40 -52 113 -197 145 -290 15 -45 59 -270 59 -304 0 -45 -277 36
-475 139 -78 41 -171 124 -236 210 -24 31 -61 79 -83 105 -51 63 -166 255
-166 278 0 30 55 66 112 74 29 4 102 15 162 26 163 28 374 26 536 -6 69 -13
157 -35 195 -48 117 -41 328 -128 357 -148 36 -26 60 -24 121 10 107 60 368
159 485 185 224 50 280 57 452 61 l175 4 112 78 c105 72 328 210 346 212 4 1
7 -1 7 -4z m-3090 -121 c86 -44 260 -168 268 -191 2 -8 -6 -13 -22 -13 -14 0
-54 -10 -87 -21 -55 -19 -68 -20 -115 -10 -87 20 -113 44 -161 151 -23 52 -42
105 -42 118 -1 21 2 22 37 16 20 -3 75 -26 122 -50z m-2180 11 c96 -20 389
-110 459 -141 30 -14 83 -42 118 -64 34 -22 66 -40 70 -40 17 0 122 -76 230
-167 88 -73 127 -114 181 -190 248 -353 434 -683 419 -745 -16 -61 -61 -73
-73 -19 -10 42 -146 287 -226 407 -166 247 -236 319 -452 463 -289 194 -749
360 -911 330 -138 -26 -292 -93 -567 -246 -4 -2 -5 3 -2 12 6 15 138 105 246
168 52 30 85 78 113 164 9 31 28 62 43 74 25 20 35 21 152 16 69 -3 159 -13
200 -22z m-982 -450 c-7 -17 -8 -28 -1 -37 11 -14 11 -53 0 -64 -12 -12 -8
-26 5 -18 7 5 -3 -10 -21 -32 -61 -73 -85 -192 -58 -285 11 -36 17 -102 19
-195 l3 -140 -29 65 c-42 97 -65 234 -63 371 l2 116 59 104 c52 93 82 140 92
140 2 0 -1 -11 -8 -25z m5667 -876 c-99 -99 -197 -191 -217 -205 -27 -19 -71
-32 -165 -50 -225 -43 -365 -65 -392 -62 -24 4 -21 6 24 27 28 13 93 38 145
56 138 47 517 245 646 337 80 57 128 87 133 82 3 -3 -76 -86 -174 -185z
m-2130 -97 c55 -30 111 -62 125 -72 14 -10 62 -36 107 -58 45 -23 119 -64 165
-91 111 -65 238 -116 323 -130 39 -6 149 -15 245 -21 96 -6 212 -13 258 -16
l83 -6 -35 -19 c-33 -18 -60 -19 -353 -19 -232 1 -328 4 -354 14 -78 28 -583
358 -674 441 -48 43 -49 45 -20 39 17 -4 75 -31 130 -62z m1824 -364 c0 -7
-27 -35 -60 -61 l-60 -48 -56 32 c-47 27 -54 34 -37 40 15 5 174 42 207 48 4
0 7 -5 6 -11z m-2989 -27 c96 -7 176 -13 177 -15 4 -3 -42 -12 -202 -41 -49
-9 -117 -22 -150 -30 -33 -8 -93 -16 -134 -19 -112 -8 -164 -38 -261 -149 -70
-82 -119 -128 -185 -177 -19 -14 -19 -14 1 10 11 14 26 38 32 53 32 74 -7 78
-44 5 -27 -52 -27 -54 -20 -200 l6 -148 -38 -28 c-21 -15 -59 -38 -84 -52 -44
-23 -47 -23 -72 -7 -43 29 -38 46 64 217 31 52 79 142 107 200 57 116 71 133
158 183 33 19 125 75 205 126 l145 92 60 -4 c33 -3 139 -10 235 -16z m3780 -5
c161 -13 280 -36 280 -54 0 -4 -30 -4 -67 0 -112 13 -410 20 -393 10 8 -5 96
-13 195 -17 313 -12 362 -22 445 -93 25 -22 32 -33 24 -41 -8 -9 -28 -3 -75
19 -71 33 -219 54 -219 31 0 -7 -20 -11 -52 -12 -29 0 -73 -4 -98 -8 -33 -5
-3 -9 115 -13 94 -4 192 -13 238 -24 70 -15 77 -19 77 -41 0 -13 -6 -38 -14
-56 l-13 -33 -109 -12 c-100 -10 -191 -35 -211 -56 -4 -5 5 -6 22 -2 16 4 79
14 140 21 60 8 120 17 133 21 12 3 22 5 22 3 0 -2 -5 -31 -10 -64 -6 -33 -14
-119 -20 -190 -9 -137 -14 -160 -33 -169 -7 -2 -52 -21 -102 -40 l-90 -36 50
45 c28 24 62 56 78 69 20 18 27 34 27 61 0 50 -16 42 -59 -33 -36 -62 -58 -81
-46 -39 4 12 29 69 55 127 26 58 46 106 45 108 -1 2 -23 -15 -47 -38 -80 -72
-247 -181 -316 -206 -21 -7 -29 -13 -19 -14 35 0 145 65 316 187 19 14 -95
-225 -122 -254 -9 -11 -40 -25 -69 -32 -29 -7 -101 -28 -160 -47 -59 -19 -121
-34 -138 -34 -79 0 -250 65 -250 95 0 8 5 59 11 114 7 70 8 105 0 118 -8 14
-11 2 -11 -52 -1 -76 -40 -269 -59 -288 -8 -8 -11 21 -11 115 0 117 -2 130
-30 199 -40 95 -94 187 -175 293 -36 47 -65 89 -65 94 0 4 -13 21 -30 37 -65
62 -21 -18 73 -134 108 -132 167 -242 186 -347 12 -66 13 -311 1 -359 -7 -30
-7 -30 -13 -5 -16 66 -35 245 -36 328 l0 94 -71 93 c-39 51 -78 99 -88 106 -9
8 7 -16 37 -53 29 -38 50 -68 47 -68 -4 0 -38 24 -77 53 -41 32 -107 100 -163
168 -52 63 -119 139 -150 169 -31 30 -56 60 -56 66 0 7 19 29 42 48 49 43 58
42 143 -17 64 -43 280 -220 290 -237 3 -5 11 -10 16 -10 17 0 -60 83 -133 145
-38 32 -68 62 -68 69 0 18 82 64 191 107 l104 40 195 -6 c107 -2 274 -11 370
-19z m-3362 -37 c34 -11 68 -29 75 -38 7 -11 31 -20 57 -24 30 -3 126 -46 285
-126 132 -67 253 -124 268 -127 42 -10 27 -28 -34 -41 -87 -18 -159 -16 -199
7 -133 76 -152 83 -215 77 -118 -11 -129 -37 -12 -29 72 4 76 3 148 -36 57
-32 69 -42 55 -48 -10 -4 -41 0 -70 9 -71 23 -132 31 -139 20 -4 -6 5 -20 18
-33 21 -20 30 -22 77 -16 l53 7 -53 -54 c-52 -53 -54 -54 -145 -70 -138 -24
-336 -81 -407 -117 -34 -17 -63 -30 -64 -28 -1 2 -10 24 -20 51 -10 26 -24 47
-32 47 -19 0 -18 -2 11 -54 14 -25 25 -47 25 -49 0 -3 -32 -24 -70 -47 -39
-23 -85 -54 -103 -69 -64 -56 -170 -123 -164 -104 22 71 43 112 77 152 22 25
61 75 88 110 68 91 105 119 177 130 33 5 92 14 130 21 39 6 100 16 138 22 67
10 81 19 51 36 -12 7 -13 11 -4 17 7 4 27 -7 51 -31 21 -21 39 -34 39 -28 0 5
-17 27 -38 48 l-39 37 -121 -40 c-66 -22 -153 -46 -194 -52 -95 -16 -117 -27
-175 -95 -26 -31 -78 -89 -115 -129 -50 -55 -68 -82 -73 -111 -24 -145 -105
-259 -222 -317 -42 -21 -55 -37 -30 -37 8 0 7 -4 -3 -10 -8 -6 -28 -7 -45 -4
-87 16 -92 28 -66 137 10 45 22 138 26 207 7 144 17 168 116 280 32 36 80 94
106 130 62 83 102 110 162 110 68 0 347 62 473 106 37 13 77 24 88 24 11 0 20
5 20 10 0 14 -1 14 -112 -21 -55 -16 -104 -29 -110 -27 -15 5 73 55 124 70 23
7 34 14 27 19 -15 9 -88 -17 -213 -75 -110 -51 -177 -71 -281 -81 -38 -4 -80
-11 -95 -17 -32 -12 -78 -55 -96 -91 -8 -15 -64 -83 -124 -152 -82 -93 -110
-133 -110 -153 -1 -83 -20 -261 -31 -285 -7 -15 -20 -27 -29 -27 -33 0 -50 44
-51 132 0 46 -4 108 -9 138 -5 30 -14 101 -21 157 -16 124 -16 124 96 237 43
45 100 106 125 136 62 73 122 104 245 125 123 21 194 35 355 68 214 44 259 46
348 16z m2242 13 c0 -4 -16 -23 -35 -42 l-34 -33 -38 29 -37 28 64 12 c36 6
68 12 73 13 4 0 7 -3 7 -7z m-342 -73 c-114 -60 -371 -114 -419 -88 -12 6 -17
15 -13 19 5 4 90 24 189 44 99 19 189 37 200 39 11 3 34 5 50 5 l30 1 -37 -20z
m221 -10 c40 -24 188 -174 305 -309 46 -52 111 -124 146 -160 81 -84 88 -95
111 -182 25 -96 54 -527 37 -562 -6 -14 -74 -76 -151 -138 -78 -62 -186 -154
-241 -203 -56 -50 -141 -124 -190 -165 -49 -41 -118 -101 -155 -132 -344 -298
-620 -497 -846 -609 -88 -44 -104 -49 -128 -40 -28 11 -117 96 -117 112 0 11
27 12 32 1 8 -21 78 -62 105 -62 20 0 75 29 174 91 443 280 579 376 740 521
63 57 141 125 174 153 33 27 111 95 174 150 62 55 130 114 151 130 20 17 64
53 97 81 33 27 75 60 95 72 20 12 38 30 40 40 7 25 -17 220 -31 257 -18 48
-34 75 -43 75 -4 0 -8 -52 -8 -115 l0 -115 -36 -40 c-20 -22 -59 -57 -88 -77
-88 -64 -286 -222 -416 -333 -181 -153 -323 -264 -424 -333 -85 -57 -337 -197
-355 -197 -5 0 -18 22 -30 49 -21 51 -34 126 -47 286 l-8 90 -9 -55 c-27 -171
-38 -239 -62 -370 -15 -80 -31 -149 -36 -154 -5 -6 -9 76 -9 200 0 207 -13
411 -30 469 -5 17 -21 62 -35 100 -15 39 -48 131 -75 205 -26 74 -69 180 -97
235 -28 55 -54 111 -58 125 -13 42 -166 320 -206 373 -21 28 -57 70 -80 94
-44 47 -58 50 -126 28 -35 -11 -28 10 11 35 20 12 73 27 123 35 105 17 421 83
432 90 5 2 41 9 82 15 91 14 302 59 514 110 88 21 186 44 218 49 52 9 92 22
252 82 64 24 83 23 124 -2z m-3819 -131 c12 -40 43 -115 70 -167 26 -53 64
-136 84 -184 67 -162 135 -276 240 -402 23 -27 54 -67 70 -88 15 -21 53 -54
84 -74 32 -20 77 -50 102 -67 47 -32 95 -39 154 -23 29 8 29 8 14 -15 -8 -13
-37 -38 -64 -56 -79 -52 -84 -58 -84 -102 0 -75 23 -55 177 161 172 241 258
331 428 446 134 90 284 150 492 197 193 43 326 61 375 52 37 -7 79 -52 141
-153 41 -65 127 -262 127 -289 0 -59 -147 -245 -414 -526 -198 -207 -234 -240
-354 -321 -117 -80 -234 -113 -444 -124 -199 -11 -429 53 -546 152 -32 27
-113 172 -176 315 -55 126 -53 121 -138 227 -74 92 -108 125 -108 106 0 -4 7
-42 15 -84 26 -138 48 -182 151 -294 52 -57 100 -105 107 -108 7 -3 59 -96
115 -208 56 -112 113 -217 126 -234 l24 -30 83 19 c46 10 145 22 219 26 151 8
177 15 391 108 89 38 165 80 222 120 68 50 109 70 203 103 65 22 145 52 179
66 33 14 96 38 140 53 93 31 199 84 150 74 -16 -3 -64 -15 -105 -26 -98 -26
-290 -37 -290 -17 0 16 434 451 467 468 12 6 26 11 31 11 13 0 78 -100 108
-168 49 -110 122 -328 134 -403 18 -110 8 -436 -15 -509 -39 -124 -46 -130
-284 -250 -116 -59 -151 -66 -446 -95 -88 -9 -167 -17 -175 -18 -64 -9 75 97
283 213 143 81 142 88 -3 22 -25 -11 -83 -34 -130 -52 -47 -18 -123 -54 -170
-80 -47 -26 -107 -57 -134 -69 -28 -12 -86 -43 -130 -70 -45 -27 -148 -83
-231 -126 -147 -76 -151 -77 -210 -72 -91 7 -137 25 -212 81 -53 40 -83 75
-141 160 -123 183 -167 282 -278 625 -65 202 -89 254 -78 174 6 -40 22 -125
31 -155 2 -10 -1 -18 -7 -18 -13 0 -185 125 -312 227 -50 40 -95 70 -100 67
-12 -7 44 -77 99 -122 25 -20 98 -82 163 -138 100 -85 123 -100 147 -97 27 4
29 1 50 -64 12 -37 25 -81 28 -96 l6 -29 -41 23 c-151 85 -506 417 -579 542
-69 118 -151 386 -186 607 -9 58 -18 117 -21 133 -7 35 2 34 59 -4 31 -21 47
-38 47 -52 1 -20 2 -21 14 -5 12 16 18 15 82 -16 38 -18 75 -40 82 -49 7 -8
46 -83 87 -165 59 -121 87 -166 145 -231 39 -44 80 -86 92 -92 23 -13 22 -10
-24 59 -33 48 -64 114 -118 252 -51 130 -163 403 -193 470 -13 30 -37 95 -52
143 -15 49 -36 98 -46 110 l-18 22 -1 -30 c0 -29 11 -103 26 -174 l7 -34 -33
19 c-57 33 -114 90 -149 148 -34 56 -75 179 -63 190 3 3 15 6 27 6 35 0 136
38 180 68 82 55 179 101 192 91 6 -6 21 -42 33 -81z m5058 -746 c-59 -62 -90
-106 -144 -208 -72 -136 -84 -167 -132 -334 -60 -205 -90 -395 -98 -615 -6
-138 -4 -190 10 -275 22 -132 67 -245 108 -270 51 -31 104 -34 154 -8 31 15
47 19 55 11 22 -22 -83 -93 -137 -93 -39 0 -121 23 -321 90 -231 76 -585 199
-693 240 -47 18 -143 51 -215 75 -71 23 -159 57 -195 75 l-64 32 24 20 c17 14
31 17 54 12 40 -8 206 -70 481 -179 121 -48 291 -111 378 -142 157 -54 388
-125 393 -120 1 1 -8 38 -21 82 -26 92 -45 247 -45 375 0 87 -1 90 -32 120
-41 39 -62 47 -162 66 -178 34 -486 179 -486 229 0 41 156 196 328 327 42 31
95 75 119 97 38 37 43 46 44 89 2 84 11 105 46 114 18 5 65 26 105 47 83 45
203 92 212 84 3 -4 14 1 23 9 48 40 228 125 272 127 7 1 -20 -34 -61 -77z
m-3266 -1804 c24 -34 57 -70 74 -80 32 -19 28 -18 594 -45 95 -4 119 -8 100
-15 -35 -14 -697 -12 -733 1 -15 6 -49 30 -75 54 -26 24 -68 60 -94 81 -27 21
-48 42 -48 47 0 4 26 10 58 12 31 2 62 4 69 5 6 1 31 -26 55 -60z m3348 49 c0
-8 -21 -25 -48 -40 -47 -26 -235 -97 -255 -97 -24 0 11 19 74 39 36 12 99 42
140 66 81 49 89 52 89 32z m-476 -32 c-1 -12 -81 -58 -229 -132 -110 -56 -265
-124 -265 -118 0 2 33 23 73 46 39 23 98 60 129 81 147 99 222 139 258 136 19
-2 35 -7 34 -13z m-2184 -262 c165 -106 243 -114 510 -48 14 4 -29 -16 -94
-44 -164 -70 -185 -69 -358 8 -73 33 -167 75 -208 95 l-75 36 80 -3 c76 -2 85
-5 145 -44z m3430 -177 c52 -60 51 -58 135 -342 18 -60 45 -177 59 -260 15
-82 51 -273 81 -424 29 -151 59 -311 66 -355 6 -44 27 -170 45 -281 46 -274
43 -448 -10 -629 -8 -27 -25 -95 -37 -150 -37 -175 -236 -682 -324 -825 -12
-19 -43 -75 -70 -125 -65 -121 -122 -206 -195 -294 -34 -40 -58 -76 -55 -79 9
-9 154 145 249 263 91 113 207 274 316 435 114 169 290 518 318 633 38 150 33
174 -66 315 -24 35 -42 66 -38 69 7 7 92 -72 192 -179 60 -64 74 -85 83 -128
25 -117 0 -465 -59 -825 -66 -406 -72 -476 -41 -509 35 -37 111 -253 175 -497
58 -223 70 -259 80 -248 4 5 -17 301 -39 534 -21 219 -39 337 -80 510 -43 186
-48 215 -35 215 5 0 10 -10 10 -22 0 -13 27 -102 59 -198 32 -96 73 -231 91
-300 18 -69 59 -206 91 -305 31 -99 65 -209 74 -245 9 -36 29 -105 45 -155 28
-88 29 -96 35 -390 11 -531 9 -701 -10 -790 -75 -357 -360 -939 -543 -1106
-43 -40 -52 -53 -41 -60 36 -22 146 23 244 101 71 57 272 269 342 360 58 77
130 214 178 339 41 106 43 143 15 316 -11 66 -29 203 -40 305 -21 180 -76 490
-105 585 -20 67 -5 45 38 -55 35 -81 60 -159 112 -350 12 -47 46 -168 74 -270
28 -102 58 -238 66 -303 19 -140 13 -181 -45 -321 -21 -50 -56 -145 -78 -211
-22 -66 -59 -169 -82 -230 -23 -60 -58 -155 -77 -210 -29 -83 -86 -209 -69
-153 3 10 1 20 -3 22 -12 8 -43 -31 -86 -104 -20 -36 -39 -67 -42 -70 -18 -16
16 95 67 220 116 288 180 441 200 481 12 22 19 43 17 46 -7 6 -64 -68 -152
-197 -262 -385 -330 -463 -426 -493 -161 -51 -515 -87 -692 -70 -179 16 -167
8 -645 483 -313 312 -434 426 -524 493 l-118 88 -45 95 c-26 53 -59 130 -76
170 -16 41 -43 103 -60 137 -60 118 -120 252 -106 237 55 -60 149 -175 238
-290 112 -146 220 -278 308 -378 109 -124 565 -384 971 -555 241 -101 240
-101 412 -95 129 5 154 9 195 29 44 22 52 32 99 125 55 110 123 299 111 310
-10 10 -32 -11 -110 -105 -105 -126 -177 -152 -356 -132 -108 12 -162 34 -321
134 -232 145 -544 354 -665 445 -68 51 -117 87 -331 240 -158 113 -189 143
-299 287 -84 109 -121 175 -154 275 -21 65 -108 204 -185 294 -21 26 -36 49
-32 53 3 3 59 -1 123 -10 303 -43 675 -68 688 -47 6 9 4 11 -4 6 -7 -5 -18 -2
-24 6 -7 8 -70 27 -142 42 -179 39 -284 70 -390 118 -123 55 -642 307 -685
332 l-35 21 245 5 c226 5 248 7 285 27 94 50 260 262 460 586 33 53 87 139
119 190 97 151 162 272 370 686 131 261 200 409 205 441 14 86 -21 454 -42
447 -6 -2 -19 -46 -28 -98 -22 -123 -37 -179 -120 -447 -103 -330 -136 -413
-267 -667 -217 -420 -250 -475 -280 -475 -43 0 -309 -159 -497 -298 -73 -54
-140 -90 -132 -70 32 76 114 290 152 398 27 74 61 163 76 198 42 92 229 721
229 767 0 3 -4 3 -10 0 -5 -3 -17 -32 -26 -63 -31 -108 -154 -417 -222 -556
-81 -167 -105 -192 -341 -350 -158 -106 -164 -112 -204 -181 -23 -39 -62 -117
-86 -173 -24 -56 -46 -101 -48 -99 -2 2 6 64 17 138 10 74 24 186 29 249 6 63
18 202 27 308 13 152 15 204 6 245 -6 29 -16 129 -22 222 -6 94 -22 287 -35
430 -13 143 -31 373 -39 510 -17 272 -29 828 -20 838 4 3 22 0 41 -8 21 -9 68
-15 113 -15 70 0 82 -3 110 -26 57 -49 76 -98 121 -319 17 -82 48 -220 70
-305 21 -85 45 -213 54 -285 8 -71 24 -197 35 -280 11 -82 20 -154 20 -158 0
-5 5 -5 10 -2 23 14 4 562 -29 875 -11 102 -23 223 -26 270 -4 47 -18 143 -32
213 -14 71 -22 131 -18 135 3 4 40 8 80 10 67 4 79 1 121 -23 30 -18 58 -47
83 -85 41 -63 141 -277 176 -378 13 -35 25 -66 29 -69 18 -19 -10 151 -56 332
-11 44 -28 118 -38 164 l-19 83 37 -5 c21 -4 46 -17 58 -30 31 -36 62 -175 89
-403 24 -198 49 -365 80 -529 9 -44 40 -163 71 -265 30 -102 61 -207 69 -235
17 -61 66 -165 77 -165 4 0 -2 24 -13 53 -44 109 -51 139 -39 183 20 71 7 607
-19 804 -36 273 -65 377 -157 562 -30 59 -50 109 -45 112 4 3 52 17 107 31 96
26 106 26 356 23 256 -3 258 -3 280 20 l22 22 -76 0 c-42 0 -79 4 -82 9 -3 4
22 28 57 51 34 24 84 59 110 78 l49 35 102 -104 c101 -102 104 -106 146 -214
58 -147 106 -310 126 -420 8 -49 19 -96 24 -105 12 -20 12 -17 -6 128 -22 182
-49 331 -83 457 -95 361 -101 376 -152 394 -36 13 -31 24 22 52 38 19 42 19
65 5 30 -20 44 -48 82 -166 37 -113 135 -510 157 -630 19 -108 53 -271 57
-276 4 -3 1 299 -5 546 -3 112 -6 130 -30 177 -29 55 -90 207 -127 315 -24 68
-24 68 -5 125 10 34 20 100 22 158 5 124 7 132 30 114 10 -8 29 -27 43 -43z
m-720 -151 c0 -2 -10 -9 -22 -15 -22 -11 -22 -10 -4 4 21 17 26 19 26 11z
m-1824 -842 c-4 -27 -11 -133 -17 -238 -12 -238 -42 -635 -74 -1003 -13 -155
-29 -362 -35 -460 -6 -97 -15 -212 -21 -254 -11 -76 -11 -79 26 -190 20 -62
57 -192 81 -288 25 -96 63 -233 86 -305 22 -71 43 -137 45 -145 2 -8 -33 58
-79 147 -47 90 -97 177 -114 194 -16 17 -67 49 -114 70 -144 68 -150 71 -170
104 -21 35 -135 376 -176 530 -14 55 -51 183 -82 285 -81 272 -102 358 -102
423 0 42 -3 58 -12 55 -15 -5 -41 -126 -63 -291 l-16 -118 47 -102 c26 -56 77
-163 115 -237 37 -74 81 -169 97 -210 34 -88 172 -520 172 -541 0 -7 -41 27
-91 76 -90 89 -178 195 -257 310 -52 76 -100 130 -107 123 -3 -3 24 -92 59
-197 l65 -192 103 -108 c57 -59 178 -179 271 -265 92 -87 167 -160 167 -163 0
-6 -40 23 -170 121 -364 276 -329 256 -452 256 l-98 0 -47 43 c-25 23 -72 77
-104 120 -64 86 -218 382 -256 491 -38 113 -39 166 -3 406 40 272 145 793 169
837 18 34 127 169 223 277 93 103 111 130 123 184 4 18 9 31 12 28 9 -8 3
-196 -7 -241 -16 -74 -20 -105 -11 -105 12 0 37 96 61 235 11 66 32 163 46
215 46 170 84 205 45 42 -30 -127 -38 -185 -60 -402 -24 -240 -35 -441 -23
-420 5 8 12 35 16 60 4 25 20 95 37 155 35 124 40 132 181 251 111 93 208 158
326 219 51 26 100 57 107 69 8 12 22 58 31 101 15 74 25 94 48 95 5 0 6 -21 2
-47z m-1440 -319 c-64 -251 -149 -657 -167 -796 -7 -54 -16 -98 -19 -98 -9 0
-64 217 -90 352 -20 102 -18 123 23 233 23 63 107 215 145 265 68 87 124 151
129 147 2 -3 -7 -49 -21 -103z m-939 -1026 c33 -62 338 -450 529 -672 58 -68
173 -170 182 -162 2 3 -10 34 -27 69 -17 36 -49 118 -72 183 -22 65 -58 162
-79 216 -22 54 -51 144 -65 200 -15 57 -29 112 -32 123 -11 41 19 -3 52 -76
197 -441 366 -759 505 -949 26 -36 64 -92 85 -125 52 -82 193 -269 248 -330
45 -49 59 -73 35 -59 -33 19 -270 182 -323 223 -61 47 -349 301 -395 349 -70
73 -171 165 -175 160 -7 -7 171 -272 243 -361 88 -111 204 -241 368 -414 148
-155 157 -162 231 -193 43 -18 123 -51 178 -75 55 -23 156 -61 225 -85 69 -23
152 -55 185 -70 54 -25 57 -28 30 -29 -53 -2 -256 20 -385 40 -107 17 -136 26
-206 63 -111 59 -222 143 -331 250 -51 49 -95 87 -98 84 -12 -12 344 -390 498
-530 l99 -90 127 5 c94 3 141 10 184 25 l59 22 -23 -38 c-12 -20 -40 -71 -62
-112 -36 -68 -83 -151 -179 -315 -184 -314 -360 -546 -570 -752 -112 -109
-142 -133 -179 -143 -24 -6 -111 -35 -194 -64 -144 -51 -219 -72 -350 -97 -33
-6 -100 -22 -149 -35 -59 -16 -94 -20 -106 -14 -32 17 -88 88 -100 126 -23 77
-52 144 -62 144 -6 0 -8 -12 -4 -27 3 -16 17 -89 31 -163 57 -298 94 -401 164
-447 37 -25 109 -31 155 -13 42 16 668 426 821 538 126 93 420 339 487 409 96
100 301 356 468 588 108 149 150 201 179 222 l21 14 -20 -46 c-11 -25 -82
-170 -158 -323 -76 -152 -170 -340 -208 -417 l-69 -140 -122 -85 c-236 -164
-444 -353 -920 -834 -171 -173 -335 -330 -365 -350 -82 -54 -169 -79 -248 -73
-191 16 -690 277 -858 449 -91 94 -125 187 -168 473 -33 218 -44 390 -48 720
-3 187 -3 324 0 305 2 -19 13 -116 24 -215 62 -549 148 -1048 192 -1103 37
-47 120 -94 255 -146 50 -19 123 -52 161 -73 39 -21 73 -35 77 -31 4 3 -12 34
-35 68 -95 140 -129 241 -155 470 -9 74 -29 243 -45 376 -46 385 -67 717 -76
1229 -4 187 -4 337 0 334 3 -3 20 -89 36 -190 58 -357 100 -580 111 -593 12
-13 17 25 23 159 5 122 19 207 82 467 19 81 43 193 53 250 18 92 89 381 173
698 17 63 39 162 49 220 10 58 23 115 29 128 12 28 51 46 82 39 13 -4 83 -65
157 -137 74 -71 136 -128 139 -126 2 3 -30 60 -71 128 -191 315 -397 808 -338
808 6 0 22 -24 38 -52z m1958 -3555 c-3 -27 -8 -62 -11 -80 -2 -18 -9 -126
-13 -240 -5 -114 -14 -221 -21 -238 -14 -35 -176 -255 -279 -378 -227 -272
-615 -595 -1272 -1062 -61 -44 -140 -100 -173 -125 -34 -25 -88 -65 -122 -88
l-61 -43 -159 0 c-238 -1 -530 33 -581 67 -31 19 -47 54 -111 229 -100 273
-238 726 -278 905 -9 41 -27 114 -40 162 -17 61 -21 93 -15 110 11 28 9 32 55
-128 20 -67 56 -180 81 -250 26 -71 57 -162 71 -203 26 -78 118 -226 166 -266
36 -31 163 -79 308 -118 97 -26 134 -31 235 -31 l120 -1 185 78 c356 151 576
262 904 456 169 100 184 112 286 218 109 114 218 267 419 588 44 72 122 193
171 270 50 77 100 157 113 177 12 21 23 38 25 38 1 0 0 -21 -3 -47z m4483
-206 c24 -24 35 -48 43 -92 21 -114 -11 -246 -108 -438 -36 -73 -76 -160 -89
-194 -13 -33 -42 -105 -65 -160 -74 -171 -324 -922 -413 -1238 -32 -113 -64
-207 -74 -216 -10 -10 -64 -26 -127 -38 -60 -12 -153 -31 -205 -42 l-96 -21
-161 96 c-88 53 -169 106 -179 117 -18 20 -18 20 11 14 17 -4 77 -20 135 -36
58 -16 135 -30 172 -31 l66 -2 90 94 c85 89 96 106 181 275 119 238 190 403
240 553 69 209 190 459 418 867 28 50 53 100 57 113 5 13 11 98 15 190 10 226
24 256 89 189z m99 -583 c21 -25 57 -67 80 -94 23 -27 61 -77 85 -110 24 -34
53 -75 66 -93 75 -103 172 -723 202 -1292 31 -597 37 -913 20 -1170 -10 -155
-5 -185 25 -154 14 13 28 59 71 219 25 94 52 231 80 406 22 143 25 188 20 296
-7 172 -34 386 -53 426 -9 18 -42 68 -74 110 -37 47 -61 89 -64 111 -4 20 -13
69 -21 109 -9 41 -13 77 -9 80 4 4 16 -7 28 -23 11 -17 73 -82 137 -145 128
-126 127 -124 160 -290 33 -168 59 -250 105 -330 24 -41 50 -99 59 -129 9 -29
20 -59 25 -65 5 -6 32 -65 61 -131 80 -184 207 -458 267 -578 29 -60 62 -129
72 -155 10 -26 46 -103 79 -172 93 -194 121 -258 128 -296 6 -33 -4 -51 -158
-282 -145 -217 -249 -379 -312 -485 -10 -18 -42 -68 -71 -112 -28 -44 -59 -93
-69 -108 -10 -16 -20 -26 -23 -23 -3 2 20 52 52 111 118 220 168 354 235 630
16 66 43 164 59 219 17 54 31 115 31 135 l-1 36 -39 -45 c-164 -187 -214 -247
-269 -323 -70 -98 -160 -280 -216 -437 -83 -234 -179 -467 -217 -527 -41 -65
-59 -83 -35 -35 13 25 59 171 113 362 24 84 74 223 202 570 36 96 75 207 87
245 12 39 43 114 69 168 32 68 46 111 46 140 0 117 -143 642 -196 725 -24 36
-34 16 -34 -66 0 -42 -7 -122 -15 -178 -8 -55 -19 -170 -25 -255 -13 -182 -24
-259 -50 -356 -42 -154 -124 -292 -281 -472 -199 -229 -213 -259 -249 -541
-14 -106 -57 -325 -72 -365 -24 -63 -95 -154 -218 -280 -69 -71 -175 -185
-234 -252 -60 -68 -111 -123 -114 -123 -3 0 4 10 15 23 109 122 334 521 382
679 28 94 99 402 111 488 6 41 22 126 36 190 24 111 59 318 89 525 8 55 19
197 25 315 6 118 17 280 26 360 8 80 19 330 24 555 5 226 13 491 19 590 16
263 17 558 3 830 -14 272 -35 399 -79 475 -36 64 -131 186 -210 272 -60 64
-71 87 -57 122 10 27 31 18 71 -30z m-2723 -221 c377 -371 524 -500 810 -713
96 -71 178 -135 181 -141 13 -20 -2 -18 -46 6 -24 14 -75 41 -114 61 -38 20
-117 64 -175 99 -58 34 -134 78 -170 98 -159 88 -290 219 -480 483 -25 34 -84
114 -132 177 -85 112 -95 127 -82 127 4 0 97 -89 208 -197z m-1881 -219 c4
-60 6 -194 5 -299 l-3 -190 -58 -118 c-31 -64 -66 -139 -77 -166 -10 -27 -44
-95 -76 -151 -31 -56 -76 -146 -100 -199 -52 -116 -207 -421 -429 -846 -37
-71 -78 -159 -90 -195 -86 -247 -172 -434 -249 -538 -64 -86 -290 -310 -685
-677 -136 -126 -322 -285 -351 -300 -14 -7 -95 -36 -180 -65 -85 -29 -209 -74
-275 -100 -186 -74 -354 -121 -474 -131 -89 -8 -107 -7 -120 6 -20 19 -12 26
74 59 76 30 228 109 315 164 30 20 104 64 164 99 135 79 277 177 381 262 244
201 618 560 787 756 76 89 240 317 292 407 18 29 20 31 23 12 2 -12 -10 -45
-26 -73 -17 -29 -31 -55 -31 -59 -1 -15 -111 -178 -162 -239 -21 -24 -38 -50
-38 -57 0 -8 -7 -19 -15 -26 -14 -12 -13 -15 4 -31 11 -11 24 -19 29 -19 5 0
15 -7 22 -15 17 -20 28 -19 32 4 3 18 6 18 46 -9 29 -21 42 -25 42 -15 0 7 5
17 12 21 6 4 8 3 4 -4 -3 -6 -2 -13 2 -16 11 -7 70 55 111 117 36 53 131 245
131 265 0 29 89 302 114 347 14 28 26 60 26 73 0 34 18 62 35 56 9 -4 15 0 16
7 4 50 7 67 17 86 7 12 12 32 12 45 0 13 9 31 20 41 23 20 26 43 6 50 -19 8
-114 -86 -327 -323 -98 -109 -113 -132 -111 -176 1 -30 -6 -37 -136 -122 -75
-50 -181 -125 -235 -167 -55 -42 -101 -74 -105 -71 -3 3 -1 6 5 6 11 0 180
176 509 530 377 405 543 606 701 846 89 136 248 436 310 589 54 131 60 185 45
450 -9 165 -9 171 11 193 12 12 26 21 31 19 6 -2 14 -52 19 -113z m4652 -699
c45 -222 53 -458 24 -726 -10 -99 -1 -145 55 -281 19 -47 43 -124 52 -172 16
-82 16 -96 0 -248 -18 -177 -35 -260 -102 -513 -53 -201 -89 -302 -161 -449
-58 -119 -68 -160 -27 -111 34 41 136 210 159 263 10 23 20 41 21 39 5 -4 -62
-333 -87 -431 -37 -143 -48 -155 -184 -181 -49 -9 -116 -27 -148 -40 l-57 -24
-77 62 c-163 131 -373 333 -373 358 0 5 37 9 83 9 125 0 249 26 305 64 89 60
266 369 349 610 28 84 163 543 163 557 0 22 -18 -3 -35 -48 -61 -162 -286
-574 -320 -587 -38 -14 -329 90 -541 195 -242 119 -524 291 -524 320 0 4 59
-22 130 -58 159 -79 219 -90 295 -52 56 28 301 254 467 430 l117 124 -5 -90
c-7 -127 -24 -314 -31 -350 -6 -30 -6 -30 15 -11 66 58 213 434 303 775 84
321 86 339 65 622 -10 129 -19 250 -22 269 -7 60 65 -199 91 -325z m-4800
-367 c-3 -90 -11 -282 -17 -428 -16 -355 -16 -694 -1 -805 7 -49 20 -277 29
-506 22 -538 24 -529 -111 -647 -38 -34 -113 -100 -165 -147 -60 -54 -180
-141 -325 -236 -322 -210 -714 -478 -870 -594 -80 -59 -165 -115 -224 -144
-63 -32 -158 -25 -183 13 -13 19 -9 24 29 37 37 12 273 167 414 271 96 71 169
152 207 232 35 70 173 411 192 471 6 22 43 130 80 240 135 394 200 602 228
730 l30 130 18 -40 c16 -34 19 -62 17 -190 -1 -82 -8 -193 -17 -245 -8 -52
-13 -96 -11 -98 9 -10 77 112 109 194 19 50 51 124 71 164 20 40 52 118 72
174 19 55 51 135 70 176 60 129 170 461 188 566 11 64 19 181 22 329 l5 230
65 143 c36 78 70 142 74 142 5 0 7 -73 4 -162z m-1172 -35 c-70 -104 -137
-208 -149 -233 -11 -25 -49 -132 -83 -237 l-62 -193 -61 -66 c-76 -81 -141
-131 -278 -214 -258 -156 -548 -291 -880 -410 -100 -35 -130 -42 -227 -47
l-112 -6 -18 33 c-10 17 -42 73 -71 123 -80 136 -172 324 -144 292 4 -5 31
-39 59 -75 70 -89 203 -215 237 -224 50 -12 316 52 316 76 0 6 -17 38 -39 72
-45 72 -167 327 -247 516 -103 247 -94 194 -87 494 3 146 10 266 14 266 4 0
41 -66 83 -147 107 -209 266 -472 299 -497 21 -15 49 -22 104 -26 l76 -5 -49
-54 -48 -53 34 7 c65 14 344 134 519 222 276 139 577 323 861 526 36 25 68 46
72 47 4 0 -49 -84 -119 -187z m3810 -967 c27 -61 75 -174 108 -251 66 -152
151 -318 209 -405 20 -30 83 -134 140 -230 176 -298 371 -584 505 -739 35 -41
61 -79 58 -84 -3 -6 -1 -7 5 -3 5 3 24 -11 40 -32 24 -29 28 -42 20 -55 -13
-24 -3 -48 17 -41 17 7 20 -7 5 -22 -14 -14 16 -54 41 -54 11 0 19 7 19 16 0
14 -2 15 -17 3 -10 -8 -14 -9 -10 -2 4 6 3 14 -3 18 -5 3 -10 12 -10 18 0 8 3
8 9 -1 4 -7 19 -14 32 -14 28 -2 51 -17 43 -29 -3 -5 3 -6 12 -2 10 4 15 2 11
-4 -3 -5 -1 -10 6 -11 7 -1 44 -12 82 -25 72 -25 114 -35 373 -88 143 -30 196
-49 180 -64 -8 -8 -303 18 -557 51 -145 18 -200 29 -214 42 -11 9 -61 78 -111
152 -50 74 -141 205 -200 290 -335 477 -395 555 -585 752 -72 76 -131 140
-131 143 0 3 -20 95 -45 204 -24 110 -49 234 -54 277 -6 44 -20 124 -32 179
-12 55 -23 116 -26 135 l-4 35 18 -24 c10 -14 40 -75 66 -135z m-6143 -191
c22 -185 48 -319 95 -479 25 -88 55 -203 66 -255 12 -53 41 -156 65 -231 24
-74 57 -192 73 -262 28 -115 47 -176 145 -458 98 -280 297 -750 362 -851 15
-24 49 -89 75 -144 45 -97 106 -175 136 -175 7 0 50 13 96 28 135 47 148 46
62 -3 -44 -26 -103 -64 -130 -84 -61 -46 -127 -81 -153 -81 -10 0 -27 9 -36
19 -16 18 -106 233 -106 254 0 18 -168 364 -249 512 -150 275 -277 471 -460
713 -174 230 -156 171 -142 471 11 245 23 439 56 891 8 113 15 216 15 230 0
57 19 -2 30 -95z m1642 -642 c-111 -126 -89 -116 -257 -108 -89 5 -142 11
-134 16 8 5 11 9 7 10 -5 1 -12 3 -18 4 -5 1 -14 3 -20 4 -5 0 -10 9 -10 19 0
15 21 21 138 41 109 19 220 44 351 80 1 1 -24 -29 -57 -66z m-454 -90 c-10 -2
-28 -2 -40 0 -13 2 -5 4 17 4 22 1 32 -1 23 -4z m-1669 -250 c45 -110 125
-327 210 -573 32 -91 66 -181 75 -200 27 -53 8 -28 -90 115 -107 156 -250 405
-266 460 -15 56 6 295 26 295 2 0 22 -44 45 -97z m6724 -545 c264 -332 454
-529 572 -594 l70 -39 365 -5 c337 -5 359 -6 285 -17 -44 -7 -199 -22 -344
-33 -283 -22 -447 -38 -471 -45 -24 -7 -33 3 -117 135 -79 123 -215 333 -298
460 -101 153 -176 274 -162 260 8 -8 53 -63 100 -122z m1046 -113 c18 -19 28
-35 22 -35 -5 0 -19 14 -31 31 -14 18 -28 28 -37 25 -8 -3 -11 -1 -8 4 10 16
19 12 54 -25z m-4335 -147 c-69 -147 -82 -167 -243 -373 -190 -243 -289 -354
-352 -395 -55 -36 -135 -68 -144 -58 -3 3 -14 36 -24 73 -11 37 -26 74 -34 83
-23 22 -87 30 -307 38 -224 8 -295 22 -115 23 134 1 206 18 492 112 120 40
178 66 275 123 68 40 155 91 193 114 39 22 96 64 127 92 49 44 67 70 118 177
34 69 64 123 67 119 3 -3 -21 -61 -53 -128z m6048 -721 c-4 -303 5 -619 29
-942 9 -131 33 -283 85 -537 27 -133 27 -137 10 -181 -37 -98 -220 -355 -343
-483 -53 -55 -81 -76 -126 -92 -89 -34 -185 -44 -366 -40 -196 4 -192 2 -421
150 -136 87 -147 96 -172 148 -31 61 -77 238 -138 520 -21 102 -60 280 -86
395 -27 122 -48 248 -51 302 -5 85 -3 99 27 187 18 53 38 96 43 96 5 0 69 -31
141 -69 72 -38 142 -72 156 -76 14 -4 37 -16 52 -26 37 -27 69 -24 161 17 115
50 130 63 181 164 26 49 52 90 59 91 7 1 24 0 39 -1 24 -1 86 12 125 27 9 4
-4 -19 -29 -49 -62 -76 -82 -158 -82 -333 0 -146 25 -332 80 -600 19 -93 46
-231 60 -305 25 -138 81 -363 108 -435 23 -63 18 -26 -8 63 -34 113 -91 395
-105 522 -7 58 -16 112 -21 121 -4 8 -11 92 -15 185 -8 201 16 500 62 758 l18
98 90 53 c50 29 122 69 162 89 39 21 79 46 88 56 16 18 56 114 125 300 35 92
59 150 64 150 2 0 1 -145 -2 -323z m-9216 78 c26 -49 41 -84 34 -77 -19 17
-37 15 -44 -5 -4 -9 -9 -179 -11 -377 -3 -199 -7 -372 -10 -386 -3 -14 -10
-115 -15 -225 -6 -110 -14 -270 -19 -356 -8 -118 -7 -184 4 -272 7 -64 15
-119 18 -124 8 -13 36 -113 32 -113 -8 0 -81 114 -120 186 l-39 71 12 84 c32
225 54 478 82 929 5 85 9 294 10 465 0 182 4 305 9 300 5 -6 30 -50 57 -100z
m1469 79 c93 -8 172 -17 174 -20 16 -15 -44 -22 -289 -34 -392 -19 -350 -22
-377 25 -12 22 -23 44 -23 49 0 11 290 0 515 -20z m804 -416 c-17 -45 -54
-136 -83 -202 -29 -67 -64 -152 -76 -191 -13 -38 -42 -119 -65 -180 -24 -60
-71 -193 -105 -295 -33 -102 -72 -212 -84 -245 -18 -47 -25 -87 -29 -181 -3
-68 -11 -132 -18 -145 -44 -84 -284 -299 -483 -433 -124 -84 -275 -145 -420
-171 -44 -8 -112 -21 -151 -29 -38 -9 -84 -16 -102 -16 -17 0 -34 -4 -37 -8
-3 -5 -53 -15 -111 -22 -120 -15 -157 -35 -49 -27 181 13 448 59 565 97 113
37 290 122 390 189 41 26 111 83 156 125 44 42 86 76 92 76 13 0 31 -33 31
-57 0 -29 -121 -137 -250 -223 -36 -23 -103 -71 -150 -105 -52 -39 -112 -73
-155 -88 -277 -99 -335 -116 -435 -128 -118 -15 -233 -17 -300 -7 l-45 7 35
-16 c40 -18 158 -23 285 -10 76 7 79 7 55 -8 -18 -12 -19 -15 -5 -10 11 4 70
23 130 42 61 20 158 57 217 84 59 27 114 49 121 49 26 0 109 50 200 120 49 39
93 70 98 70 12 0 11 -27 -1 -70 -6 -19 -14 -60 -19 -90 -6 -30 -21 -116 -35
-190 -13 -74 -30 -171 -36 -214 -15 -102 -42 -161 -119 -262 -54 -72 -240
-244 -263 -244 -14 0 -9 26 21 107 19 52 33 115 41 187 6 60 18 136 26 168 9
32 13 66 11 76 -4 13 -5 12 -6 -4 0 -12 -16 -73 -35 -135 -19 -63 -51 -179
-71 -259 -19 -80 -41 -163 -49 -185 -7 -22 -71 -122 -143 -221 -72 -100 -147
-206 -166 -235 -43 -65 -72 -99 -84 -99 -5 0 -23 28 -39 62 -133 284 -619 660
-923 716 -50 9 -91 20 -91 24 0 15 75 81 108 95 99 41 288 55 383 27 52 -15
144 -66 151 -83 2 -5 49 -31 104 -59 96 -48 214 -133 278 -201 17 -17 34 -31
39 -31 4 0 -29 41 -75 91 -58 63 -119 116 -201 172 -235 164 -313 199 -485
220 -77 9 -91 14 -86 27 3 8 26 65 49 127 52 135 85 193 146 256 42 44 49 47
96 47 42 0 57 -6 97 -36 54 -43 69 -39 33 8 -32 43 -191 309 -252 421 -52 96
-54 124 -9 153 32 21 40 13 52 -56 16 -87 49 -163 111 -257 53 -81 64 -91 136
-132 l79 -43 72 12 c40 6 146 13 236 15 163 5 331 24 422 51 50 14 211 97 221
114 4 6 -17 1 -46 -10 -191 -76 -663 -133 -819 -100 -53 11 -66 19 -101 59
-22 25 -57 79 -77 121 -31 64 -36 84 -34 137 2 70 34 370 57 533 24 165 45
387 44 449 l-1 56 -13 -75 c-7 -41 -29 -133 -49 -205 -20 -71 -53 -199 -74
-282 -20 -84 -40 -153 -44 -153 -13 0 -9 215 6 407 8 98 17 234 21 303 10 190
43 466 59 498 8 15 30 45 49 67 l34 39 90 -29 90 -28 6 -76 c4 -42 11 -130 16
-196 6 -66 18 -228 27 -360 16 -239 16 -241 -6 -395 -31 -220 -106 -589 -136
-667 -27 -74 -29 -118 -2 -67 9 17 24 36 32 43 14 12 16 10 16 -11 0 -31 37
-86 70 -106 l25 -14 -25 22 c-38 34 -60 72 -60 105 0 17 16 90 35 164 36 138
41 164 24 122 -30 -76 -13 74 36 324 19 94 39 205 44 247 14 105 43 575 45
720 l1 118 35 -6 c47 -9 47 -9 72 -57 47 -93 176 -227 219 -227 34 0 191 85
359 195 102 67 221 138 265 158 76 34 87 36 210 41 207 8 334 23 440 50 54 14
100 28 103 31 3 3 13 5 23 5 16 0 15 -8 -12 -82z m4725 -86 c52 -129 290 -828
391 -1152 9 -30 34 -91 54 -135 21 -44 44 -98 51 -120 35 -109 76 -155 235
-268 62 -44 259 -134 385 -176 52 -18 111 -41 130 -52 l35 -20 -30 5 c-107 17
-117 18 -111 7 30 -48 499 -66 681 -26 108 23 151 51 225 141 36 44 80 98 98
119 l34 40 -38 -70 c-53 -100 -116 -194 -166 -247 -37 -39 -51 -47 -103 -56
-70 -13 -335 -19 -382 -8 -35 8 -76 0 -68 -14 3 -5 -1 -10 -7 -13 -7 -2 14 -8
46 -12 69 -9 259 0 394 19 102 14 120 25 187 116 39 53 164 291 195 370 12 30
26 59 31 64 9 10 69 -39 69 -57 0 -5 -13 -37 -29 -71 -16 -33 -39 -88 -52
-120 -46 -114 -137 -291 -160 -312 -13 -12 -37 -29 -54 -38 -16 -10 -22 -15
-12 -12 31 10 18 -14 -35 -67 -32 -31 -41 -43 -21 -29 48 34 158 157 212 238
27 40 61 108 76 153 15 45 30 81 34 81 4 0 13 -12 20 -26 34 -75 202 -509 220
-569 23 -76 33 -97 47 -96 26 2 46 -16 82 -72 88 -138 172 -279 172 -288 0
-12 -11 -11 -60 6 -50 18 -180 20 -248 4 -71 -16 -318 -141 -396 -201 -96 -72
-275 -256 -331 -338 -26 -38 -52 -74 -60 -80 -13 -11 -35 9 -93 85 -13 17 -19
21 -13 10 5 -11 27 -41 49 -65 l40 -45 -41 -77 c-22 -43 -44 -78 -48 -78 -3 0
-18 17 -33 37 -14 21 -48 67 -76 103 -81 107 -226 326 -254 382 -14 29 -51
141 -82 248 -82 285 -117 396 -122 382 -2 -7 8 -85 23 -174 26 -155 53 -247
105 -349 11 -21 18 -39 14 -39 -3 0 -58 43 -123 95 -111 89 -215 199 -260 277
-29 48 -57 165 -81 332 -17 118 -43 255 -67 364 -7 30 1 28 59 -14 41 -30 46
-38 34 -48 -14 -10 -13 -29 8 -167 13 -85 28 -164 33 -175 13 -23 29 -77 38
-124 4 -19 16 -49 26 -66 10 -17 19 -39 19 -49 0 -9 8 -29 19 -43 10 -15 26
-43 35 -63 10 -21 56 -72 104 -115 91 -82 93 -77 7 16 -66 71 -121 155 -134
205 -9 35 -71 449 -71 475 0 22 91 7 239 -39 187 -59 211 -64 211 -51 0 5 -15
17 -32 26 -78 40 -297 194 -276 194 3 0 27 -9 53 -20 26 -11 51 -20 57 -20 24
0 -27 40 -95 76 -123 64 -259 160 -393 277 -196 173 -207 187 -244 309 -81
265 -299 945 -351 1093 -47 135 -88 245 -99 265 -7 13 -6 20 3 23 28 9 45 -8
71 -71z m-6604 -1547 c-16 -42 -21 -26 -7 25 8 30 13 38 15 24 1 -11 -2 -33
-8 -49z m7227 -136 c137 -142 160 -195 59 -134 -113 68 -186 125 -186 146 0
20 26 79 35 79 2 0 44 -41 92 -91z m-7706 -82 c9 -20 4 -37 -31 -106 -23 -46
-54 -117 -70 -160 -75 -202 -150 -364 -211 -453 -34 -51 -76 -112 -91 -134
-15 -23 -28 -48 -28 -56 0 -23 -40 -53 -102 -76 -32 -12 -58 -19 -58 -16 0 20
159 240 236 326 32 36 50 72 79 155 67 195 231 543 256 543 5 0 14 -11 20 -23z
m9879 -1036 c50 -15 58 -22 95 -78 45 -70 112 -191 135 -243 8 -19 23 -47 33
-61 19 -29 81 -218 74 -226 -3 -2 -29 0 -59 5 -94 17 -208 -9 -348 -78 -105
-53 -184 -115 -294 -232 -74 -78 -99 -98 -114 -94 -26 9 -262 163 -262 172 0
11 49 74 124 158 39 44 116 113 171 154 110 82 309 183 393 201 74 15 172 14
222 -4 51 -18 53 -18 44 -4 -17 28 -90 49 -171 49 -101 0 -161 -19 -325 -102
-105 -53 -132 -73 -249 -181 -73 -67 -155 -151 -182 -187 -28 -36 -54 -65 -58
-65 -16 0 -259 196 -259 209 0 27 108 166 204 261 187 186 454 336 656 368 36
5 105 -4 170 -22z m-9853 -117 c222 -140 422 -335 566 -552 45 -69 47 -75 33
-96 -16 -25 -220 -209 -239 -215 -7 -2 -34 -21 -62 -42 -57 -42 -224 -139
-240 -139 -5 0 -27 31 -48 70 -21 38 -70 104 -110 146 -80 86 -244 213 -324
252 -29 15 -53 30 -53 35 0 17 136 274 155 296 2 1 30 -9 62 -23 65 -30 197
-123 292 -205 72 -63 217 -239 264 -320 43 -76 45 -47 3 41 -82 167 -345 415
-530 498 -35 16 -67 33 -69 37 -3 5 35 72 85 151 l91 142 36 -22 c20 -12 59
-36 88 -54z m-730 -513 c-44 -81 -71 -155 -75 -206 l-4 -61 -34 4 c-19 2 -34
10 -34 16 0 24 92 241 107 253 15 11 47 7 40 -6z m10879 3 l52 -7 20 -68 c30
-99 57 -228 49 -236 -4 -3 -25 2 -47 12 -38 17 -44 17 -116 1 -108 -23 -194
-74 -292 -173 -46 -46 -88 -83 -94 -83 -26 0 -298 140 -298 153 0 25 165 191
244 246 83 57 165 97 278 136 76 25 117 29 204 19z m-1172 -213 c26 -12 55
-20 62 -17 9 3 3 -17 -16 -55 -26 -50 -33 -58 -48 -50 -27 15 -223 191 -229
207 -3 7 5 29 16 48 l22 34 72 -72 c41 -41 93 -82 121 -95z m-9391 120 c131
-77 249 -190 409 -392 34 -43 38 -53 27 -65 -29 -28 -372 -147 -383 -133 -1 2
-16 31 -32 64 -31 63 -122 166 -198 225 -25 19 -45 38 -46 42 0 15 139 298
147 298 5 0 39 -18 76 -39z m9525 -158 c-1 -5 1 -18 6 -30 8 -26 132 -91 183
-97 33 -3 63 -21 63 -37 0 -11 -69 -119 -76 -119 -21 0 -274 165 -274 180 0
11 82 110 92 110 4 0 7 -3 6 -7z m-9939 -62 c12 -8 12 -18 -4 -66 -24 -79 -18
-160 18 -206 15 -20 27 -41 27 -47 0 -7 6 -12 14 -12 8 0 32 50 61 125 26 69
51 128 56 130 14 10 170 -139 220 -209 27 -38 49 -75 49 -82 0 -17 -23 -23
-265 -70 -86 -17 -217 -15 -253 5 -31 17 -46 74 -39 155 6 61 39 236 52 274 5
14 43 16 64 3z m11073 -12 c36 -15 42 -50 35 -198 -7 -138 -19 -183 -54 -211
-23 -18 -40 -20 -173 -20 -92 0 -180 6 -231 16 -101 18 -159 35 -159 44 0 4
17 26 38 49 l37 41 68 -25 c66 -23 244 -61 252 -53 2 2 -66 26 -151 52 -85 27
-154 53 -154 57 0 4 39 44 86 88 91 86 180 139 277 166 53 14 80 13 129 -6z
m-699 -174 c74 -36 139 -65 145 -65 7 0 12 -5 12 -12 0 -21 -62 -108 -77 -108
-42 0 -303 123 -303 143 0 11 77 107 86 107 2 0 64 -29 137 -65z"/>
<path d="M8712 26927 c-85 -67 -174 -210 -223 -361 -20 -59 -39 -79 -39 -40 0
8 -4 12 -10 9 -5 -3 -10 -25 -10 -48 l-1 -42 -26 50 c-92 178 -274 403 -327
405 -30 0 -81 -37 -140 -101 -40 -45 -82 -114 -159 -262 -148 -285 -159 -331
-27 -107 85 144 79 135 84 129 6 -6 -21 -78 -94 -249 -40 -95 -60 -155 -58
-175 l3 -30 16 30 c9 17 38 93 64 170 87 257 161 378 285 460 60 40 75 46 94
37 20 -9 145 -179 223 -303 18 -28 40 -82 50 -120 9 -38 20 -69 23 -69 4 0 36
92 73 204 57 172 75 214 117 274 56 79 100 116 129 107 23 -7 189 -178 292
-301 78 -93 177 -244 212 -324 22 -49 24 -77 31 -373 2 -104 6 -191 9 -193 8
-9 21 182 21 316 -1 129 -2 138 -34 215 -72 176 -153 312 -259 435 -70 81
-261 284 -270 288 -4 1 -26 -12 -49 -31z m-613 -61 c9 -11 6 -16 -16 -25 -16
-7 -39 -22 -53 -34 -36 -32 -122 -134 -159 -190 -46 -68 -50 -51 -6 28 47 84
116 168 168 206 46 33 50 34 66 15z"/>
<path d="M8052 26493 c-24 -34 -67 -119 -77 -153 -11 -38 -57 -134 -67 -141
-17 -11 -107 -533 -94 -546 3 -4 6 -4 6 0 0 3 9 50 20 104 71 357 114 502 199
672 43 85 49 115 13 64z"/>
<path d="M7788 26000 c-30 -148 -41 -313 -35 -540 5 -211 28 -413 50 -435 6
-7 7 5 3 35 -24 154 -28 235 -29 500 0 241 3 312 17 386 10 51 16 102 14 115
-2 14 -11 -14 -20 -61z"/>
<path d="M9205 25200 c-6 -9 -17 -46 -50 -161 -5 -19 -4 -21 4 -9 6 8 15 31
21 50 5 19 16 56 24 83 14 45 15 59 1 37z"/>
<path d="M9275 24735 c-44 -8 -123 -30 -175 -49 -108 -41 -116 -42 -128 -20
-7 13 -10 13 -20 2 -15 -19 -1 -38 29 -39 44 -2 214 19 242 30 66 26 285 61
386 62 l106 2 -110 8 c-60 4 -141 10 -180 12 -39 3 -105 0 -150 -8z"/>
<path d="M8638 24683 c6 -10 24 -34 41 -53 37 -42 43 -20 8 31 -25 37 -67 56
-49 22z"/>
<path d="M8715 24459 c-2 -8 -9 -36 -15 -64 -8 -35 -22 -62 -48 -88 l-37 -39
35 -26 c19 -15 61 -51 94 -81 58 -53 59 -53 110 -47 74 8 137 32 179 67 36 29
47 49 28 49 -5 0 -30 -17 -56 -39 -25 -21 -63 -43 -84 -50 -44 -13 -131 -15
-131 -3 0 11 46 52 90 83 35 23 59 48 60 61 0 3 -23 -2 -50 -13 -116 -44 -149
-21 -154 110 -3 79 -10 109 -21 80z"/>
<path d="M9172 24264 c-17 -62 -8 -66 17 -9 25 56 25 55 8 55 -7 0 -18 -21
-25 -46z"/>
<path d="M8560 24131 c0 -15 42 -41 67 -41 33 0 28 14 -12 33 -40 19 -55 21
-55 8z"/>
<path d="M8708 23944 c-32 -17 -36 -32 -10 -41 9 -3 36 -14 59 -25 41 -19 42
-19 80 1 92 46 76 81 -36 81 -39 -1 -77 -7 -93 -16z"/>
<path d="M8175 25475 c28 -25 82 -71 122 -101 43 -32 89 -79 115 -116 41 -59
61 -76 118 -98 14 -5 41 -22 60 -37 l35 -28 -24 30 c-47 61 -262 254 -352 316
-122 84 -135 90 -74 34z"/>
<path d="M10139 22574 c-99 -92 -173 -156 -278 -240 -57 -46 -242 -165 -300
-194 -98 -49 -365 -114 -581 -141 -136 -17 -332 -13 -503 10 -81 11 -152 23
-157 26 -6 3 -10 2 -10 -3 0 -10 173 -120 242 -153 l47 -22 138 36 c152 41
233 59 398 88 124 22 151 29 290 71 139 43 214 83 389 208 145 104 358 294
426 380 54 68 18 44 -101 -66z"/>
<path d="M10066 23921 c-5 -8 -13 -44 -17 -80 -11 -103 -37 -253 -50 -291 -7
-19 -27 -59 -46 -88 -42 -67 -42 -72 3 -22 45 50 102 190 118 295 14 85 8 211
-8 186z"/>
<path d="M6259 21363 c-13 -16 -12 -17 4 -4 9 7 17 15 17 17 0 8 -8 3 -21 -13z"/>
<path d="M9570 21036 c0 -2 8 -10 18 -17 15 -13 16 -12 3 4 -13 16 -21 21 -21
13z"/>
<path d="M9911 20954 c0 -11 3 -14 6 -6 3 7 2 16 -1 19 -3 4 -6 -2 -5 -13z"/>
<path d="M10108 20673 c7 -3 16 -2 19 1 4 3 -2 6 -13 5 -11 0 -14 -3 -6 -6z"/>
<path d="M10218 20663 c23 -2 59 -2 80 0 20 2 1 4 -43 4 -44 0 -61 -2 -37 -4z"/>
<path d="M7025 21339 c-12 -19 3 -21 47 -6 l43 15 -42 1 c-23 1 -45 -4 -48
-10z"/>
<path d="M7120 21281 c0 -4 33 -11 72 -14 54 -5 90 -15 140 -40 50 -24 63 -28
50 -14 -9 11 -43 32 -74 48 -46 23 -71 29 -123 29 -36 0 -65 -4 -65 -9z"/>
<path d="M6249 21221 c7 -13 11 -38 9 -56 -2 -19 0 -31 4 -29 15 10 9 81 -9
95 -15 13 -15 12 -4 -10z"/>
<path d="M6389 21006 c29 -30 41 -49 35 -58 -6 -10 -4 -10 10 1 16 13 14 17
-26 58 -23 23 -47 43 -52 43 -6 0 9 -20 33 -44z"/>
<path d="M5890 20910 c0 -40 20 -132 32 -147 16 -20 23 -16 37 22 11 31 10 40
-7 68 -10 18 -22 45 -26 60 -9 37 -36 36 -36 -3z"/>
<path d="M6104 20751 c4 -6 16 -16 28 -22 15 -8 18 -8 14 0 -4 6 -16 16 -28
22 -15 8 -18 8 -14 0z"/>
<path d="M6087 20704 c-12 -12 -8 -194 4 -194 6 0 26 15 45 34 l35 35 -32 58
c-38 69 -43 75 -52 67z"/>
<path d="M9413 20982 c25 -35 60 -87 77 -117 34 -60 51 -75 24 -22 -30 57
-100 161 -124 182 -13 11 -2 -8 23 -43z"/>
<path d="M9560 20635 l-5 -80 -120 -63 c-237 -125 -793 -402 -958 -477 -108
-49 -177 -75 -194 -73 -19 2 -37 16 -57 45 l-29 42 66 71 c37 39 67 74 67 78
0 4 -33 39 -72 79 -85 83 -354 293 -338 264 5 -11 21 -26 34 -33 47 -26 272
-207 319 -257 l48 -51 -20 -28 c-10 -15 -40 -47 -64 -71 l-45 -44 -26 49 c-30
56 -24 20 6 -40 30 -59 90 -146 100 -146 72 0 1221 582 1282 649 13 15 16 35
14 92 l-4 74 -4 -80z"/>
<path d="M7959 20463 c34 -64 151 -257 151 -250 0 14 -149 267 -157 267 -2 0
1 -8 6 -17z"/>
<path d="M8120 20175 c0 -5 5 -17 10 -25 5 -8 10 -10 10 -5 0 6 -5 17 -10 25
-5 8 -10 11 -10 5z"/>
<path d="M8141 19955 c8 -11 35 -46 58 -78 24 -32 46 -55 49 -53 8 8 -28 58
-77 106 -25 25 -39 36 -30 25z"/>
<path d="M6070 19028 c0 -15 79 -20 250 -16 160 4 203 9 189 22 -2 2 -51 1
-109 -2 -58 -4 -156 -5 -218 -2 -61 3 -112 2 -112 -2z"/>
<path d="M10019 20262 c-74 -76 -158 -172 -187 -215 -29 -42 -51 -77 -49 -77
3 0 33 39 68 88 35 48 111 134 169 192 111 112 146 150 138 150 -3 0 -65 -62
-139 -138z"/>
<path d="M9679 19799 c-27 -56 -49 -103 -47 -105 2 -2 27 44 56 101 28 58 50
105 47 105 -3 0 -28 -45 -56 -101z"/>
<path d="M9440 19618 c25 -12 123 -60 218 -107 156 -78 174 -84 183 -68 14 25
23 22 79 -28 58 -52 77 -59 34 -14 -45 49 -105 89 -131 89 -13 0 -50 13 -83
30 -49 25 -324 121 -340 119 -3 0 15 -10 40 -21z"/>
<path d="M9480 17216 c0 -16 6 -26 15 -26 8 0 15 5 15 11 0 6 -7 17 -15 25
-13 14 -15 13 -15 -10z"/>
<path d="M8951 17064 c0 -11 3 -14 6 -6 3 7 2 16 -1 19 -3 4 -6 -2 -5 -13z"/>
<path d="M11340 16795 c0 -5 5 -17 10 -25 5 -8 10 -10 10 -5 0 6 -5 17 -10 25
-5 8 -10 11 -10 5z"/>
<path d="M11360 16750 c0 -3 9 -28 20 -56 36 -95 45 -206 31 -361 -36 -391
-118 -768 -217 -992 -14 -30 -22 -56 -20 -58 9 -9 86 106 151 222 88 161 237
460 254 513 13 39 13 48 -6 105 -12 34 -31 103 -42 152 -30 128 -104 353 -140
421 -16 33 -30 57 -31 54z"/>
<path d="M10595 14189 c-148 -101 -639 -329 -708 -329 -14 0 -31 -7 -38 -16
-20 -25 25 -58 122 -89 144 -45 208 -32 329 68 144 119 410 392 410 421 0 16
-33 1 -115 -55z"/>
<path d="M10905 13371 c2 -14 -1 -21 -11 -21 -10 0 -12 -5 -8 -12 6 -10 5 -10
-7 -1 -12 10 -15 5 -15 -32 0 -34 3 -41 13 -33 9 7 11 5 8 -10 -2 -11 2 -30 9
-43 11 -23 12 -89 4 -232 -2 -32 0 -61 4 -63 5 -3 6 -9 3 -14 -3 -4 1 -12 8
-18 10 -8 12 -2 9 28 l-4 38 62 -3 62 -3 -6 26 c-3 15 -9 38 -11 52 -75 352
-82 381 -92 352 -4 -10 -8 -10 -19 -2 -10 10 -12 8 -9 -9z m85 -389 c0 -5 -7
-9 -15 -9 -8 0 -12 4 -9 9 3 4 9 8 15 8 5 0 9 -4 9 -8z m40 0 c0 -5 -7 -9 -15
-9 -8 0 -12 4 -9 9 3 4 9 8 15 8 5 0 9 -4 9 -8z"/>
<path d="M10991 12924 c0 -11 3 -14 6 -6 3 7 2 16 -1 19 -3 4 -6 -2 -5 -13z"/>
<path d="M11023 12933 c-20 -7 -15 -19 7 -20 11 -1 20 2 20 7 0 12 -13 18 -27
13z"/>
<path d="M10990 12846 c0 -7 7 -13 15 -13 8 0 15 4 15 8 0 4 -7 9 -15 13 -9 3
-15 0 -15 -8z"/>
<path d="M11031 12844 c0 -11 3 -14 6 -6 3 7 2 16 -1 19 -3 4 -6 -2 -5 -13z"/>
<path d="M11067 12813 c-3 -5 -1 -17 4 -28 7 -17 8 -17 8 8 1 27 -4 34 -12 20z"/>
<path d="M7609 11267 c-24 -27 -71 -70 -104 -95 -33 -26 -61 -50 -63 -54 -2
-4 -8 -8 -13 -8 -10 0 -129 -95 -139 -111 -3 -4 -17 -10 -32 -13 -23 -4 -79
-46 -61 -46 4 0 -3 -7 -15 -16 -28 -19 -28 -39 -1 -41 12 -1 30 -11 40 -22 18
-19 18 -20 -9 -24 l-27 -4 27 -2 c18 -1 44 14 85 48 32 26 72 57 89 67 56 34
265 229 285 266 7 13 12 30 11 40 -2 9 2 19 8 23 18 11 11 33 -13 37 -18 3
-33 -7 -68 -45z m-369 -388 c0 -11 -4 -17 -10 -14 -5 3 -10 13 -10 21 0 8 5
14 10 14 6 0 10 -9 10 -21z"/>
<path d="M7106 10894 c-38 -36 -45 -48 -36 -59 11 -14 47 -12 60 2 8 9 31 96
26 100 -1 2 -24 -18 -50 -43z"/>
<path d="M7198 10813 c7 -3 16 -2 19 1 4 3 -2 6 -13 5 -11 0 -14 -3 -6 -6z"/>
<path d="M7092 10745 c-10 -12 -10 -15 2 -15 7 0 16 7 20 15 7 19 -5 19 -22 0z"/>
<path d="M13701 9604 c0 -11 3 -14 6 -6 3 7 2 16 -1 19 -3 4 -6 -2 -5 -13z"/>
<path d="M13720 9545 c0 -5 5 -17 10 -25 5 -8 10 -10 10 -5 0 6 -5 17 -10 25
-5 8 -10 11 -10 5z"/>
<path d="M12912 7020 c-12 -16 -22 -33 -22 -38 0 -5 -13 -27 -28 -48 -31 -42
-68 -139 -50 -128 7 5 9 2 5 -9 -3 -8 0 -21 8 -27 11 -9 21 -6 48 14 25 20 40
44 60 103 35 100 41 132 26 149 -16 20 -22 18 -47 -16z"/>
<path d="M12812 8558 c-7 -7 -12 -20 -12 -29 0 -10 -4 -19 -10 -21 -5 -1 -11
-12 -13 -23 -1 -11 -6 -26 -10 -32 -6 -9 -3 -11 7 -7 8 3 17 17 21 31 3 14 13
32 20 40 8 8 15 23 15 34 0 22 -2 23 -18 7z"/>
<path d="M12755 8420 c-3 -5 -1 -10 4 -10 6 0 11 5 11 10 0 6 -2 10 -4 10 -3
0 -8 -4 -11 -10z"/>
<path d="M12713 8403 c-18 -7 -16 -20 2 -20 8 0 15 6 15 14 0 7 -1 13 -2 12
-2 0 -9 -3 -15 -6z"/>
<path d="M7912 8713 c-11 -32 -45 -125 -75 -208 -86 -238 -286 -618 -570
-1079 -41 -66 -48 -106 -19 -106 36 0 536 340 635 433 44 41 47 47 47 93 -1
83 -19 293 -36 421 -17 120 -17 124 5 225 42 204 51 262 42 271 -5 5 -17 -15
-29 -50z"/>
<path d="M5192 9861 c-14 -8 -33 -100 -27 -129 11 -57 48 -76 73 -37 13 19 13
19 8 -5 -4 -14 -9 -35 -12 -47 -5 -18 -3 -21 16 -16 13 4 26 0 32 -8 7 -10 8
-8 3 9 -5 16 -2 22 9 22 11 0 16 10 16 34 0 19 -3 36 -7 38 -8 3 -73 106 -73
114 0 13 -28 31 -38 25z"/>
<path d="M5336 9604 c-4 -9 -4 -19 -1 -22 2 -3 7 3 11 12 4 9 4 19 1 22 -2 3
-7 -3 -11 -12z"/>
<path d="M5430 9500 c0 -5 5 -10 11 -10 5 0 7 5 4 10 -3 6 -8 10 -11 10 -2 0
-4 -4 -4 -10z"/>
<path d="M10996 8368 c8 -27 23 -48 35 -48 5 0 -1 16 -12 35 -24 40 -33 45
-23 13z"/>
<path d="M13331 5814 c0 -11 3 -14 6 -6 3 7 2 16 -1 19 -3 4 -6 -2 -5 -13z"/>
<path d="M13321 5774 c0 -11 3 -14 6 -6 3 7 2 16 -1 19 -3 4 -6 -2 -5 -13z"/>
<path d="M13311 5734 c0 -11 3 -14 6 -6 3 7 2 16 -1 19 -3 4 -6 -2 -5 -13z"/>
<path d="M13301 5694 c0 -11 3 -14 6 -6 3 7 2 16 -1 19 -3 4 -6 -2 -5 -13z"/>
<path d="M6250 5687 c-85 -83 -302 -257 -630 -507 -76 -58 -249 -171 -330
-215 -47 -26 -76 -44 -65 -40 43 13 206 110 315 186 215 151 594 454 710 566
63 62 113 112 110 112 -3 0 -52 -46 -110 -102z"/>
<path d="M4846 4635 c-3 -9 -6 -22 -5 -28 0 -7 5 -1 10 12 5 13 8 26 5 28 -2
2 -6 -3 -10 -12z"/>
<path d="M4867 4149 c7 -7 15 -10 18 -7 3 3 -2 9 -12 12 -14 6 -15 5 -6 -5z"/>
<path d="M4710 3856 c0 -3 9 -10 20 -16 11 -6 20 -8 20 -6 0 3 -9 10 -20 16
-11 6 -20 8 -20 6z"/>
<path d="M5050 3760 c-8 -5 -10 -10 -5 -10 6 0 17 5 25 10 8 5 11 10 5 10 -5
0 -17 -5 -25 -10z"/>
<path d="M5000 3740 c-8 -5 -10 -10 -5 -10 6 0 17 5 25 10 8 5 11 10 5 10 -5
0 -17 -5 -25 -10z"/>
<path d="M5522 3690 c-1 -34 2 -40 8 -25 l9 20 1 -20 c1 -11 4 -15 6 -9 3 7
-2 27 -10 45 l-14 34 0 -45z"/>
<path d="M5557 3585 c3 -33 7 -62 9 -64 8 -9 2 85 -6 104 -5 12 -6 -4 -3 -40z"/>
<path d="M12815 3822 c31 -14 124 -24 103 -11 -10 5 -42 12 -70 15 -35 3 -46
2 -33 -4z"/>
<path d="M13570 3514 c63 -7 150 -27 156 -35 3 -5 -1 -9 -8 -9 -7 0 -51 -7
-98 -15 -102 -18 -196 -61 -304 -139 l-78 -57 33 43 c18 24 53 65 78 93 l46
50 -48 -45 c-26 -25 -87 -97 -135 -160 -48 -63 -98 -125 -112 -138 -30 -28
-16 -22 70 33 36 23 111 68 168 99 56 31 102 59 102 62 0 6 -127 -63 -218
-118 -34 -21 -65 -38 -68 -38 -17 0 67 87 120 124 122 87 223 133 361 166 72
17 137 34 145 37 27 9 -103 45 -175 48 -38 1 -54 1 -35 -1z"/>
<path d="M13465 3490 c-3 -6 1 -7 9 -4 18 7 21 14 7 14 -6 0 -13 -4 -16 -10z"/>
<path d="M13409 3453 c-13 -16 -12 -17 4 -4 16 13 21 21 13 21 -2 0 -10 -8
-17 -17z"/>
<path d="M12646 3350 c4 -14 13 -38 20 -55 11 -24 13 -25 8 -5 -4 14 -13 39
-20 55 -11 24 -13 25 -8 5z"/>
<path d="M12680 3255 c0 -5 5 -17 10 -25 5 -8 10 -10 10 -5 0 6 -5 17 -10 25
-5 8 -10 11 -10 5z"/>
<path d="M12701 3205 c0 -5 8 -26 19 -45 11 -19 19 -30 19 -25 0 6 -8 26 -19
45 -11 19 -19 31 -19 25z"/>
<path d="M12946 2997 c-32 -42 -33 -53 -3 -24 36 35 51 57 39 57 -6 0 -22 -15
-36 -33z"/>
<path d="M12970 2826 c0 -11 40 -86 45 -86 3 0 -4 19 -16 43 -23 45 -29 54
-29 43z"/>
<path d="M7678 30783 c-14 -16 -36 -50 -49 -78 -13 -27 -29 -56 -36 -63 -8 -8
-36 -59 -63 -114 -28 -55 -65 -125 -82 -156 -59 -106 -208 -419 -208 -435 0
-6 70 127 155 296 162 324 248 482 275 507 14 13 44 70 37 70 -2 0 -15 -12
-29 -27z"/>
<path d="M9780 30668 c0 -7 12 -51 25 -98 14 -47 33 -139 41 -205 15 -118 36
-671 27 -730 -4 -27 -3 -28 8 -10 19 30 16 536 -5 646 -8 46 -18 111 -21 144
-9 84 -35 205 -52 238 -15 29 -23 35 -23 15z"/>
<path d="M7694 30614 c3 -21 13 -84 21 -139 9 -55 22 -127 30 -160 8 -33 21
-98 30 -145 9 -47 23 -112 30 -145 l15 -60 -5 60 c-2 33 -8 78 -13 100 -29
118 -77 374 -88 463 -4 29 -11 55 -17 59 -7 4 -8 -7 -3 -33z"/>
<path d="M10705 30517 c-5 -12 -2 -24 9 -35 13 -13 16 -14 15 -2 0 8 -4 24 -9
35 -7 19 -8 19 -15 2z"/>
<path d="M8002 30338 c-23 -39 -46 -97 -41 -102 2 -2 18 28 36 65 34 74 37 89
5 37z"/>
<path d="M9562 30054 c-1 -12 -7 -79 -12 -150 -6 -71 -21 -208 -34 -304 -27
-190 -49 -400 -43 -406 3 -3 20 69 49 206 6 30 15 60 20 66 14 19 29 272 26
444 -2 91 -5 156 -6 144z"/>
<path d="M8181 29914 c0 -11 3 -14 6 -6 3 7 2 16 -1 19 -3 4 -6 -2 -5 -13z"/>
<path d="M7212 29875 c-12 -25 -22 -51 -21 -58 0 -6 11 12 25 42 30 66 26 78
-4 16z"/>
<path d="M8171 29874 c0 -11 3 -14 6 -6 3 7 2 16 -1 19 -3 4 -6 -2 -5 -13z"/>
<path d="M8918 29808 c-64 -94 -159 -250 -188 -308 -60 -119 -180 -392 -180
-409 0 -11 -15 -59 -34 -108 -79 -203 -165 -643 -186 -944 -10 -141 -13 -295
-6 -288 2 2 11 101 20 219 9 118 23 255 31 305 8 49 21 142 30 205 32 233 92
428 240 776 63 148 222 457 275 534 21 31 42 70 37 70 -2 0 -20 -24 -39 -52z"/>
<path d="M7167 29765 c-24 -50 -20 -58 4 -12 11 22 19 41 17 43 -3 2 -12 -12
-21 -31z"/>
<path d="M7137 29703 c-4 -3 -7 -13 -7 -22 1 -13 3 -13 11 2 11 19 8 33 -4 20z"/>
<path d="M6255 29494 c-3 -25 -4 -48 -1 -52 3 -3 6 2 6 10 0 9 6 21 14 27 13
11 10 61 -4 61 -4 0 -11 -21 -15 -46z"/>
<path d="M11307 29503 c-2 -10 -8 -26 -12 -36 -5 -13 -3 -16 8 -11 17 6 18 5
47 -181 11 -71 25 -155 30 -185 22 -123 41 -347 47 -553 3 -119 8 -215 10
-213 7 6 6 230 -2 391 -8 168 -47 466 -89 668 -9 42 -16 90 -16 107 0 33 -15
41 -23 13z"/>
<path d="M6300 29449 c0 -3 22 -59 49 -125 61 -149 136 -309 251 -536 94 -184
104 -220 79 -284 -5 -16 -14 -85 -18 -154 -18 -264 -46 -590 -51 -590 -3 0
-16 54 -28 121 -26 138 -108 459 -122 473 -5 5 -7 1 -5 -10 2 -10 20 -102 40
-204 20 -102 45 -228 57 -280 46 -211 57 -278 57 -335 0 -42 -2 -55 -9 -44
-20 34 -71 232 -85 331 -9 56 -24 139 -35 183 -30 123 -110 620 -110 686 -1
19 -7 61 -14 94 -13 57 -14 58 -15 20 0 -22 4 -71 10 -110 5 -38 16 -131 24
-205 15 -142 25 -202 80 -470 19 -91 44 -214 55 -275 12 -60 34 -153 50 -205
39 -131 112 -561 97 -576 -9 -9 -84 120 -171 294 -47 95 -88 172 -90 172 -2 0
1 -18 6 -41 8 -28 8 -52 0 -77 -26 -89 6 -249 72 -368 14 -24 21 -44 16 -44
-5 0 -30 21 -57 48 -40 39 -57 68 -97 167 -27 66 -57 158 -67 205 -9 47 -18
72 -18 56 -1 -31 25 -157 41 -196 19 -46 40 -95 55 -122 29 -56 -18 -30 -115
65 -171 165 -265 266 -352 379 -25 32 -56 66 -69 75 -23 16 67 -93 224 -271
142 -162 357 -376 500 -498 213 -182 199 -166 235 -274 18 -52 30 -98 27 -101
-7 -6 -243 205 -432 385 -136 130 -211 191 -155 126 54 -63 319 -319 390 -377
141 -116 192 -162 207 -192 9 -16 51 -133 94 -260 43 -126 78 -218 78 -204 1
38 -31 159 -98 369 -33 102 -69 228 -82 280 -12 52 -26 103 -31 114 -31 59
-84 300 -105 476 -29 249 -14 858 31 1255 14 121 32 288 41 370 9 83 18 166
21 185 3 30 3 31 -5 10 -5 -14 -16 -77 -25 -140 -21 -147 -24 -160 -36 -160
-10 0 -40 52 -40 69 0 6 -21 47 -48 93 -26 46 -58 108 -71 138 -12 30 -49 107
-80 170 -32 63 -66 138 -76 165 -10 28 -25 59 -32 70 -7 11 -13 26 -13 35 -1
13 -30 62 -30 49z"/>
<path d="M7236 29419 c-19 -115 -26 -269 -26 -576 0 -333 2 -353 25 -463 24
-109 25 -111 20 -45 -12 158 -23 762 -16 930 4 99 6 182 5 184 -2 1 -5 -12 -8
-30z"/>
<path d="M6232 29335 c0 -16 2 -22 5 -12 2 9 2 23 0 30 -3 6 -5 -1 -5 -18z"/>
<path d="M6222 29250 c0 -14 2 -19 5 -12 2 6 2 18 0 25 -3 6 -5 1 -5 -13z"/>
<path d="M6212 29170 c0 -14 2 -19 5 -12 2 6 2 18 0 25 -3 6 -5 1 -5 -13z"/>
<path d="M6196 29086 c-30 -262 -28 -1090 4 -1306 17 -109 19 -117 15 -55 -3
33 -11 211 -20 395 -15 326 -11 622 11 933 7 96 0 119 -10 33z"/>
<path d="M6765 29057 c-4 -25 -5 -52 -3 -59 3 -7 8 11 13 40 4 29 5 56 2 59
-3 2 -9 -16 -12 -40z"/>
<path d="M7106 28969 c-14 -104 -26 -310 -20 -334 9 -35 27 -31 47 10 20 42
21 91 6 240 -13 121 -24 150 -33 84z"/>
<path d="M6830 28759 c0 -14 13 -91 47 -274 22 -116 71 -298 72 -263 1 14 -10
73 -23 130 -14 56 -39 173 -56 258 -30 146 -40 183 -40 149z"/>
<path d="M11207 28288 c-20 -40 -39 -84 -43 -98 -7 -24 -5 -23 20 6 14 18 26
40 26 50 0 11 9 39 20 63 34 75 14 57 -23 -21z"/>
<path d="M11783 28172 c-20 -28 -20 -29 -2 -40 16 -10 19 -8 25 24 8 46 2 50
-23 16z"/>
<path d="M6951 28175 c-1 -28 29 -137 105 -370 77 -241 121 -352 140 -359 20
-8 18 3 -20 85 -37 81 -55 132 -141 404 -32 99 -63 198 -71 220 -7 23 -13 31
-13 20z"/>
<path d="M11761 28037 c-7 -32 -11 -61 -8 -63 7 -8 29 82 25 102 -3 11 -10 -7
-17 -39z"/>
<path d="M11742 27925 c0 -16 2 -22 5 -12 2 9 2 23 0 30 -3 6 -5 -1 -5 -18z"/>
<path d="M11676 27646 c-32 -132 -71 -295 -86 -361 -15 -66 -59 -218 -98 -339
-64 -194 -79 -231 -143 -336 -81 -134 -222 -324 -333 -450 -41 -47 -94 -110
-118 -140 -24 -30 -73 -91 -110 -134 -97 -113 -87 -129 12 -21 21 22 71 81
113 132 68 82 87 97 169 142 51 28 157 76 236 107 78 32 140 59 137 62 -4 5
-24 -2 -130 -48 -22 -9 -61 -22 -87 -29 -26 -6 -71 -25 -100 -42 -61 -36 -112
-54 -101 -36 4 7 34 44 67 84 34 39 81 100 106 134 59 81 137 195 141 206 2 5
23 43 47 85 24 43 49 99 56 125 12 43 78 238 97 288 32 86 39 109 39 133 0 15
10 61 21 102 34 122 46 171 64 255 10 44 28 122 42 174 13 52 23 107 21 122
-2 14 -29 -82 -62 -215z"/>
<path d="M5610 27813 c0 -43 9 -63 29 -63 9 0 31 -17 49 -37 27 -31 26 -27 -7
18 -23 31 -41 60 -41 65 0 6 -7 19 -15 30 -14 18 -14 17 -15 -13z"/>
<path d="M9100 27732 c0 -12 5 -41 10 -64 6 -24 20 -83 31 -133 12 -49 34
-117 49 -150 15 -33 40 -87 54 -119 50 -114 35 -47 -35 155 -39 112 -78 231
-85 264 -16 64 -24 80 -24 47z"/>
<path d="M10335 27577 c-38 -83 -79 -170 -91 -192 -12 -22 -51 -96 -86 -165
-36 -69 -86 -157 -111 -197 -25 -39 -59 -98 -76 -130 -34 -68 -133 -229 -198
-322 -51 -74 -52 -89 -2 -28 116 140 293 428 419 682 89 179 226 493 218 501
-3 2 -35 -65 -73 -149z"/>
<path d="M11538 27664 c-24 -38 -59 -103 -78 -144 -18 -41 -47 -97 -62 -124
-16 -27 -45 -81 -65 -120 -50 -99 -220 -353 -351 -526 -61 -79 -109 -146 -107
-148 8 -9 65 30 101 70 38 42 157 214 184 268 7 14 34 54 60 90 78 106 255
417 346 609 24 50 32 77 26 83 -7 7 -25 -11 -54 -58z"/>
<path d="M5641 27674 c0 -11 3 -14 6 -6 3 7 2 16 -1 19 -3 4 -6 -2 -5 -13z"/>
<path d="M5749 27633 c18 -24 35 -43 38 -43 7 0 -34 55 -54 71 -10 8 -3 -5 16
-28z"/>
<path d="M5651 27634 c0 -11 3 -14 6 -6 3 7 2 16 -1 19 -3 4 -6 -2 -5 -13z"/>
<path d="M6222 27610 c0 -14 2 -19 5 -12 2 6 2 18 0 25 -3 6 -5 1 -5 -13z"/>
<path d="M5670 27568 c0 -6 31 -134 50 -203 4 -16 17 -59 28 -95 12 -36 35
-112 52 -170 17 -58 35 -113 41 -122 5 -10 9 -23 9 -29 0 -6 6 -25 14 -42 14
-35 40 -100 51 -132 4 -11 9 -15 12 -9 2 6 -16 65 -41 130 -73 197 -159 473
-186 602 -9 39 -29 87 -30 70z"/>
<path d="M6231 27494 c1 -21 5 -50 10 -64 5 -16 6 -4 2 35 -6 70 -13 86 -12
29z"/>
<path d="M10262 27208 c-5 -7 -33 -56 -62 -108 -59 -108 -147 -245 -260 -405
-90 -129 -104 -154 -58 -103 67 73 321 458 389 591 18 35 13 51 -9 25z"/>
<path d="M7130 27045 c0 -25 62 -176 85 -207 10 -12 15 -16 12 -8 -47 119 -97
231 -97 215z"/>
<path d="M11780 26440 c-36 -16 -74 -31 -85 -35 -11 -4 -15 -9 -8 -12 6 -2 30
5 52 16 40 21 71 27 71 14 0 -4 -10 -18 -22 -31 l-23 -25 33 23 c17 13 32 27
32 32 0 4 17 16 38 27 l37 20 -30 0 c-16 0 -59 -13 -95 -29z"/>
<path d="M10323 26212 c-67 -101 -115 -178 -105 -171 41 31 82 74 82 86 0 8
22 46 49 86 47 70 106 177 99 181 -2 1 -58 -81 -125 -182z"/>
<path d="M11648 26383 c7 -3 16 -2 19 1 4 3 -2 6 -13 5 -11 0 -14 -3 -6 -6z"/>
<path d="M11580 26364 l-25 -15 25 7 c28 7 35 12 29 18 -2 2 -15 -2 -29 -10z"/>
<path d="M11503 26335 c-18 -8 -33 -17 -33 -20 0 -5 70 21 79 30 9 9 -14 4
-46 -10z"/>
<path d="M11697 26302 c-26 -26 -47 -51 -47 -55 0 -7 63 54 89 86 26 32 5 17
-42 -31z"/>
<path d="M11548 26133 c-68 -81 -110 -138 -228 -308 -172 -249 -227 -312 -405
-460 -188 -156 -326 -280 -317 -283 16 -5 82 29 82 42 0 7 15 27 34 45 40 39
98 52 296 70 190 17 193 18 75 19 -60 0 -132 -3 -160 -8 -27 -5 -70 -12 -95
-15 l-45 -7 30 27 c17 15 52 46 79 69 114 96 266 240 266 251 0 4 27 43 61 88
89 121 211 294 233 330 10 18 44 63 75 102 88 109 93 115 88 115 -2 0 -33 -35
-69 -77z"/>
<path d="M10811 26088 c-57 -55 -111 -124 -111 -142 0 -6 27 16 60 49 62 61
117 132 108 140 -2 2 -28 -19 -57 -47z"/>
<path d="M11219 25238 c5 -13 15 -21 23 -19 7 2 26 6 41 9 43 7 26 27 -26 30
-45 3 -46 2 -38 -20z"/>
<path d="M13482 22510 c-1 -36 -7 -82 -13 -103 -12 -46 -4 -62 11 -22 6 16 9
65 7 109 -3 78 -3 79 -5 16z"/>
<path d="M4903 22480 c0 -25 2 -35 4 -22 2 12 2 32 0 45 -2 12 -4 2 -4 -23z"/>
<path d="M6148 22103 c7 -3 16 -2 19 1 4 3 -2 6 -13 5 -11 0 -14 -3 -6 -6z"/>
<path d="M4520 21450 c0 -5 5 -10 11 -10 5 0 7 5 4 10 -3 6 -8 10 -11 10 -2 0
-4 -4 -4 -10z"/>
<path d="M12028 20043 c-13 -21 -60 -98 -103 -172 -104 -173 -153 -220 -268
-255 -154 -46 -265 -60 -426 -53 -164 7 -281 25 -420 62 -114 31 -154 48 -251
108 -41 26 -77 47 -81 47 -4 0 -9 -14 -13 -30 -7 -37 -31 -48 -128 -57 -49 -4
-65 -9 -54 -15 26 -15 152 -35 296 -48 79 -7 181 -24 247 -41 229 -59 414 -69
653 -34 276 40 350 77 418 210 21 41 89 111 155 160 21 15 43 38 49 49 13 23
16 26 -59 -34 -24 -18 -45 -31 -47 -29 -3 3 11 40 31 82 38 85 39 112 1 50z"/>
<path d="M11935 19228 c-21 -18 -91 -72 -155 -120 -167 -125 -161 -121 -125
-106 90 37 270 173 311 235 19 30 16 29 -31 -9z"/>
</g>
</svg>
