<?xml version="1.0" standalone="no"?>
<!DOCTYPE svg PUBLIC "-//W3C//DTD SVG 20010904//EN"
 "http://www.w3.org/TR/2001/REC-SVG-20010904/DTD/svg10.dtd">
<svg version="1.0" xmlns="http://www.w3.org/2000/svg"
 width="681.000000pt" height="1173.000000pt" viewBox="0 0 681.000000 1173.000000"
 preserveAspectRatio="xMidYMid meet">

<g transform="translate(0.000000,1173.000000) scale(0.100000,-0.100000)"
fill="#000000" stroke="none">
<path d="M3501 11078 c0 -24 2 -28 8 -15 6 15 10 12 28 -20 37 -66 183 -423
224 -547 55 -167 57 -185 25 -232 l-26 -39 0 72 c0 40 -4 74 -8 77 -5 3 -7
-30 -4 -74 l4 -78 -51 -74 c-28 -41 -64 -87 -80 -102 l-30 -28 -6 35 c-4 20
-2 73 4 118 6 45 11 103 10 128 -1 28 -8 -5 -19 -87 -25 -176 -66 -342 -95
-378 l-23 -29 23 92 c52 201 105 555 105 703 0 85 -24 278 -36 289 -4 3 -4
-16 0 -44 20 -164 25 -262 16 -362 -23 -249 -109 -672 -149 -736 l-18 -28 5
57 c3 40 1 59 -9 64 -21 14 -27 3 -35 -58 -3 -31 -8 -60 -10 -64 -3 -4 -19 -1
-37 7 -27 11 -37 11 -66 -1 -19 -8 -35 -13 -36 -12 -1 2 -7 30 -14 63 -16 72
-70 225 -80 225 -4 0 10 -50 30 -110 37 -111 37 -111 23 -173 -17 -70 -24 -83
-24 -41 -1 38 -34 111 -62 134 -13 11 -35 22 -50 25 -15 4 -29 14 -31 23 -4
15 -5 15 -6 0 -2 -30 -20 -20 -37 20 -16 39 -46 158 -63 252 -10 54 -10 54 -6
-22 3 -47 16 -112 34 -167 l28 -89 -58 -7 c-37 -4 -73 -16 -94 -31 l-36 -24
-10 28 c-47 121 -65 178 -76 247 l-12 80 6 -105 c4 -58 7 -121 8 -141 0 -26
11 -49 38 -82 l37 -45 -42 -31 -43 -31 -18 22 c-109 138 -192 285 -278 490
-29 70 -55 126 -56 124 -7 -7 52 -157 108 -275 54 -112 148 -265 214 -347 l25
-30 -54 -53 -54 -53 -40 58 c-42 63 -81 136 -119 224 -19 45 -22 48 -17 20 7
-36 71 -173 103 -219 37 -53 32 -55 -18 -6 -28 27 -51 43 -51 36 0 -8 23 -48
51 -89 47 -69 50 -77 38 -103 -6 -16 -15 -29 -19 -29 -9 0 -88 116 -115 169
-30 60 -99 564 -111 812 l-6 124 92 -175 c139 -264 186 -346 257 -443 67 -90
86 -106 56 -46 -14 29 -17 66 -18 239 0 113 3 232 7 265 5 46 4 53 -3 30 -13
-39 -50 -435 -42 -449 9 -17 -31 26 -50 54 -9 13 -17 38 -18 55 0 22 -2 25 -8
12 -6 -16 -113 171 -255 448 l-26 50 4 -140 c7 -242 81 -795 112 -843 9 -13
14 -26 11 -28 -2 -3 -78 25 -167 61 -90 36 -164 64 -166 63 -1 -2 76 -104 172
-228 96 -124 174 -232 174 -240 1 -8 24 30 51 85 42 82 67 116 137 188 48 49
124 118 170 154 45 35 82 67 82 69 0 12 -134 -97 -214 -175 -73 -71 -85 -80
-71 -51 21 42 185 205 250 248 54 36 113 48 175 35 l43 -8 -81 -54 c-85 -55
-125 -92 -87 -77 25 9 18 3 -75 -67 -41 -31 -111 -90 -155 -132 l-80 -77 75
64 c158 135 431 321 464 316 10 -2 26 -14 35 -28 15 -25 15 -25 -5 -7 -27 23
-42 17 -164 -63 -144 -95 -398 -308 -485 -407 -43 -48 -81 -87 -85 -86 -5 1
-13 -12 -19 -30 l-11 -32 24 27 c13 15 31 37 39 48 15 22 15 22 54 -17 21 -21
64 -56 96 -77 40 -28 54 -42 45 -48 -9 -5 -5 -8 11 -8 25 0 121 -48 121 -61 0
-4 -3 -14 -6 -22 -5 -14 -11 -14 -56 0 -29 8 -61 20 -72 27 -110 66 -127 79
-114 88 10 7 10 8 -2 7 -8 -1 -23 1 -33 6 -10 4 -20 5 -23 3 -3 -3 37 -32 88
-65 51 -33 125 -81 165 -107 71 -46 72 -47 61 -76 -5 -17 -15 -30 -22 -30 -22
0 -56 -45 -56 -74 0 -15 5 -37 11 -48 9 -16 8 -23 -2 -29 -21 -13 -20 -13 -72
51 -27 33 -56 60 -64 60 -8 0 -51 -38 -95 -85 -44 -47 -87 -85 -94 -85 -8 0
-14 -5 -14 -11 0 -13 -25 -8 -92 17 l-46 18 -52 -28 -52 -28 -102 101 c-56 55
-106 101 -112 101 -13 0 -16 -6 -79 -179 -25 -69 -45 -132 -45 -141 0 -9 -2
-19 -5 -22 -3 -3 -56 7 -118 23 -127 32 -155 35 -163 15 -3 -8 2 -117 11 -243
9 -125 20 -283 24 -349 6 -114 9 -125 39 -174 29 -47 31 -54 22 -95 -6 -25
-17 -62 -26 -84 -14 -36 -14 -46 1 -121 l16 -81 -30 -92 c-36 -108 -38 -134
-11 -246 11 -46 19 -85 18 -86 -111 -74 -132 -93 -158 -145 -16 -32 -40 -62
-58 -72 -32 -19 -42 -49 -42 -130 0 -46 -3 -52 -54 -101 -32 -32 -56 -65 -60
-84 -4 -17 -16 -35 -29 -40 -34 -16 -128 -104 -138 -130 -5 -13 -11 -58 -14
-101 -3 -42 -8 -85 -11 -95 -7 -22 19 -53 61 -74 36 -19 45 -31 45 -60 0 -13
7 -41 16 -63 l16 -40 88 0 c83 0 89 -1 104 -25 19 -29 50 -32 120 -13 33 9 54
9 80 1 27 -8 39 -8 54 3 32 22 91 109 98 143 5 23 18 37 53 57 59 34 81 54 81
71 0 17 106 167 167 236 38 42 43 53 43 97 0 31 7 61 21 84 19 33 20 48 17
201 -2 115 0 168 8 173 6 4 28 41 49 82 47 93 115 210 123 210 4 0 30 -10 58
-21 51 -21 52 -22 58 -73 3 -28 6 -72 6 -97 0 -49 16 -72 47 -69 10 1 32 2 49
1 39 -1 44 -19 48 -166 2 -78 -1 -109 -15 -143 -14 -33 -17 -57 -12 -107 6
-61 4 -65 -29 -112 -62 -84 -79 -131 -132 -363 l-53 -227 -120 -209 c-66 -115
-127 -222 -136 -239 -8 -16 -44 -157 -80 -311 -62 -266 -69 -288 -126 -401
-87 -174 -157 -293 -301 -507 -70 -105 -135 -206 -144 -225 -21 -40 -21 -39
31 -302 l37 -186 -88 -257 c-88 -254 -88 -257 -70 -279 10 -12 53 -58 96 -103
42 -44 80 -93 84 -108 5 -20 -6 -65 -39 -164 -25 -76 -55 -182 -67 -237 -46
-217 -81 -325 -134 -411 l-26 -42 25 -36 25 -37 -56 -162 c-34 -99 -81 -211
-122 -287 -142 -269 -127 -218 -130 -435 -3 -167 -1 -194 15 -225 25 -48 64
-58 150 -36 86 21 287 121 376 186 88 65 132 124 228 305 63 119 93 164 143
215 56 57 67 74 85 136 18 61 26 74 50 84 32 13 41 34 41 95 0 32 5 42 22 50
17 8 38 50 88 185 72 191 124 317 175 425 18 39 36 78 39 88 5 16 13 18 55 12
76 -10 114 11 138 77 55 151 66 176 91 213 16 22 56 59 90 83 l62 43 0 74 c0
118 18 221 65 365 71 218 145 560 145 672 0 91 94 372 163 487 44 73 151 298
187 395 6 16 12 27 14 25 2 -2 27 -94 56 -204 28 -110 76 -272 107 -360 35
-101 60 -195 68 -255 17 -119 123 -438 164 -495 27 -38 31 -55 50 -215 11 -96
27 -242 36 -325 26 -261 14 -228 114 -293 49 -31 102 -64 119 -74 25 -13 34
-29 52 -90 23 -76 86 -245 189 -509 56 -142 64 -158 96 -175 34 -18 35 -21 35
-76 0 -53 2 -59 29 -72 29 -15 41 -40 41 -86 0 -16 26 -61 66 -115 70 -95 117
-181 179 -330 21 -49 50 -106 64 -125 121 -165 429 -340 598 -340 40 0 44 3
64 42 31 61 46 225 31 332 -20 140 -61 241 -182 451 -32 55 -70 129 -84 164
l-27 63 22 24 22 23 -34 52 c-25 39 -32 61 -30 90 1 23 -12 81 -30 137 -24 75
-119 451 -156 618 -4 19 3 24 49 39 67 22 74 28 89 73 6 20 56 141 110 269 55
128 99 238 99 246 0 7 -43 74 -96 148 -89 125 -172 254 -207 324 -14 28 -12
40 19 175 49 211 51 202 -53 297 -84 77 -92 88 -189 264 -60 111 -108 210
-118 249 -65 239 -269 813 -307 862 -16 20 -29 43 -29 51 0 27 -109 392 -174
581 -51 151 -71 195 -94 218 -26 23 -31 38 -37 95 -4 38 -12 74 -18 81 -6 8
-15 69 -19 135 -5 67 -11 151 -14 187 l-5 65 43 18 44 17 18 89 c10 52 25 96
34 104 17 14 76 47 86 47 2 0 10 -17 17 -37 6 -21 29 -72 50 -114 34 -70 42
-78 98 -107 40 -22 67 -45 82 -70 12 -20 35 -53 51 -73 15 -20 28 -45 28 -55
0 -10 10 -54 22 -98 18 -68 28 -87 62 -120 23 -22 57 -69 77 -105 l35 -66 168
-43 c140 -36 171 -47 190 -69 l23 -27 46 18 c59 22 85 15 138 -41 24 -25 55
-49 68 -54 42 -17 118 1 164 37 23 18 54 36 70 40 30 6 48 34 66 101 7 26 19
44 30 48 31 9 45 34 43 72 -2 23 7 51 28 87 16 30 30 62 30 73 0 24 -120 147
-161 163 -23 10 -29 18 -29 44 0 23 -10 43 -35 70 -39 42 -26 41 -192 20 -33
-4 -53 -3 -53 3 0 16 -116 159 -135 167 -9 3 -27 6 -40 6 -12 0 -42 9 -67 20
-24 10 -63 22 -86 26 -55 9 -72 39 -72 129 0 48 -7 82 -26 128 -17 38 -27 81
-27 112 0 36 -1 40 -4 15 -4 -40 -52 -109 -53 -77 0 10 -4 15 -10 12 -17 -10
-11 -58 10 -90 l20 -30 0 42 c0 45 8 73 20 73 4 0 19 -26 34 -59 21 -47 26
-74 26 -134 0 -42 5 -79 10 -82 18 -11 10 -25 -14 -25 -12 0 -38 -5 -55 -11
-23 -8 -39 -8 -55 -1 -22 10 -23 15 -21 119 0 60 4 114 8 120 4 6 -8 29 -27
52 -40 47 -76 146 -69 187 3 17 24 47 53 74 26 25 49 52 52 60 9 25 16 9 42
-90 14 -52 25 -86 26 -75 0 12 -12 61 -26 109 l-25 89 23 56 c20 48 23 74 23
176 1 113 4 133 58 344 32 123 54 228 49 233 -11 11 -101 -16 -205 -64 -48
-23 -90 -38 -93 -35 -3 3 0 31 7 61 7 31 9 59 6 63 -4 3 -43 -4 -87 -16 -88
-24 -106 -23 -255 17 l-69 19 -18 55 c-10 30 -31 67 -47 82 l-27 26 -137 -67
-137 -67 -27 26 c-22 22 -24 30 -14 42 16 19 17 66 2 93 -7 14 -26 25 -52 30
-30 6 -44 15 -50 30 -7 20 3 30 96 97 57 42 129 90 160 107 31 17 54 33 52 35
-2 3 -34 -3 -72 -11 -37 -9 -71 -15 -76 -13 -5 2 20 24 56 50 59 43 94 83 148
169 38 59 8 27 -36 -40 -49 -74 -121 -131 -189 -149 -37 -10 -37 -10 -27 15 5
14 22 35 37 47 52 41 127 110 147 135 11 14 -9 1 -44 -29 -94 -82 -122 -103
-127 -97 -3 3 40 49 95 102 55 53 128 131 162 174 52 64 41 55 -67 -57 -71
-72 -141 -136 -156 -142 -31 -11 -29 -16 -32 79 -2 28 -8 48 -19 56 -16 11 -8
20 68 85 47 40 85 77 85 82 0 6 -26 -12 -57 -39 -32 -27 -67 -55 -77 -63 -18
-14 -19 -14 -8 7 7 12 38 43 70 69 56 45 72 64 55 64 -16 0 -144 -112 -167
-147 l-24 -35 -18 31 c-35 59 -38 24 -4 -40 11 -20 -3 -28 -15 -9 -14 23 -27
9 -22 -24 4 -23 1 -39 -8 -46 -11 -10 -17 -5 -28 22 -11 27 -11 35 -1 43 15
11 33 84 34 130 0 24 20 49 118 145 112 109 120 119 149 195 30 78 79 292 70
302 -3 2 -15 -40 -27 -94 -30 -138 -70 -250 -103 -292 l-29 -36 8 30 c4 17 15
47 25 67 15 28 19 57 18 120 l-2 83 -7 -85 c-7 -85 -7 -85 -87 -210 -76 -118
-82 -125 -110 -122 -33 4 -113 -25 -113 -40 0 -6 8 -7 18 -3 9 4 39 13 65 20
48 14 49 13 31 -6 -13 -15 -26 -18 -48 -14 -31 5 -31 5 -8 -11 25 -19 28 -47
11 -124 -7 -31 -16 -50 -25 -50 -19 0 -18 -50 0 -95 14 -33 12 -45 -50 -262
-68 -239 -80 -266 -138 -322 -41 -39 -55 -37 -33 6 46 87 71 224 54 286 -7 25
-5 27 22 27 27 0 30 4 51 72 32 107 35 134 16 163 -16 24 -15 25 9 31 20 5 25
12 24 38 0 17 -3 25 -6 18 -4 -10 -9 -9 -24 4 -16 14 -19 31 -19 108 l1 91 79
69 c44 38 80 73 80 78 0 15 -32 -8 -110 -79 -52 -48 -66 -57 -47 -32 15 20 69
73 120 117 50 44 101 90 112 103 l20 23 -26 -20 c-72 -54 -187 -154 -222 -192
-39 -40 -95 -77 -105 -67 -9 9 65 112 156 218 56 64 104 130 119 165 28 62
124 354 119 360 -2 2 -18 -41 -36 -95 -18 -54 -52 -147 -77 -207 -38 -95 -54
-121 -119 -194 -42 -46 -109 -127 -151 -179 -83 -105 -112 -120 -39 -21 89
122 91 125 48 81 -23 -23 -56 -53 -75 -67 -33 -25 -34 -25 -51 -8 -15 18 -14
23 32 93 27 41 95 139 152 219 146 205 330 478 330 490 0 5 4 10 10 10 5 0 11
-30 13 -67 3 -64 3 -63 5 20 1 48 -2 87 -6 87 -5 0 -19 -19 -32 -42 -13 -24
-38 -65 -56 -91 l-32 -48 -12 53 c-41 172 -275 738 -306 738 -2 0 -4 -15 -3
-32z m-441 -1275 c-8 -3 -24 -10 -35 -15 -20 -9 -20 -9 -1 6 11 9 27 16 35 15
14 0 14 -1 1 -6z m-60 -28 c0 -2 -10 -9 -22 -15 -22 -11 -22 -10 -4 4 21 17
26 19 26 11z m387 -17 c-3 -8 -6 -5 -6 6 -1 11 2 17 5 13 3 -3 4 -12 1 -19z
m-260 -75 c-3 -10 -5 -2 -5 17 0 19 2 27 5 18 2 -10 2 -26 0 -35z m-897 -27
c74 -31 140 -56 147 -56 11 0 83 -101 83 -116 0 -3 -21 10 -47 28 -26 18 -60
33 -75 34 -14 1 -47 16 -73 34 -25 18 -48 30 -50 28 -3 -2 51 -46 120 -97
l124 -92 -20 -47 c-33 -76 -40 -79 -79 -28 -19 25 -89 114 -156 198 -135 171
-144 184 -123 175 8 -3 75 -31 149 -61z m1050 25 c0 -48 -21 -109 -61 -175
-20 -35 -23 -43 -8 -26 35 40 72 131 77 188 4 43 7 50 18 41 8 -6 14 -19 14
-28 0 -14 2 -14 10 -1 13 21 80 -52 80 -89 0 -62 -30 -118 -83 -158 -83 -62
-86 -61 -20 8 39 42 65 79 72 105 13 47 13 54 3 54 -5 0 -14 -19 -21 -42 -17
-55 -78 -126 -165 -192 -75 -56 -204 -132 -212 -124 -2 3 30 31 73 63 153 115
243 228 258 325 4 24 0 17 -13 -21 -42 -124 -159 -244 -387 -395 -91 -61 -111
-62 -121 -7 -6 31 -2 39 32 74 21 21 42 39 46 39 4 0 8 -21 8 -47 0 -42 -4
-52 -32 -76 -18 -16 -24 -24 -13 -18 31 15 321 312 338 346 19 39 38 130 31
149 -4 9 5 20 23 30 44 24 53 20 53 -23z m-286 -57 c9 -8 16 -25 16 -37 -1
-29 -135 -177 -161 -177 -12 0 -26 -15 -39 -40 -11 -22 -23 -40 -25 -40 -3 0
-2 18 1 40 4 27 3 40 -5 40 -6 0 -11 5 -11 11 0 6 -9 22 -20 36 -11 14 -20 21
-20 15 0 -6 7 -18 16 -27 15 -14 15 -19 -1 -51 -14 -29 -19 -33 -31 -23 -10 8
-12 15 -4 23 14 14 13 49 -2 40 -8 -5 -9 -1 -5 12 5 12 -1 9 -17 -10 -23 -27
-47 -29 -45 -3 0 7 21 30 46 51 36 32 46 37 54 25 7 -11 9 -9 9 7 0 27 96 103
143 114 53 13 85 11 101 -6z m-609 -118 c11 -8 16 -15 10 -15 -5 0 -23 11 -40
25 -31 26 -6 18 30 -10z m774 12 c-6 -11 -46 -57 -89 -102 l-78 -80 -36 24
c-20 14 -36 28 -36 31 0 9 114 97 162 124 24 14 53 25 66 25 20 0 21 -2 11
-22z m311 -82 c0 -3 -7 -37 -15 -77 -14 -67 -20 -78 -78 -138 -66 -70 -84 -81
-98 -59 -6 8 -9 1 -9 -22 0 -26 -3 -31 -10 -20 -8 13 -10 12 -10 -3 0 -11 -5
-15 -11 -11 -6 3 -9 17 -6 31 l4 24 -21 -20 c-16 -15 -25 -17 -36 -10 -12 9
-11 10 5 5 11 -4 -10 21 -47 55 -38 33 -68 65 -68 70 0 8 150 89 165 89 3 0
-11 -32 -31 -71 -19 -39 -34 -73 -32 -75 2 -1 37 26 78 61 41 35 78 64 82 65
4 0 -5 -20 -19 -45 -36 -65 -15 -55 29 13 59 92 128 166 128 138z m-838 -48
c-17 -17 -47 9 -30 29 10 12 13 12 27 -1 11 -12 12 -19 3 -28z m1236 -80 c3
-129 -4 -149 -84 -237 -37 -41 -58 -72 -56 -83 5 -26 -16 -48 -43 -48 -29 0
-49 24 -40 47 6 16 8 16 18 -4 13 -28 33 -29 47 -3 7 14 7 20 0 20 -19 0 -10
37 16 61 14 13 35 38 47 54 20 30 20 30 -16 -4 l-37 -35 10 34 c5 18 7 43 4
56 -7 27 32 57 68 52 20 -3 23 2 26 30 2 20 -4 44 -14 59 -16 26 -16 27 6 45
12 10 18 18 12 18 -5 0 -33 -25 -61 -56 -52 -57 -63 -57 -35 -1 25 50 86 108
109 105 18 -3 20 -12 23 -110z m-908 40 l24 -18 -39 -40 c-21 -22 -43 -40 -47
-40 -4 0 -8 14 -8 30 0 33 3 35 31 20 10 -6 19 -8 19 -6 0 3 -19 15 -42 27
-55 28 -53 24 -34 54 19 29 19 29 96 -27z m660 22 c0 -26 -4 -30 -26 -30 -43
0 -259 -164 -236 -179 4 -3 11 -14 15 -24 9 -23 41 -18 45 7 3 11 -4 26 -14
34 -18 13 -18 15 11 38 17 14 59 46 93 71 51 37 66 43 73 32 11 -18 11 -43 -1
-99 -22 -98 -21 -97 -118 -103 -48 -2 -94 -6 -102 -8 -9 -3 -16 5 -18 19 -3
20 -6 21 -20 10 -25 -18 30 44 128 146 110 114 170 145 170 86z m-908 -17 c20
-21 40 -51 44 -68 7 -30 7 -30 -45 17 -29 27 -58 45 -64 41 -6 -4 -2 -10 11
-14 20 -8 21 -10 7 -43 -18 -41 -19 -94 -5 -132 l11 -27 15 21 c8 12 26 22 38
22 21 0 24 -6 29 -52 2 -29 3 -55 1 -57 -2 -2 -14 4 -26 15 -13 10 -5 -1 17
-24 28 -30 47 -42 67 -42 21 0 31 -6 38 -26 13 -33 13 -34 -4 -34 -7 0 -16 9
-19 20 -6 25 -24 26 -29 3 -3 -14 -19 -4 -71 46 -91 87 -127 142 -129 200 -1
44 -2 44 -5 9 -2 -21 -7 -38 -10 -38 -4 0 -26 11 -50 25 -23 14 -43 22 -43 18
0 -4 28 -36 63 -72 42 -44 52 -59 32 -46 -54 32 -133 96 -139 111 -7 18 17 55
64 99 29 28 32 29 58 14 16 -9 30 -27 33 -44 l7 -30 1 28 c2 45 28 97 48 97
11 0 35 -17 55 -37z m399 -150 c52 -54 71 -99 42 -97 -44 3 -44 3 -31 24 8 12
19 18 28 15 20 -8 7 3 -55 47 -59 41 -75 51 -75 45 0 -2 18 -16 40 -31 37 -24
39 -28 25 -42 -18 -19 -19 -30 -2 -41 7 -5 -5 -10 -33 -14 l-45 -6 48 -1 c58
-2 55 -17 -5 -25 -24 -3 -57 -12 -75 -19 -28 -12 -16 -13 109 -11 80 1 149 -2
159 -8 17 -9 18 -12 5 -38 -12 -22 -12 -31 -3 -41 10 -10 1 -11 -45 -6 -49 5
-59 3 -66 -11 -11 -21 9 -219 21 -207 4 4 7 16 7 26 0 10 4 18 9 18 13 0 19
-69 6 -74 -17 -6 44 -26 82 -26 20 0 52 5 72 11 34 10 36 13 33 44 -2 18 1 36
7 39 13 8 15 -72 3 -90 -22 -33 -128 -46 -189 -23 -22 8 -25 8 -16 -2 7 -7 37
-14 67 -17 59 -5 67 -21 13 -23 -29 -2 -29 -2 8 -8 34 -5 40 -10 43 -33 3 -26
1 -28 -31 -28 -22 0 -50 12 -83 35 -69 49 -252 233 -274 275 -26 52 -92 268
-85 280 10 16 65 41 75 35 6 -3 10 -1 10 5 0 5 16 18 35 27 25 12 32 19 23 26
-9 5 -6 7 7 3 11 -3 31 1 45 9 14 8 27 14 30 15 3 0 31 -26 61 -57z m297 -50
c-4 -22 -22 -20 -26 1 -2 10 3 16 13 16 10 0 15 -7 13 -17z m-290 -11 c2 -7
-3 -12 -12 -12 -9 0 -16 7 -16 16 0 17 22 14 28 -4z m872 -36 c0 -10 -98 -60
-161 -81 -38 -13 -69 -22 -69 -21 0 13 124 82 165 91 61 15 65 16 65 11z
m-496 -68 c21 -30 20 -46 -10 -138 -24 -72 -44 -102 -44 -67 0 7 -7 37 -16 66
-11 39 -23 57 -45 69 -22 13 -29 24 -29 49 0 35 9 39 87 42 33 1 45 -4 57 -21z
m-732 -80 c4 -30 29 -29 46 2 12 25 13 24 10 -10 -3 -32 -6 -35 -32 -33 -36 3
-61 26 -53 47 9 23 25 19 29 -6z m623 -8 c4 -6 1 -18 -6 -26 -19 -23 -232 -16
-237 7 -3 15 7 16 80 12 46 -3 94 0 108 5 33 14 47 14 55 2z m269 -47 c3 -21
6 -92 6 -157 0 -66 3 -117 6 -113 3 3 28 -3 55 -13 27 -11 49 -17 49 -13 0 4
-21 29 -47 55 -41 42 -47 52 -49 98 -2 33 1 50 9 50 17 -1 47 -25 47 -38 0
-20 53 -52 85 -52 35 0 66 -28 159 -147 27 -35 51 -63 54 -63 2 0 -1 7 -8 15
-21 26 -4 28 23 3 l26 -23 -27 -67 c-15 -36 -30 -69 -33 -72 -12 -12 -75 18
-114 54 -38 35 -161 97 -171 87 -3 -3 4 -23 15 -46 12 -22 21 -43 21 -46 0 -3
-38 -5 -85 -5 l-84 0 -11 42 c-9 30 -9 48 0 66 21 48 1 33 -52 -38 l-53 -71
-3 46 c-2 35 5 66 31 128 20 45 40 106 46 135 6 29 22 70 36 90 14 20 25 41
25 47 0 23 22 85 29 85 5 0 11 -17 15 -37z m76 25 c0 -7 9 -24 20 -38 22 -28
25 -40 10 -40 -5 0 -10 6 -10 13 0 6 -9 23 -20 37 -22 28 -25 40 -10 40 6 0
10 -6 10 -12z m-950 -28 c0 -5 -4 -10 -10 -10 -5 0 -10 5 -10 10 0 6 5 10 10
10 6 0 10 -4 10 -10z m110 -36 c7 -20 27 -53 45 -73 23 -25 41 -65 63 -136 17
-55 52 -142 77 -194 32 -65 41 -91 29 -87 -8 3 -22 6 -30 6 -8 0 -37 36 -65
80 -28 44 -53 80 -56 80 -3 0 -2 -31 2 -70 l7 -70 -34 0 c-19 0 -69 -3 -112
-6 l-76 -7 15 37 c8 20 12 36 9 36 -3 0 -44 -18 -91 -40 -47 -22 -89 -40 -93
-40 -15 0 -43 86 -41 125 1 36 9 47 73 108 65 61 76 67 113 67 42 0 65 15 78
53 4 9 13 17 22 17 9 0 15 9 15 25 0 38 21 125 30 125 5 0 14 -16 20 -36z
m845 -34 l-7 -30 -29 21 c-35 24 -38 56 -6 68 30 11 51 -18 42 -59z m-965 29
c0 -5 -4 -9 -10 -9 -5 0 -10 7 -10 16 0 8 5 12 10 9 6 -3 10 -10 10 -16z m66
8 c4 -9 -10 -97 -15 -97 -4 0 -17 13 -29 30 -31 42 -21 85 17 75 14 -4 26 -7
27 -8z m984 -22 c0 -22 -37 -55 -60 -55 -26 0 -25 24 2 50 26 23 58 27 58 5z
m-1060 -15 c0 -5 -4 -10 -10 -10 -5 0 -10 5 -10 10 0 6 5 10 10 10 6 0 10 -4
10 -10z m1099 -12 c21 -58 -35 -107 -88 -77 -35 20 -36 35 -2 42 16 4 38 17
48 31 22 31 31 32 42 4z m-1079 -25 c13 -12 13 -15 0 -23 -32 -20 -90 -1 -90
30 0 23 64 18 90 -7z m-74 -29 c16 -11 36 -15 59 -11 39 6 40 5 24 -26 -15
-28 -28 -37 -58 -37 -34 0 -61 28 -61 62 0 33 2 33 36 12z m1423 -144 c18 -32
37 -62 42 -66 7 -4 7 2 -1 16 -13 23 -8 36 9 25 6 -3 11 -35 11 -70 0 -63 -1
-65 -42 -104 -24 -22 -46 -37 -50 -35 -5 3 -8 38 -8 78 0 40 -3 94 -6 120 l-7
46 -56 0 -56 1 45 24 c70 38 82 34 119 -35z m-996 -36 c34 -31 81 -65 105 -76
l43 -19 -5 -67 c-2 -37 -5 -78 -5 -93 l-1 -25 -68 33 c-67 32 -69 34 -114 122
-42 81 -46 92 -37 127 4 22 9 42 9 47 0 14 13 6 73 -49z m1817 -11 c0 -17 -92
-381 -131 -518 -36 -129 -48 -151 -98 -193 l-48 -41 44 127 c24 70 64 206 88
302 59 238 60 244 44 238 -8 -3 -40 -11 -71 -18 -46 -11 -60 -11 -73 0 -26 22
-7 34 145 91 89 33 100 34 100 12z m-3352 -111 l103 -28 -46 -32 c-38 -27 -49
-30 -71 -22 -14 6 -30 8 -35 4 -16 -9 -10 -81 11 -135 19 -48 271 -411 305
-439 8 -7 15 -19 15 -27 0 -20 -146 95 -245 193 -58 56 -92 100 -114 146 -31
62 -33 72 -38 217 -4 87 -2 151 3 151 5 0 55 -13 112 -28z m3115 -25 l31 -37
-29 -30 c-21 -22 -38 -30 -63 -30 -23 0 -33 4 -29 13 2 6 10 38 17 70 16 68
28 70 73 14z m-2959 -34 c21 -77 20 -81 -24 -93 -23 -6 -59 -27 -80 -46 -50
-45 -64 -38 -55 30 9 61 15 71 74 101 55 29 78 31 85 8z m827 -64 c23 -44 65
-104 93 -133 50 -52 53 -54 131 -65 44 -6 128 -14 188 -18 59 -3 107 -9 107
-12 0 -4 -75 -15 -167 -26 l-166 -19 -61 33 c-89 47 -155 98 -166 127 -10 25
-14 194 -6 194 3 0 24 -36 47 -81z m1348 34 c35 -10 66 -24 69 -31 3 -9 -4
-11 -25 -7 -28 5 -28 5 -3 -6 19 -8 21 -13 10 -17 -8 -3 -19 -11 -25 -18 -5
-7 -84 -42 -175 -78 -142 -56 -182 -68 -287 -82 -68 -10 -126 -15 -129 -11 -9
9 31 104 66 157 16 24 28 46 26 47 -2 2 -30 -8 -61 -22 -32 -14 -60 -23 -62
-21 -2 2 13 18 34 35 37 30 90 51 184 71 71 15 304 5 378 -17z m-820 -28 c29
-16 66 -45 82 -65 33 -38 66 -137 52 -151 -11 -11 -333 8 -437 26 -66 12 -85
19 -113 47 -46 44 -57 66 -43 83 9 11 7 13 -12 9 -13 -2 0 7 27 20 58 29 56
32 -5 11 -49 -17 -64 -19 -55 -6 7 12 92 40 153 51 26 5 103 8 172 7 118 -2
128 -4 179 -32z m958 -127 c-29 -52 -41 -64 -69 -70 -65 -15 -252 -47 -255
-45 -1 2 66 34 150 71 84 38 163 77 177 87 14 10 27 19 28 19 2 0 -12 -28 -31
-62z m778 -263 c-8 -72 -56 -193 -90 -225 -32 -30 -37 -24 -20 25 8 22 14 50
15 63 0 13 13 51 30 85 16 34 34 84 41 111 11 46 13 48 21 25 6 -13 7 -51 3
-84z m-959 81 c16 -12 16 -16 4 -20 -170 -63 -234 -86 -236 -83 -5 4 188 115
202 116 5 1 19 -5 30 -13z m-2251 -196 c59 -69 109 -131 112 -138 6 -14 -22
-62 -36 -62 -9 0 -15 13 -52 115 -10 28 -18 42 -19 33 0 -21 39 -129 51 -142
5 -6 9 -16 9 -24 0 -20 -27 3 -52 43 -10 17 -18 25 -18 19 0 -6 11 -28 25 -48
37 -54 2 -32 -68 43 -43 48 -57 71 -66 111 -13 62 -15 183 -2 178 6 -1 58 -59
116 -128z m1639 101 c-14 -13 -391 -94 -407 -88 -8 3 -26 26 -40 51 l-26 46
242 0 c137 0 237 -4 231 -9z m1461 -136 c-3 -26 -8 -45 -11 -43 -2 3 -1 26 2
52 4 25 9 44 12 42 2 -3 1 -26 -3 -51z m-19 9 c-3 -9 -6 -24 -6 -35 0 -10 -4
-19 -9 -19 -13 0 -19 48 -8 59 16 16 30 13 23 -5z m-1294 -128 c21 -32 5 -34
-74 -9 -46 14 -85 27 -88 30 -3 3 31 2 75 -2 44 -4 83 -12 87 -19z m1191 12
c40 -31 149 -349 150 -443 2 -80 -27 -158 -78 -212 -44 -45 -45 -46 -94 -40
-70 8 -106 30 -136 81 -34 58 -79 183 -100 278 l-17 77 48 63 c56 75 184 208
199 208 6 0 19 -6 28 -12z m-1502 -26 c9 -15 27 -45 40 -66 26 -45 25 -44 -79
30 -63 45 -70 53 -50 57 57 11 73 7 89 -21z m-1442 -83 c7 -3 17 -26 22 -53
11 -59 -3 -127 -37 -179 -23 -35 -24 -42 -14 -95 6 -31 8 -88 4 -127 -3 -42
-2 -81 5 -98 10 -27 9 -29 -33 -46 -26 -12 -45 -27 -49 -40 -9 -38 -24 -22
-40 42 -30 122 -30 136 2 227 23 67 30 79 32 55 7 -106 9 -107 30 -16 14 60
16 88 9 95 -8 8 -13 7 -19 -3 -12 -19 -19 -3 -33 76 -11 64 -10 76 12 151 l23
81 37 -33 c21 -18 43 -35 49 -37z m182 -2 c14 -17 46 -66 71 -107 25 -41 64
-95 87 -120 23 -24 44 -55 48 -68 9 -36 -24 -158 -68 -250 -47 -97 -90 -135
-176 -152 -76 -16 -99 1 -135 101 -32 87 -31 136 9 289 57 223 102 340 131
340 4 0 18 -15 33 -33z m3187 -462 c53 -16 70 -35 31 -35 -12 0 -38 -5 -59
-11 -30 -9 -43 -8 -69 5 -21 11 -37 14 -47 8 -14 -8 -13 -10 7 -16 59 -15 57
-21 -34 -107 -93 -87 -165 -178 -195 -249 l-18 -43 -47 53 c-52 58 -62 84 -53
135 8 41 45 70 102 79 35 6 45 4 73 -20 17 -14 34 -25 36 -22 2 2 -2 26 -10
53 -9 27 -12 57 -9 68 8 26 63 87 99 109 35 22 104 20 193 -7z m149 -43 c7 -4
38 -41 68 -82 l56 -75 -29 -7 c-15 -4 -56 -33 -90 -64 l-62 -56 -33 24 c-59
44 -58 45 -42 -37 7 -33 38 -26 96 21 30 24 68 55 86 69 22 19 48 28 89 32
l57 6 -18 -31 c-14 -23 -50 -46 -153 -97 -129 -65 -135 -69 -154 -113 -23 -52
-21 -134 7 -211 8 -24 13 -46 10 -49 -2 -3 -19 -1 -36 4 -30 8 -35 17 -68 108
-31 88 -36 96 -42 72 -4 -15 -4 -38 0 -49 13 -34 31 -93 31 -100 0 -4 -45 21
-100 54 -55 34 -100 67 -100 73 1 6 11 62 24 124 13 61 22 112 21 112 -8 0
-77 -109 -108 -170 l-37 -75 4 59 c7 91 52 170 158 282 119 124 159 155 222
170 59 14 126 17 143 6z m-2087 -153 c19 -5 65 -9 102 -9 37 0 70 -4 73 -10 4
-6 -28 -10 -88 -10 -52 0 -130 -3 -173 -6 l-79 -6 50 31 c28 17 57 28 65 25 8
-4 31 -10 50 -15z m862 -11 c5 -39 -4 -78 -18 -78 -9 0 -14 11 -14 28 0 36 10
72 20 72 5 0 10 -10 12 -22z m-2270 -21 c31 -17 43 -33 65 -88 l28 -66 35 23
c57 39 121 27 144 -28 16 -36 9 -70 -24 -123 l-22 -35 -51 45 c-64 56 -225
139 -302 155 -59 12 -60 12 -177 -35 -16 -6 -17 -4 -7 25 12 34 97 107 162
139 46 23 93 19 149 -12z m3867 -2 c34 -39 44 -92 15 -81 -9 3 -22 6 -30 6 -8
0 -15 8 -15 18 -1 15 -2 15 -6 -1 -4 -17 -7 -17 -31 6 -33 31 -82 58 -94 51
-5 -3 -4 -12 3 -20 9 -11 1 -31 -36 -94 -47 -81 -52 -103 -30 -154 7 -17 5
-18 -21 -12 -60 15 -69 55 -23 112 18 22 44 66 59 99 40 86 61 101 141 104 30
1 42 -5 68 -34z m-2068 -32 c19 -19 -74 -26 -346 -28 -322 -2 -451 -20 -627
-90 -13 -5 -21 2 -33 31 -9 21 -14 43 -12 49 3 7 38 8 116 1 101 -8 119 -7
198 14 49 13 137 26 207 30 169 11 483 7 497 -7z m352 -30 c-7 -2 -19 -2 -25
0 -7 3 -2 5 12 5 14 0 19 -2 13 -5z m129 -22 c3 -3 8 -57 10 -119 3 -96 1
-112 -12 -110 -9 2 -17 18 -20 38 -5 32 -10 36 -75 62 -38 15 -64 27 -58 28 7
0 36 -9 65 -20 66 -25 70 -25 63 3 -3 12 -7 41 -9 65 -4 50 -2 47 -46 61 -32
9 -30 10 20 5 30 -3 58 -9 62 -13z m1358 1 c0 -17 -172 -243 -190 -250 -4 -2
-11 13 -14 33 -6 31 -2 42 28 83 38 52 100 113 131 130 24 14 45 15 45 4z
m261 -17 c42 -15 145 -92 135 -102 -3 -3 -22 5 -42 18 -21 12 -34 18 -30 11 3
-6 34 -25 66 -43 70 -37 73 -50 30 -121 -21 -33 -30 -61 -30 -91 -1 -38 -4
-44 -38 -65 -27 -17 -37 -30 -38 -50 -2 -46 -27 -86 -60 -97 -16 -5 -48 -24
-70 -41 -49 -39 -119 -52 -161 -30 -16 8 -48 35 -71 60 -36 39 -42 52 -41 88
0 28 3 37 8 25 6 -15 9 -13 24 17 9 20 20 36 25 36 4 0 34 -27 67 -60 33 -33
64 -60 69 -60 6 0 -22 33 -62 73 -39 40 -72 78 -72 84 0 30 25 20 78 -31 33
-31 66 -56 76 -56 9 0 29 -20 44 -45 28 -46 42 -56 42 -30 0 8 5 15 11 15 5 0
-9 23 -32 50 -27 32 -50 50 -64 50 -44 0 -116 81 -112 127 2 31 33 23 106 -26
34 -24 64 -41 67 -38 2 2 -28 25 -66 51 -79 52 -80 53 -32 136 20 35 21 42 7
30 -16 -13 -18 -13 -13 0 11 34 85 13 164 -46 17 -13 35 -24 41 -24 5 0 22
-13 37 -29 l28 -29 -23 -5 c-15 -3 -10 -4 11 -4 35 2 35 3 32 42 -3 24 -10 43
-20 49 -10 5 -44 37 -77 72 l-60 64 -31 -31 c-46 -46 -62 -33 -24 20 18 24 26
40 19 36 -8 -5 -10 -4 -5 3 10 16 34 15 87 -3z m-2686 -5 c4 -6 -7 -10 -27
-10 -38 0 -308 -56 -317 -66 -3 -4 6 -4 21 0 121 29 283 48 438 52 l175 5
-190 -56 c-104 -31 -242 -64 -306 -74 -64 -10 -132 -26 -152 -36 -43 -20 -54
-15 -63 30 -11 62 0 80 63 105 110 42 343 75 358 50z m-1271 -44 c151 -54 275
-157 314 -259 25 -67 32 -212 10 -205 -13 5 -16 16 -43 142 l-18 78 -33 -63
c-19 -35 -45 -75 -58 -88 l-24 -24 -38 58 c-32 48 -39 67 -43 124 l-4 66 -17
-40 -17 -40 36 -74 c25 -54 36 -92 39 -135 3 -57 2 -60 -12 -42 -9 11 -16 28
-16 39 0 25 -56 131 -82 154 -17 15 -44 19 -152 23 -108 4 -137 9 -163 25 -29
18 -33 25 -33 65 0 100 8 117 68 152 136 78 177 84 286 44z m1385 -110 c-2 -3
-61 -14 -129 -26 -109 -19 -210 -49 -210 -64 0 -2 24 4 53 14 28 10 86 23 127
29 41 6 120 18 174 26 55 8 101 13 103 12 1 -2 -80 -37 -180 -80 -161 -67
-197 -78 -311 -97 -70 -11 -136 -25 -145 -30 -12 -8 -5 -9 24 -5 l40 6 -45
-25 c-25 -13 -46 -23 -47 -22 -2 2 -7 25 -13 52 -8 41 -6 57 12 102 12 28 25
52 30 52 4 0 5 -8 1 -17 -5 -14 0 -12 20 6 29 27 113 46 237 55 l75 6 -67 -15
c-62 -12 -193 -63 -185 -71 2 -2 34 8 70 22 81 32 386 89 366 70z m2301 -43
c0 -3 -13 -22 -30 -43 -39 -49 -52 -84 -41 -113 6 -15 4 -29 -5 -42 -8 -10
-14 -28 -15 -39 -1 -35 -48 75 -48 115 -1 31 7 43 53 87 36 34 60 50 70 46 9
-3 16 -8 16 -11z m-1563 1 c-3 -3 -12 -4 -19 -1 -8 3 -5 6 6 6 11 1 17 -2 13
-5z m120 -19 c43 -8 90 -15 106 -15 20 0 27 -5 27 -19 0 -10 3 -40 7 -66 6
-46 5 -47 -15 -36 -17 9 -22 21 -22 55 l0 43 -102 26 c-117 28 -118 34 -1 12z
m-2537 -132 c12 -16 35 -47 51 -71 16 -23 45 -50 64 -59 40 -19 40 -34 1 -48
-24 -8 -32 -4 -92 55 -40 40 -68 76 -71 94 l-6 29 -24 -29 c-12 -16 -23 -37
-23 -48 0 -16 -5 -17 -37 -11 -21 4 -40 8 -42 10 -7 7 48 93 63 98 13 5 13 1
5 -21 -9 -24 -6 -23 22 10 35 42 50 40 89 -9z m-89 -132 c16 -16 29 -35 29
-42 0 -8 -7 -4 -15 8 -15 21 -27 22 -90 8 -38 -8 -63 -42 -70 -95 -5 -39 -17
-63 -50 -104 l-44 -53 24 -39 c14 -21 25 -32 25 -24 0 9 14 24 30 34 17 9 45
43 63 74 38 69 111 142 140 142 18 0 19 -2 7 -10 -9 -6 -10 -10 -3 -10 6 0 32
-15 56 -34 25 -19 48 -32 51 -29 3 4 6 0 6 -8 0 -8 -22 -50 -50 -94 -27 -44
-49 -91 -49 -105 1 -25 1 -25 9 3 12 40 92 166 109 172 9 3 12 3 9 -1 -4 -3
16 -18 43 -32 50 -24 51 -25 44 -61 -4 -20 -15 -56 -26 -80 -10 -24 -19 -53
-19 -65 1 -21 34 59 52 127 11 40 14 42 52 27 20 -7 24 -6 19 5 -12 32 9 13
23 -20 23 -57 18 -115 -16 -167 -49 -74 -64 -83 -139 -84 -36 0 -84 -4 -106
-8 -36 -7 -43 -5 -68 22 -28 29 -30 30 -106 25 l-78 -6 -16 42 c-10 23 -17 51
-17 64 0 30 -8 40 -57 67 -40 22 -48 32 -44 54 1 4 4 44 7 89 3 45 11 93 17
109 7 15 40 50 75 78 52 41 70 50 103 50 31 0 47 -7 70 -29z m404 -34 c8 -13
26 -52 41 -86 24 -60 24 -64 8 -82 -9 -11 -20 -19 -24 -19 -9 0 -46 82 -42 93
5 16 -43 89 -68 103 -24 13 -23 13 22 14 39 0 50 -4 63 -23z m-299 -73 c18
-14 18 -14 -6 -3 -31 14 -36 19 -24 19 6 0 19 -7 30 -16z m229 -32 c33 -18 56
-39 67 -62 18 -36 22 -101 9 -134 -6 -15 -9 -11 -19 22 -9 29 -20 43 -42 52
-22 9 -30 19 -30 37 0 15 -12 35 -30 51 -30 27 -40 62 -17 62 6 0 34 -13 62
-28z m3450 -3877 c32 -137 71 -288 87 -334 15 -47 28 -94 28 -106 0 -20 -36
-64 -43 -54 -2 2 -43 162 -92 355 -87 346 -87 351 -70 378 10 15 21 23 25 19
3 -4 33 -120 65 -258z m-3575 215 c18 -36 19 -46 9 -109 l-10 -70 41 -52 c39
-49 41 -55 35 -103 -3 -28 -12 -141 -20 -251 -8 -110 -17 -220 -20 -245 l-4
-45 24 51 c25 51 104 327 144 505 l22 96 62 -26 c54 -23 75 -26 170 -25 71 1
107 -3 107 -10 0 -6 -9 -50 -20 -97 -41 -187 -116 -357 -179 -410 -42 -34
-128 -69 -173 -69 l-31 0 6 58 6 57 -34 -70 c-18 -38 -34 -74 -34 -80 -2 -19
217 1 313 29 49 14 90 27 92 28 4 5 154 337 205 456 34 79 52 108 78 127 38
27 53 25 28 -2 -18 -21 -145 -323 -213 -511 l-49 -133 -95 -30 c-66 -21 -106
-29 -131 -25 -19 3 -51 1 -69 -4 -19 -6 -69 -13 -111 -16 l-77 -7 -59 51 c-79
70 -216 172 -222 166 -3 -2 4 -11 16 -19 43 -30 173 -218 160 -231 -16 -17
-257 216 -257 248 0 6 16 37 36 69 28 47 48 107 99 306 56 220 109 404 122
426 7 13 12 8 33 -33z m2942 -130 c116 -27 219 -50 229 -50 10 0 29 14 42 31
l25 32 12 -74 c19 -124 56 -267 109 -429 l51 -155 50 3 c45 4 50 2 50 -16 0
-25 -77 -56 -178 -74 -102 -17 -254 15 -367 77 l-84 45 -89 228 c-49 125 -99
255 -112 289 l-22 62 28 40 c16 22 33 41 37 41 4 0 103 -22 219 -50z m494
-258 l71 -213 -13 -55 c-7 -31 -14 -57 -16 -59 -2 -2 -25 13 -51 33 -45 35
-50 43 -82 144 -31 96 -35 119 -35 218 0 116 10 153 38 148 12 -2 36 -60 88
-216z m281 -372 l32 -49 -41 -35 c-58 -50 -66 -49 -49 11 8 29 7 35 -17 54
l-27 21 30 24 c17 13 32 24 35 24 3 0 19 -23 37 -50z m-667 -88 c3 -2 -6 -1
-20 2 -21 6 -22 5 -7 -4 27 -17 210 -56 329 -70 104 -12 107 -12 138 10 17 12
33 21 34 19 2 -2 -2 -24 -8 -48 -10 -38 -18 -47 -68 -75 l-57 -31 -64 17
c-106 28 -351 119 -364 136 -7 9 -13 35 -13 59 l0 44 48 -27 c26 -15 49 -30
52 -32z m-2952 -232 l117 -6 125 72 c69 40 135 75 148 79 20 6 22 3 22 -27 0
-83 -6 -86 -244 -149 -102 -27 -182 -42 -246 -46 l-95 -5 -77 101 c-42 56 -79
107 -81 114 -7 19 -14 5 -21 -43 l-7 -45 86 -64 c47 -34 85 -65 85 -69 0 -3
-25 -52 -55 -110 l-56 -104 42 33 c153 125 251 182 338 195 l44 7 -6 -51 c-11
-95 -145 -378 -207 -437 l-28 -27 -31 45 c-92 134 -291 237 -402 209 -21 -5
-39 -8 -39 -6 0 2 21 41 46 86 59 108 99 198 144 333 21 61 41 117 45 126 5
14 31 -7 121 -95 l115 -111 117 -5z m3646 130 c10 -25 48 -97 86 -160 82 -139
113 -200 106 -207 -3 -3 -22 -1 -43 4 -36 8 -42 17 -130 167 l-93 158 22 49
c23 55 27 54 52 -11z m-625 -44 c25 -18 69 -46 96 -62 l50 -28 -35 34 c-25 24
-31 35 -20 37 26 5 175 -43 173 -55 -4 -15 -15 -17 97 18 51 17 96 30 98 30 2
0 1 -11 -2 -25 -6 -25 39 -106 126 -229 15 -21 28 -42 28 -46 0 -3 -25 -17
-56 -29 -80 -34 -166 -117 -206 -199 -17 -37 -33 -69 -35 -71 -2 -3 -19 10
-38 29 -34 33 -62 91 -89 190 -15 55 -121 226 -206 332 -26 33 -40 61 -40 79
0 16 3 29 6 29 4 0 27 -15 53 -34z m822 -347 c12 -6 44 -79 36 -85 -1 0 -18 1
-39 3 -32 4 -38 10 -52 47 -9 23 -16 45 -16 49 0 8 45 -1 71 -14z m-158 -41
c29 -46 29 -48 -23 -68 -93 -36 -179 -110 -220 -190 -22 -43 -26 -43 -73 -6
-17 13 -18 19 -7 50 17 51 82 147 121 176 48 36 131 79 154 80 13 0 30 -15 48
-42z m-4053 -69 c36 -17 88 -48 116 -70 47 -36 114 -116 114 -136 0 -5 -14
-17 -31 -27 l-31 -18 -44 50 c-86 98 -185 138 -322 130 -40 -2 -72 -2 -72 -1
0 1 7 21 16 44 20 49 39 58 124 58 53 1 77 -5 130 -30z m4233 12 c18 -7 26
-19 31 -52 4 -23 5 -44 2 -46 -2 -3 -18 -2 -34 2 -22 4 -31 13 -36 33 -3 15
-8 37 -12 50 -7 25 7 29 49 13z m-120 -58 l17 -42 -47 -21 c-64 -28 -124 -80
-163 -139 l-32 -50 -26 16 c-63 39 -64 40 -38 92 40 78 129 152 225 186 42 15
43 14 64 -42z m-4180 -46 l37 -12 -34 -52 -35 -51 -43 10 c-24 5 -67 8 -96 5
-50 -4 -53 -3 -48 17 3 12 6 34 6 49 0 19 7 30 23 37 31 12 145 11 190 -3z
m4338 -36 c15 -38 3 -91 -21 -91 -24 0 -26 4 -34 71 l-7 56 26 -5 c17 -3 30
-14 36 -31z m-4235 -9 c43 -32 114 -107 114 -121 0 -5 -20 -21 -44 -35 l-44
-26 -34 33 c-18 18 -43 39 -56 47 -22 15 -22 15 -6 73 9 31 20 57 24 57 4 0
25 -13 46 -28z m4110 -30 l12 -53 -32 -15 c-17 -9 -52 -39 -78 -67 l-48 -51
-49 24 -50 23 15 30 c38 72 160 171 204 164 9 -1 19 -23 26 -55z m-4263 -51
c5 -5 -3 -32 -18 -61 -22 -44 -30 -51 -48 -46 -12 3 -41 6 -64 6 l-43 0 0 54
c0 49 3 55 23 59 30 7 140 -2 150 -12z m4383 -56 c-6 -47 -21 -85 -34 -85 -4
0 -7 29 -7 65 -1 62 0 65 23 65 24 0 24 -2 18 -45z m-102 3 c16 -106 16 -119
2 -124 -13 -5 -134 21 -144 31 -14 13 102 125 129 125 4 0 10 -15 13 -32z
m-4157 -11 c21 -20 33 -39 29 -46 -14 -21 -102 -61 -113 -50 -15 15 15 129 33
129 8 0 31 -15 51 -33z m-182 -59 c7 -7 -47 -128 -56 -128 -14 0 -38 55 -45
100 l-7 43 52 -5 c28 -3 54 -7 56 -10z"/>
<path d="M2812 9455 c0 -16 2 -22 5 -12 2 9 2 23 0 30 -3 6 -5 -1 -5 -18z"/>
<path d="M2911 9159 c-1 -3 4 -20 10 -38 10 -27 15 -31 47 -30 l37 2 -34 6
c-24 4 -37 14 -46 36 -7 17 -14 27 -14 24z"/>
<path d="M3152 8700 c0 -14 2 -19 5 -12 2 6 2 18 0 25 -3 6 -5 1 -5 -13z"/>
<path d="M2820 8700 c0 -32 -10 -56 -49 -113 -27 -39 -48 -73 -47 -75 2 -1 14
2 27 7 13 5 36 12 52 15 l27 6 0 100 c0 55 -2 100 -5 100 -3 0 -5 -18 -5 -40z"/>
<path d="M3868 8353 c7 -3 16 -2 19 1 4 3 -2 6 -13 5 -11 0 -14 -3 -6 -6z"/>
<path d="M3918 8343 c7 -3 16 -2 19 1 4 3 -2 6 -13 5 -11 0 -14 -3 -6 -6z"/>
<path d="M5035 7036 c-27 -13 -58 -30 -68 -37 -16 -13 -15 -16 18 -42 l35 -28
0 24 c0 63 82 87 161 46 l41 -20 -23 40 c-21 39 -25 41 -68 41 -28 0 -66 -10
-96 -24z"/>
<path d="M5420 6615 c-19 -22 -6 -42 47 -73 49 -28 115 -87 146 -132 10 -14
15 -19 12 -12 -4 6 0 15 9 18 12 4 8 15 -20 51 -19 24 -34 48 -34 53 0 8 -132
110 -142 110 -3 0 -11 -7 -18 -15z"/>
<path d="M5286 6344 c-16 -41 79 -124 142 -124 18 0 -36 60 -99 111 -31 24
-38 26 -43 13z"/>
<path d="M5462 6251 c-20 -12 27 -23 47 -11 9 5 11 10 4 10 -6 0 -17 2 -25 5
-7 3 -19 1 -26 -4z"/>
<path d="M1363 6688 c-28 -9 -32 -15 -35 -54 -2 -24 -3 -44 -2 -44 0 0 22 25
48 55 48 56 46 61 -11 43z"/>
<path d="M1515 6531 l-40 -19 36 -1 c29 -1 38 3 42 19 3 11 4 20 4 20 -1 0
-20 -9 -42 -19z"/>
<path d="M1200 6325 c0 -2 10 -10 23 -16 20 -11 21 -11 8 4 -13 16 -31 23 -31
12z"/>
<path d="M1264 6097 c-44 -54 -50 -67 -47 -97 3 -21 -4 -57 -15 -87 -13 -35
-15 -50 -7 -47 9 4 11 -3 8 -20 -3 -16 -1 -26 6 -26 6 0 11 9 11 20 0 32 1 34
15 50 7 8 16 29 19 46 4 18 27 64 52 104 24 39 44 77 44 84 0 12 -20 36 -29
36 -4 0 -29 -28 -57 -63z"/>
<path d="M1446 6042 c-18 -30 -49 -132 -48 -158 2 -17 -2 -42 -7 -56 -6 -17
-5 -29 5 -43 13 -17 19 -13 14 10 -1 5 5 14 13 20 8 6 22 44 31 85 9 41 20 92
25 113 8 33 7 37 -9 37 -11 0 -21 -4 -24 -8z"/>
<path d="M1562 5915 c-11 -38 -20 -71 -18 -72 1 -1 17 10 34 25 33 27 33 27
19 72 l-13 45 -22 -70z"/>
<path d="M1116 5925 c-11 -8 -17 -17 -14 -20 2 -3 13 4 23 15 21 23 18 25 -9
5z"/>
<path d="M1312 5827 c-23 -24 -28 -37 -14 -37 4 0 16 14 25 30 22 36 18 38
-11 7z"/>
<path d="M1480 5800 c-7 -13 -7 -20 -1 -20 6 0 15 9 21 20 7 13 7 20 1 20 -6
0 -15 -9 -21 -20z"/>
<path d="M1288 1883 c-22 -25 -13 -83 13 -83 15 0 19 7 18 33 0 17 -4 40 -8
50 -6 18 -7 18 -23 0z"/>
<path d="M4641 2207 c-10 -25 -8 -32 14 -59 29 -34 30 -31 11 37 l-13 50 -12
-28z"/>
<path d="M4345 1980 c3 -14 14 -56 24 -95 l17 -70 84 -32 c46 -18 86 -33 89
-33 3 0 -24 30 -60 68 -36 37 -83 90 -104 117 -56 72 -57 73 -50 45z"/>
<path d="M4700 1384 c19 -22 37 -42 40 -46 3 -4 19 -4 37 0 l32 7 -72 39 -72
38 35 -38z"/>
<path d="M3281 10968 c-18 -57 -57 -149 -87 -205 -29 -57 -52 -103 -49 -103
14 0 110 194 137 276 17 54 35 101 40 102 10 5 11 32 0 32 -4 0 -23 -46 -41
-102z"/>
<path d="M3331 11025 c0 -5 17 -86 39 -180 22 -93 37 -148 34 -122 -6 49 -71
320 -73 302z"/>
<path d="M3493 10995 c0 -22 2 -30 4 -17 2 12 2 30 0 40 -3 9 -5 -1 -4 -23z"/>
<path d="M3482 10925 c0 -16 2 -22 5 -12 2 9 2 23 0 30 -3 6 -5 -1 -5 -18z"/>
<path d="M3302 10900 c0 -19 2 -27 5 -17 2 9 2 25 0 35 -3 9 -5 1 -5 -18z"/>
<path d="M2788 10878 c-125 -191 -261 -577 -245 -701 l4 -32 1 37 c3 65 31
190 69 308 37 116 151 355 180 377 8 6 13 17 11 24 -2 7 -10 2 -20 -13z"/>
<path d="M3472 10860 c0 -14 2 -19 5 -12 2 6 2 18 0 25 -3 6 -5 1 -5 -13z"/>
<path d="M2813 10810 c0 -25 2 -35 4 -22 2 12 2 32 0 45 -2 12 -4 2 -4 -23z"/>
<path d="M3291 10830 c-1 -33 -36 -191 -54 -250 -39 -121 -97 -259 -97 -228 0
3 18 59 40 123 23 65 39 120 36 123 -3 3 -8 -1 -11 -9 -2 -8 -14 -39 -24 -69
-11 -30 -31 -81 -44 -114 -29 -69 -37 -63 -57 45 -10 58 -10 71 5 100 l16 34
-20 -25 -19 -25 -6 25 c-3 14 -10 61 -15 105 -6 56 -9 67 -10 36 -3 -109 54
-401 106 -541 43 -115 123 -290 133 -290 4 0 15 30 25 68 10 37 33 112 52 166
18 55 33 105 33 110 0 6 -31 -52 -68 -128 l-67 -139 -38 74 c-20 41 -48 105
-61 143 l-23 68 52 137 c89 232 136 411 122 467 -4 15 -5 13 -6 -6z"/>
<path d="M3461 10814 c0 -11 3 -14 6 -6 3 7 2 16 -1 19 -3 4 -6 -2 -5 -13z"/>
<path d="M2954 10663 c-36 -76 -70 -139 -75 -141 -5 -2 -9 -12 -9 -23 0 -10
-10 -37 -21 -59 -23 -45 -39 -40 -39 13 0 15 -4 27 -8 27 -5 0 -4 -34 0 -75 8
-62 6 -85 -11 -142 -36 -124 -41 -170 -24 -263 8 -46 18 -91 23 -100 15 -24
12 4 -6 74 -26 97 -15 195 39 351 52 149 187 446 199 439 4 -3 8 4 8 15 0 12
-3 21 -6 21 -3 0 -34 -62 -70 -137z"/>
<path d="M3451 10774 c0 -11 3 -14 6 -6 3 7 2 16 -1 19 -3 4 -6 -2 -5 -13z"/>
<path d="M2821 10736 c-1 -31 38 -210 45 -203 2 2 -4 42 -15 88 -11 46 -22 98
-24 114 l-4 30 -2 -29z"/>
<path d="M3435 10717 c-4 -20 -11 -40 -16 -43 -5 -3 -9 -22 -8 -42 1 -32 3
-28 20 33 10 39 17 75 15 80 -2 6 -7 -7 -11 -28z"/>
<path d="M3115 10620 c-9 -16 -13 -30 -11 -30 3 0 12 14 21 30 9 17 13 30 11
30 -3 0 -12 -13 -21 -30z"/>
<path d="M2970 10588 c-33 -155 -39 -344 -15 -503 20 -131 27 -167 31 -162 2
2 -5 64 -16 137 -11 74 -19 152 -19 175 2 98 20 287 33 343 8 34 10 62 6 62
-5 0 -13 -24 -20 -52z"/>
<path d="M3356 10593 c-3 -21 -6 -58 -6 -83 -1 -65 -15 -121 -66 -246 -24 -61
-44 -124 -43 -140 0 -20 11 2 34 69 19 53 52 137 74 185 22 48 42 105 45 127
l6 40 -13 -45 c-24 -79 -25 -77 -19 28 5 103 0 133 -12 65z"/>
<path d="M3402 10570 c0 -14 2 -19 5 -12 2 6 2 18 0 25 -3 6 -5 1 -5 -13z"/>
<path d="M2671 10544 c0 -11 3 -14 6 -6 3 7 2 16 -1 19 -3 4 -6 -2 -5 -13z"/>
<path d="M2661 10504 c0 -11 3 -14 6 -6 3 7 2 16 -1 19 -3 4 -6 -2 -5 -13z"/>
<path d="M4136 10467 c-22 -54 -28 -86 -7 -42 l19 40 4 -120 4 -120 2 138 c1
75 0 137 -3 137 -3 0 -11 -15 -19 -33z"/>
<path d="M3602 10395 c0 -16 2 -22 5 -12 2 9 2 23 0 30 -3 6 -5 -1 -5 -18z"/>
<path d="M4096 10365 c-9 -26 -7 -32 5 -12 6 10 9 21 6 23 -2 3 -7 -2 -11 -11z"/>
<path d="M4072 10305 c-17 -37 -14 -45 4 -12 9 16 14 31 11 33 -2 2 -9 -7 -15
-21z"/>
<path d="M3953 10275 c0 -22 2 -30 4 -17 2 12 2 30 0 40 -3 9 -5 -1 -4 -23z"/>
<path d="M4022 10195 c-17 -36 -30 -65 -27 -65 7 0 67 121 63 126 -2 2 -18
-26 -36 -61z"/>
<path d="M3963 10170 c0 -30 2 -43 4 -27 2 15 2 39 0 55 -2 15 -4 2 -4 -28z"/>
<path d="M4142 9985 c-3 -225 -14 -322 -44 -384 -12 -26 -61 -85 -110 -135
-49 -49 -86 -92 -83 -95 3 -3 44 34 91 82 46 48 127 117 179 153 52 36 95 68
95 70 0 3 -39 -22 -87 -55 -48 -33 -89 -59 -90 -57 -1 1 6 20 17 42 30 59 41
178 38 384 l-3 185 -3 -190z"/>
<path d="M3973 10105 c-3 -9 -3 -18 -1 -21 3 -3 8 4 11 16 6 23 -1 27 -10 5z"/>
<path d="M2991 9894 c0 -11 3 -14 6 -6 3 7 2 16 -1 19 -3 4 -6 -2 -5 -13z"/>
<path d="M4317 9713 c-4 -3 -7 -13 -7 -22 1 -13 3 -13 11 2 11 19 8 33 -4 20z"/>
<path d="M4265 9600 c-19 -38 -33 -70 -30 -70 2 0 21 32 40 70 19 39 33 70 30
70 -2 0 -21 -31 -40 -70z"/>
<path d="M3642 9520 c0 -14 2 -19 5 -12 2 6 2 18 0 25 -3 6 -5 1 -5 -13z"/>
<path d="M4190 9460 c-11 -22 -18 -40 -15 -40 2 0 14 18 25 40 11 22 18 40 15
40 -2 0 -14 -18 -25 -40z"/>
<path d="M3650 9464 c0 -16 5 -36 10 -44 6 -10 7 -2 3 25 -7 49 -13 58 -13 19z"/>
<path d="M4150 9390 c-6 -11 -8 -20 -6 -20 3 0 10 9 16 20 6 11 8 20 6 20 -3
0 -10 -9 -16 -20z"/>
<path d="M2376 9235 c-9 -26 -7 -32 5 -12 6 10 9 21 6 23 -2 3 -7 -2 -11 -11z"/>
<path d="M2508 9083 c6 -2 18 -2 25 0 6 3 1 5 -13 5 -14 0 -19 -2 -12 -5z"/>
<path d="M2558 9073 c7 -3 16 -2 19 1 4 3 -2 6 -13 5 -11 0 -14 -3 -6 -6z"/>
</g>
</svg>
